<svg width="1222" height="1000" viewBox="0 0 1222 1000" fill="none" xmlns="http://www.w3.org/2000/svg">
<g filter="url(#filter0_d_63_8844)">
<mask id="path-1-inside-1_63_8844" fill="white">
<path d="M1117.11 1371.9C1110.4 1363.46 1096.86 1331.11 1090.81 1320.39C1084.77 1309.68 1062.19 1273.51 1044.86 1256.62C1040.58 1252.45 1036.28 1249.47 1032.22 1247.35C1019.68 1217.94 1004.45 1099.63 995.879 1009.65C986.812 914.451 957.181 876.742 957.181 876.742C961.416 798.852 936.019 717.867 936.824 698.704C937.628 679.541 936.824 619.78 936.824 619.78C932.388 521.694 881.601 502.737 826.378 484.603C771.155 466.468 703.837 431.85 693.759 422.785C683.681 413.721 683.681 398.882 683.279 374.567C682.887 351.044 692.681 325.959 700.619 297.484C721.992 296.967 734.592 231.358 723.988 225.379C720.161 223.222 717.294 223.053 715.158 223.802C718.516 190.428 717.108 152.846 701.418 123.585C671.592 67.948 613.542 70.0098 613.542 70.0098H608.452C608.452 70.0098 550.408 67.948 520.576 123.585C504.886 152.846 503.478 190.428 506.836 223.802C504.701 223.058 501.828 223.222 498.006 225.379C487.407 231.358 500.007 296.967 521.375 297.484C529.313 325.964 539.107 351.044 538.715 374.567C538.313 398.882 538.313 413.721 528.235 422.785C518.157 431.85 450.839 466.473 395.616 484.603C340.393 502.737 289.601 521.694 285.17 619.78C285.17 619.78 284.366 679.541 285.17 698.704C285.975 717.867 260.579 798.852 264.813 876.742C264.813 876.742 235.188 914.451 226.115 1009.65C217.543 1099.63 202.308 1217.94 189.775 1247.35C185.721 1249.47 181.419 1252.45 177.143 1256.62C159.809 1273.51 137.239 1309.68 131.189 1320.39C125.144 1331.11 111.595 1363.46 104.885 1371.9C97.0245 1381.8 98.1025 1396.39 112.142 1389.52C126.047 1382.72 140.055 1366.14 145.697 1356.24C151.34 1346.35 155.373 1343.88 155.373 1343.88C155.373 1343.88 147.874 1408.68 145.785 1428.37C143.469 1450.21 135.423 1480.08 146.507 1483.17C158.689 1486.57 161.825 1469.98 163.842 1457.21C165.859 1444.43 178.366 1383.02 182.342 1379.32C187.299 1374.7 185.117 1381.86 183.998 1396.63C183.621 1401.63 181.981 1426.71 179.562 1442.79C177.143 1458.86 169.082 1494.72 186.015 1492.65C202.947 1490.59 206.975 1393.75 209.797 1386.74C212.618 1379.73 215.037 1382.62 213.422 1399.93C212.912 1405.4 204.149 1470.4 207.378 1483.58C210.601 1496.77 223.098 1494.71 227.131 1477.82C231.165 1460.92 235.193 1392.51 238.014 1387.56C240.835 1382.61 241.64 1391.68 240.835 1404.04C240.242 1413.09 235.193 1462.57 244.869 1464.63C254.544 1466.69 258.474 1460.61 261.156 1424.45C263.508 1392.78 263.813 1375.19 265.427 1355C267.041 1334.81 269.053 1275.46 259.382 1257.33C259.382 1257.33 271.477 1196.33 296.466 1143.58C321.46 1090.83 358.543 998.51 356.929 953.177C355.588 915.532 386.492 784.683 397.937 740.436C399.02 751.467 400.604 763.153 402.883 775.139C414.168 834.483 431.101 906.193 428.682 950.704C426.263 995.215 421.425 1062.8 416.587 1089.18C411.749 1115.55 382.727 1217.76 383.532 1343.87C384.337 1469.98 401.269 1618.76 409.331 1650.08C417.392 1681.4 419.713 1712.45 417.299 1733.88C414.88 1755.31 410.14 1802.98 414.978 1835.13C414.978 1835.13 395.632 1919.2 410.945 2033.77C426.263 2148.34 453.671 2274.45 453.671 2287.64C453.671 2288.81 453.671 2290.61 453.671 2292.88C452.356 2299.03 450.891 2305.15 449.57 2311.3C447.972 2318.73 446.899 2326.17 446.698 2333.79C446.502 2341.33 446.914 2348.84 447.043 2356.37C447.131 2361.65 446.992 2366.93 446.491 2372.17C442.788 2379.86 438.322 2387.25 433.742 2394.32C427.527 2403.92 420.497 2412.93 413.348 2421.82C406.133 2430.79 398.768 2439.63 391.887 2448.87C388.468 2453.46 385.167 2458.15 382.072 2462.98C378.844 2468.02 375.197 2473.31 374.047 2479.33C372.985 2484.88 374.527 2490.48 379.695 2493.12C380.726 2493.65 381.82 2493.98 382.918 2494.12C382.779 2495.82 382.882 2497.56 383.357 2499.36C385.11 2505.92 391.645 2510.64 398.221 2510.83C399.113 2513.96 401.362 2516.34 404.854 2517.36C409.129 2518.61 413.771 2517.3 417.588 2515.04C417.779 2516.04 418.093 2517.02 418.568 2517.96C420.951 2522.73 426.268 2524.77 431.266 2524.61C437.177 2524.42 442.185 2520.87 446.12 2516.6C448.157 2514.4 450.004 2512.03 451.85 2509.68C451.076 2512.86 451.004 2516.17 452.16 2519.27C454.31 2525.03 460.438 2527.94 466.07 2528.75C471.413 2529.53 476.818 2528.44 481.625 2525.98C483.467 2525.04 485.359 2523.83 487.113 2522.43C490.404 2520.77 493.4 2518.37 495.964 2515.77C501.652 2510 505.577 2502.81 508.533 2495.26C515.083 2478.54 517.192 2460.37 520.612 2442.82C521.257 2439.52 521.927 2436.18 522.665 2432.86C523.088 2433.16 523.763 2433.12 524.341 2432.53C531.675 2424.92 534.501 2412.62 535.378 2402.32C536.451 2389.69 534.574 2377.09 532.284 2364.71C529.86 2351.57 527.461 2338.48 525.94 2325.18C524.423 2311.91 523.588 2298.56 522.969 2285.21C522.629 2277.87 522.319 2270.53 522.015 2263.19C521.994 2262.65 521.963 2262.12 521.937 2261.58C523.407 2241.2 525.104 2221.35 527.033 2204.38C535.095 2133.49 563.312 2015.63 556.055 1954.63C548.798 1893.64 557.639 1737.86 565.329 1693.35C573.014 1648.84 610.071 1398.26 602.01 1326.55L611.005 1325.72L620 1326.55C611.938 1398.26 648.996 1648.84 656.681 1693.35C664.366 1737.86 673.206 1893.64 665.954 1954.63C658.698 2015.63 686.915 2133.49 694.977 2204.38C696.906 2221.35 698.602 2241.2 700.072 2261.58C700.047 2262.12 700.016 2262.65 699.995 2263.19C699.685 2270.53 699.381 2277.87 699.041 2285.21C698.422 2298.56 697.586 2311.91 696.07 2325.18C694.554 2338.48 692.155 2351.57 689.726 2364.71C687.441 2377.09 685.559 2389.69 686.631 2402.32C687.508 2412.62 690.335 2424.93 697.669 2432.53C698.247 2433.12 698.917 2433.16 699.345 2432.86C700.083 2436.18 700.753 2439.52 701.398 2442.82C704.817 2460.37 706.927 2478.54 713.477 2495.26C716.438 2502.81 720.357 2510 726.046 2515.77C728.61 2518.37 731.606 2520.78 734.897 2522.43C736.65 2523.83 738.538 2525.04 740.384 2525.98C745.191 2528.44 750.591 2529.53 755.94 2528.75C761.572 2527.94 767.694 2525.03 769.85 2519.27C771.005 2516.17 770.933 2512.86 770.16 2509.68C772.006 2512.03 773.853 2514.4 775.89 2516.6C779.825 2520.87 784.833 2524.42 790.744 2524.61C795.742 2524.77 801.059 2522.73 803.442 2517.96C803.911 2517.02 804.226 2516.04 804.422 2515.04C808.239 2517.3 812.88 2518.6 817.156 2517.36C820.648 2516.34 822.902 2513.96 823.789 2510.83C830.365 2510.64 836.905 2505.92 838.653 2499.36C839.133 2497.56 839.231 2495.82 839.092 2494.12C840.19 2493.97 841.284 2493.65 842.315 2493.12C847.483 2490.48 849.025 2484.88 847.963 2479.33C846.813 2473.31 843.166 2468.02 839.937 2462.98C836.843 2458.15 833.542 2453.46 830.122 2448.87C823.242 2439.63 815.877 2430.78 808.661 2421.82C801.513 2412.93 794.488 2403.92 788.268 2394.32C783.688 2387.25 779.222 2379.86 775.518 2372.17C775.023 2366.93 774.879 2361.65 774.967 2356.37C775.096 2348.84 775.508 2341.33 775.312 2333.79C775.111 2326.17 774.038 2318.74 772.444 2311.3C771.124 2305.14 769.665 2299.03 768.344 2292.88C768.344 2290.61 768.344 2288.81 768.344 2287.64C768.344 2274.45 795.757 2148.34 811.07 2033.77C826.388 1919.2 807.042 1835.13 807.042 1835.13C811.88 1802.98 807.135 1755.31 804.721 1733.88C802.302 1712.45 804.623 1681.4 812.684 1650.08C820.746 1618.76 837.678 1469.98 838.483 1343.87C839.288 1217.76 810.265 1115.55 805.428 1089.18C800.59 1062.8 795.752 995.215 793.333 950.704C790.914 906.193 807.847 834.483 819.132 775.139C821.411 763.147 822.995 751.467 824.078 740.436C835.523 784.683 866.427 915.532 865.086 953.177C863.472 998.51 900.56 1090.83 925.549 1143.58C950.538 1196.33 962.633 1257.33 962.633 1257.33C952.957 1275.46 954.974 1334.81 956.588 1355C958.202 1375.2 958.507 1392.78 960.859 1424.45C963.546 1460.61 967.476 1466.69 977.146 1464.63C986.822 1462.57 981.773 1413.09 981.18 1404.04C980.37 1391.68 981.18 1382.61 984.001 1387.56C986.822 1392.51 990.855 1460.92 994.884 1477.82C998.917 1494.71 1011.41 1496.77 1014.64 1483.58C1017.86 1470.4 1009.1 1405.4 1008.59 1399.93C1006.98 1382.61 1009.4 1379.73 1012.22 1386.74C1015.04 1393.75 1019.07 1490.59 1036 1492.65C1052.93 1494.72 1044.87 1458.86 1042.45 1442.79C1040.03 1426.71 1038.39 1401.63 1038.01 1396.63C1036.89 1381.86 1034.71 1374.71 1039.67 1379.32C1043.64 1383.02 1056.15 1444.43 1058.17 1457.21C1060.18 1469.98 1063.32 1486.57 1075.5 1483.17C1086.59 1480.08 1078.54 1450.21 1076.22 1428.37C1074.14 1408.68 1066.64 1343.88 1066.64 1343.88C1066.64 1343.88 1070.67 1346.35 1076.31 1356.24C1081.95 1366.14 1095.96 1382.72 1109.87 1389.52C1123.9 1396.39 1124.97 1381.79 1117.11 1371.9Z"/>
</mask>
<path d="M1117.11 1371.9C1110.4 1363.46 1096.86 1331.11 1090.81 1320.39C1084.77 1309.68 1062.19 1273.51 1044.86 1256.62C1040.58 1252.45 1036.28 1249.47 1032.22 1247.35C1019.68 1217.94 1004.45 1099.63 995.879 1009.65C986.812 914.451 957.181 876.742 957.181 876.742C961.416 798.852 936.019 717.867 936.824 698.704C937.628 679.541 936.824 619.78 936.824 619.78C932.388 521.694 881.601 502.737 826.378 484.603C771.155 466.468 703.837 431.85 693.759 422.785C683.681 413.721 683.681 398.882 683.279 374.567C682.887 351.044 692.681 325.959 700.619 297.484C721.992 296.967 734.592 231.358 723.988 225.379C720.161 223.222 717.294 223.053 715.158 223.802C718.516 190.428 717.108 152.846 701.418 123.585C671.592 67.948 613.542 70.0098 613.542 70.0098H608.452C608.452 70.0098 550.408 67.948 520.576 123.585C504.886 152.846 503.478 190.428 506.836 223.802C504.701 223.058 501.828 223.222 498.006 225.379C487.407 231.358 500.007 296.967 521.375 297.484C529.313 325.964 539.107 351.044 538.715 374.567C538.313 398.882 538.313 413.721 528.235 422.785C518.157 431.85 450.839 466.473 395.616 484.603C340.393 502.737 289.601 521.694 285.17 619.78C285.17 619.78 284.366 679.541 285.17 698.704C285.975 717.867 260.579 798.852 264.813 876.742C264.813 876.742 235.188 914.451 226.115 1009.65C217.543 1099.63 202.308 1217.94 189.775 1247.35C185.721 1249.47 181.419 1252.45 177.143 1256.62C159.809 1273.51 137.239 1309.68 131.189 1320.39C125.144 1331.11 111.595 1363.46 104.885 1371.9C97.0245 1381.8 98.1025 1396.39 112.142 1389.52C126.047 1382.72 140.055 1366.14 145.697 1356.24C151.34 1346.35 155.373 1343.88 155.373 1343.88C155.373 1343.88 147.874 1408.68 145.785 1428.37C143.469 1450.21 135.423 1480.08 146.507 1483.17C158.689 1486.57 161.825 1469.98 163.842 1457.21C165.859 1444.43 178.366 1383.02 182.342 1379.32C187.299 1374.7 185.117 1381.86 183.998 1396.63C183.621 1401.63 181.981 1426.71 179.562 1442.79C177.143 1458.86 169.082 1494.72 186.015 1492.65C202.947 1490.59 206.975 1393.75 209.797 1386.74C212.618 1379.73 215.037 1382.62 213.422 1399.93C212.912 1405.4 204.149 1470.4 207.378 1483.58C210.601 1496.77 223.098 1494.71 227.131 1477.82C231.165 1460.92 235.193 1392.51 238.014 1387.56C240.835 1382.61 241.64 1391.68 240.835 1404.04C240.242 1413.09 235.193 1462.57 244.869 1464.63C254.544 1466.69 258.474 1460.61 261.156 1424.45C263.508 1392.78 263.813 1375.19 265.427 1355C267.041 1334.81 269.053 1275.46 259.382 1257.33C259.382 1257.33 271.477 1196.33 296.466 1143.58C321.46 1090.83 358.543 998.51 356.929 953.177C355.588 915.532 386.492 784.683 397.937 740.436C399.02 751.467 400.604 763.153 402.883 775.139C414.168 834.483 431.101 906.193 428.682 950.704C426.263 995.215 421.425 1062.8 416.587 1089.18C411.749 1115.55 382.727 1217.76 383.532 1343.87C384.337 1469.98 401.269 1618.76 409.331 1650.08C417.392 1681.4 419.713 1712.45 417.299 1733.88C414.88 1755.31 410.14 1802.98 414.978 1835.13C414.978 1835.13 395.632 1919.2 410.945 2033.77C426.263 2148.34 453.671 2274.45 453.671 2287.64C453.671 2288.81 453.671 2290.61 453.671 2292.88C452.356 2299.03 450.891 2305.15 449.57 2311.3C447.972 2318.73 446.899 2326.17 446.698 2333.79C446.502 2341.33 446.914 2348.84 447.043 2356.37C447.131 2361.65 446.992 2366.93 446.491 2372.17C442.788 2379.86 438.322 2387.25 433.742 2394.32C427.527 2403.92 420.497 2412.93 413.348 2421.82C406.133 2430.79 398.768 2439.63 391.887 2448.87C388.468 2453.46 385.167 2458.15 382.072 2462.98C378.844 2468.02 375.197 2473.31 374.047 2479.33C372.985 2484.88 374.527 2490.48 379.695 2493.12C380.726 2493.65 381.82 2493.98 382.918 2494.12C382.779 2495.82 382.882 2497.56 383.357 2499.36C385.11 2505.92 391.645 2510.64 398.221 2510.83C399.113 2513.96 401.362 2516.34 404.854 2517.36C409.129 2518.61 413.771 2517.3 417.588 2515.04C417.779 2516.04 418.093 2517.02 418.568 2517.96C420.951 2522.73 426.268 2524.77 431.266 2524.61C437.177 2524.42 442.185 2520.87 446.12 2516.6C448.157 2514.4 450.004 2512.03 451.85 2509.68C451.076 2512.86 451.004 2516.17 452.16 2519.27C454.31 2525.03 460.438 2527.94 466.07 2528.75C471.413 2529.53 476.818 2528.44 481.625 2525.98C483.467 2525.04 485.359 2523.83 487.113 2522.43C490.404 2520.77 493.4 2518.37 495.964 2515.77C501.652 2510 505.577 2502.81 508.533 2495.26C515.083 2478.54 517.192 2460.37 520.612 2442.82C521.257 2439.52 521.927 2436.18 522.665 2432.86C523.088 2433.16 523.763 2433.12 524.341 2432.53C531.675 2424.92 534.501 2412.62 535.378 2402.32C536.451 2389.69 534.574 2377.09 532.284 2364.71C529.86 2351.57 527.461 2338.48 525.94 2325.18C524.423 2311.91 523.588 2298.56 522.969 2285.21C522.629 2277.87 522.319 2270.53 522.015 2263.19C521.994 2262.65 521.963 2262.12 521.937 2261.58C523.407 2241.2 525.104 2221.35 527.033 2204.38C535.095 2133.49 563.312 2015.63 556.055 1954.63C548.798 1893.64 557.639 1737.86 565.329 1693.35C573.014 1648.84 610.071 1398.26 602.01 1326.55L611.005 1325.72L620 1326.55C611.938 1398.26 648.996 1648.84 656.681 1693.35C664.366 1737.86 673.206 1893.64 665.954 1954.63C658.698 2015.63 686.915 2133.49 694.977 2204.38C696.906 2221.35 698.602 2241.2 700.072 2261.58C700.047 2262.12 700.016 2262.65 699.995 2263.19C699.685 2270.53 699.381 2277.87 699.041 2285.21C698.422 2298.56 697.586 2311.91 696.07 2325.18C694.554 2338.48 692.155 2351.57 689.726 2364.71C687.441 2377.09 685.559 2389.69 686.631 2402.32C687.508 2412.62 690.335 2424.93 697.669 2432.53C698.247 2433.12 698.917 2433.16 699.345 2432.86C700.083 2436.18 700.753 2439.52 701.398 2442.82C704.817 2460.37 706.927 2478.54 713.477 2495.26C716.438 2502.81 720.357 2510 726.046 2515.77C728.61 2518.37 731.606 2520.78 734.897 2522.43C736.65 2523.83 738.538 2525.04 740.384 2525.98C745.191 2528.44 750.591 2529.53 755.94 2528.75C761.572 2527.94 767.694 2525.03 769.85 2519.27C771.005 2516.17 770.933 2512.86 770.16 2509.68C772.006 2512.03 773.853 2514.4 775.89 2516.6C779.825 2520.87 784.833 2524.42 790.744 2524.61C795.742 2524.77 801.059 2522.73 803.442 2517.96C803.911 2517.02 804.226 2516.04 804.422 2515.04C808.239 2517.3 812.88 2518.6 817.156 2517.36C820.648 2516.34 822.902 2513.96 823.789 2510.83C830.365 2510.64 836.905 2505.92 838.653 2499.36C839.133 2497.56 839.231 2495.82 839.092 2494.12C840.19 2493.97 841.284 2493.65 842.315 2493.12C847.483 2490.48 849.025 2484.88 847.963 2479.33C846.813 2473.31 843.166 2468.02 839.937 2462.98C836.843 2458.15 833.542 2453.46 830.122 2448.87C823.242 2439.63 815.877 2430.78 808.661 2421.82C801.513 2412.93 794.488 2403.92 788.268 2394.32C783.688 2387.25 779.222 2379.86 775.518 2372.17C775.023 2366.93 774.879 2361.65 774.967 2356.37C775.096 2348.84 775.508 2341.33 775.312 2333.79C775.111 2326.17 774.038 2318.74 772.444 2311.3C771.124 2305.14 769.665 2299.03 768.344 2292.88C768.344 2290.61 768.344 2288.81 768.344 2287.64C768.344 2274.45 795.757 2148.34 811.07 2033.77C826.388 1919.2 807.042 1835.13 807.042 1835.13C811.88 1802.98 807.135 1755.31 804.721 1733.88C802.302 1712.45 804.623 1681.4 812.684 1650.08C820.746 1618.76 837.678 1469.98 838.483 1343.87C839.288 1217.76 810.265 1115.55 805.428 1089.18C800.59 1062.8 795.752 995.215 793.333 950.704C790.914 906.193 807.847 834.483 819.132 775.139C821.411 763.147 822.995 751.467 824.078 740.436C835.523 784.683 866.427 915.532 865.086 953.177C863.472 998.51 900.56 1090.83 925.549 1143.58C950.538 1196.33 962.633 1257.33 962.633 1257.33C952.957 1275.46 954.974 1334.81 956.588 1355C958.202 1375.2 958.507 1392.78 960.859 1424.45C963.546 1460.61 967.476 1466.69 977.146 1464.63C986.822 1462.57 981.773 1413.09 981.18 1404.04C980.37 1391.68 981.18 1382.61 984.001 1387.56C986.822 1392.51 990.855 1460.92 994.884 1477.82C998.917 1494.71 1011.41 1496.77 1014.64 1483.58C1017.86 1470.4 1009.1 1405.4 1008.59 1399.93C1006.98 1382.61 1009.4 1379.73 1012.22 1386.74C1015.04 1393.75 1019.07 1490.59 1036 1492.65C1052.93 1494.72 1044.87 1458.86 1042.45 1442.79C1040.03 1426.71 1038.39 1401.63 1038.01 1396.63C1036.89 1381.86 1034.71 1374.71 1039.67 1379.32C1043.64 1383.02 1056.15 1444.43 1058.17 1457.21C1060.18 1469.98 1063.32 1486.57 1075.5 1483.17C1086.59 1480.08 1078.54 1450.21 1076.22 1428.37C1074.14 1408.68 1066.64 1343.88 1066.64 1343.88C1066.64 1343.88 1070.67 1346.35 1076.31 1356.24C1081.95 1366.14 1095.96 1382.72 1109.87 1389.52C1123.9 1396.39 1124.97 1381.79 1117.11 1371.9Z" fill="#D8DACB" fill-opacity="0.01" shape-rendering="crispEdges"/>
<path d="M1117.11 1371.9C1110.4 1363.46 1096.86 1331.11 1090.81 1320.39C1084.77 1309.68 1062.19 1273.51 1044.86 1256.62C1040.58 1252.45 1036.28 1249.47 1032.22 1247.35C1019.68 1217.94 1004.45 1099.63 995.879 1009.65C986.812 914.451 957.181 876.742 957.181 876.742C961.416 798.852 936.019 717.867 936.824 698.704C937.628 679.541 936.824 619.78 936.824 619.78C932.388 521.694 881.601 502.737 826.378 484.603C771.155 466.468 703.837 431.85 693.759 422.785C683.681 413.721 683.681 398.882 683.279 374.567C682.887 351.044 692.681 325.959 700.619 297.484C721.992 296.967 734.592 231.358 723.988 225.379C720.161 223.222 717.294 223.053 715.158 223.802C718.516 190.428 717.108 152.846 701.418 123.585C671.592 67.948 613.542 70.0098 613.542 70.0098H608.452C608.452 70.0098 550.408 67.948 520.576 123.585C504.886 152.846 503.478 190.428 506.836 223.802C504.701 223.058 501.828 223.222 498.006 225.379C487.407 231.358 500.007 296.967 521.375 297.484C529.313 325.964 539.107 351.044 538.715 374.567C538.313 398.882 538.313 413.721 528.235 422.785C518.157 431.85 450.839 466.473 395.616 484.603C340.393 502.737 289.601 521.694 285.17 619.78C285.17 619.78 284.366 679.541 285.17 698.704C285.975 717.867 260.579 798.852 264.813 876.742C264.813 876.742 235.188 914.451 226.115 1009.65C217.543 1099.63 202.308 1217.94 189.775 1247.35C185.721 1249.47 181.419 1252.45 177.143 1256.62C159.809 1273.51 137.239 1309.68 131.189 1320.39C125.144 1331.11 111.595 1363.46 104.885 1371.9C97.0245 1381.8 98.1025 1396.39 112.142 1389.52C126.047 1382.72 140.055 1366.14 145.697 1356.24C151.34 1346.35 155.373 1343.88 155.373 1343.88C155.373 1343.88 147.874 1408.68 145.785 1428.37C143.469 1450.21 135.423 1480.08 146.507 1483.17C158.689 1486.57 161.825 1469.98 163.842 1457.21C165.859 1444.43 178.366 1383.02 182.342 1379.32C187.299 1374.7 185.117 1381.86 183.998 1396.63C183.621 1401.63 181.981 1426.71 179.562 1442.79C177.143 1458.86 169.082 1494.72 186.015 1492.65C202.947 1490.59 206.975 1393.75 209.797 1386.74C212.618 1379.73 215.037 1382.62 213.422 1399.93C212.912 1405.4 204.149 1470.4 207.378 1483.58C210.601 1496.77 223.098 1494.71 227.131 1477.82C231.165 1460.92 235.193 1392.51 238.014 1387.56C240.835 1382.61 241.64 1391.68 240.835 1404.04C240.242 1413.09 235.193 1462.57 244.869 1464.63C254.544 1466.69 258.474 1460.61 261.156 1424.45C263.508 1392.78 263.813 1375.19 265.427 1355C267.041 1334.81 269.053 1275.46 259.382 1257.33C259.382 1257.33 271.477 1196.33 296.466 1143.58C321.46 1090.83 358.543 998.51 356.929 953.177C355.588 915.532 386.492 784.683 397.937 740.436C399.02 751.467 400.604 763.153 402.883 775.139C414.168 834.483 431.101 906.193 428.682 950.704C426.263 995.215 421.425 1062.8 416.587 1089.18C411.749 1115.55 382.727 1217.76 383.532 1343.87C384.337 1469.98 401.269 1618.76 409.331 1650.08C417.392 1681.4 419.713 1712.45 417.299 1733.88C414.88 1755.31 410.14 1802.98 414.978 1835.13C414.978 1835.13 395.632 1919.2 410.945 2033.77C426.263 2148.34 453.671 2274.45 453.671 2287.64C453.671 2288.81 453.671 2290.61 453.671 2292.88C452.356 2299.03 450.891 2305.15 449.57 2311.3C447.972 2318.73 446.899 2326.17 446.698 2333.79C446.502 2341.33 446.914 2348.84 447.043 2356.37C447.131 2361.65 446.992 2366.93 446.491 2372.17C442.788 2379.86 438.322 2387.25 433.742 2394.32C427.527 2403.92 420.497 2412.93 413.348 2421.82C406.133 2430.79 398.768 2439.63 391.887 2448.87C388.468 2453.46 385.167 2458.15 382.072 2462.98C378.844 2468.02 375.197 2473.31 374.047 2479.33C372.985 2484.88 374.527 2490.48 379.695 2493.12C380.726 2493.65 381.82 2493.98 382.918 2494.12C382.779 2495.82 382.882 2497.56 383.357 2499.36C385.11 2505.92 391.645 2510.64 398.221 2510.83C399.113 2513.96 401.362 2516.34 404.854 2517.36C409.129 2518.61 413.771 2517.3 417.588 2515.04C417.779 2516.04 418.093 2517.02 418.568 2517.96C420.951 2522.73 426.268 2524.77 431.266 2524.61C437.177 2524.42 442.185 2520.87 446.12 2516.6C448.157 2514.4 450.004 2512.03 451.85 2509.68C451.076 2512.86 451.004 2516.17 452.16 2519.27C454.31 2525.03 460.438 2527.94 466.07 2528.75C471.413 2529.53 476.818 2528.44 481.625 2525.98C483.467 2525.04 485.359 2523.83 487.113 2522.43C490.404 2520.77 493.4 2518.37 495.964 2515.77C501.652 2510 505.577 2502.81 508.533 2495.26C515.083 2478.54 517.192 2460.37 520.612 2442.82C521.257 2439.52 521.927 2436.18 522.665 2432.86C523.088 2433.16 523.763 2433.12 524.341 2432.53C531.675 2424.92 534.501 2412.62 535.378 2402.32C536.451 2389.69 534.574 2377.09 532.284 2364.71C529.86 2351.57 527.461 2338.48 525.94 2325.18C524.423 2311.91 523.588 2298.56 522.969 2285.21C522.629 2277.87 522.319 2270.53 522.015 2263.19C521.994 2262.65 521.963 2262.12 521.937 2261.58C523.407 2241.2 525.104 2221.35 527.033 2204.38C535.095 2133.49 563.312 2015.63 556.055 1954.63C548.798 1893.64 557.639 1737.86 565.329 1693.35C573.014 1648.84 610.071 1398.26 602.01 1326.55L611.005 1325.72L620 1326.55C611.938 1398.26 648.996 1648.84 656.681 1693.35C664.366 1737.86 673.206 1893.64 665.954 1954.63C658.698 2015.63 686.915 2133.49 694.977 2204.38C696.906 2221.35 698.602 2241.2 700.072 2261.58C700.047 2262.12 700.016 2262.65 699.995 2263.19C699.685 2270.53 699.381 2277.87 699.041 2285.21C698.422 2298.56 697.586 2311.91 696.07 2325.18C694.554 2338.48 692.155 2351.57 689.726 2364.71C687.441 2377.09 685.559 2389.69 686.631 2402.32C687.508 2412.62 690.335 2424.93 697.669 2432.53C698.247 2433.12 698.917 2433.16 699.345 2432.86C700.083 2436.18 700.753 2439.52 701.398 2442.82C704.817 2460.37 706.927 2478.54 713.477 2495.26C716.438 2502.81 720.357 2510 726.046 2515.77C728.61 2518.37 731.606 2520.78 734.897 2522.43C736.65 2523.83 738.538 2525.04 740.384 2525.98C745.191 2528.44 750.591 2529.53 755.94 2528.75C761.572 2527.94 767.694 2525.03 769.85 2519.27C771.005 2516.17 770.933 2512.86 770.16 2509.68C772.006 2512.03 773.853 2514.4 775.89 2516.6C779.825 2520.87 784.833 2524.42 790.744 2524.61C795.742 2524.77 801.059 2522.73 803.442 2517.96C803.911 2517.02 804.226 2516.04 804.422 2515.04C808.239 2517.3 812.88 2518.6 817.156 2517.36C820.648 2516.34 822.902 2513.96 823.789 2510.83C830.365 2510.64 836.905 2505.92 838.653 2499.36C839.133 2497.56 839.231 2495.82 839.092 2494.12C840.19 2493.97 841.284 2493.65 842.315 2493.12C847.483 2490.48 849.025 2484.88 847.963 2479.33C846.813 2473.31 843.166 2468.02 839.937 2462.98C836.843 2458.15 833.542 2453.46 830.122 2448.87C823.242 2439.63 815.877 2430.78 808.661 2421.82C801.513 2412.93 794.488 2403.92 788.268 2394.32C783.688 2387.25 779.222 2379.86 775.518 2372.17C775.023 2366.93 774.879 2361.65 774.967 2356.37C775.096 2348.84 775.508 2341.33 775.312 2333.79C775.111 2326.17 774.038 2318.74 772.444 2311.3C771.124 2305.14 769.665 2299.03 768.344 2292.88C768.344 2290.61 768.344 2288.81 768.344 2287.64C768.344 2274.45 795.757 2148.34 811.07 2033.77C826.388 1919.2 807.042 1835.13 807.042 1835.13C811.88 1802.98 807.135 1755.31 804.721 1733.88C802.302 1712.45 804.623 1681.4 812.684 1650.08C820.746 1618.76 837.678 1469.98 838.483 1343.87C839.288 1217.76 810.265 1115.55 805.428 1089.18C800.59 1062.8 795.752 995.215 793.333 950.704C790.914 906.193 807.847 834.483 819.132 775.139C821.411 763.147 822.995 751.467 824.078 740.436C835.523 784.683 866.427 915.532 865.086 953.177C863.472 998.51 900.56 1090.83 925.549 1143.58C950.538 1196.33 962.633 1257.33 962.633 1257.33C952.957 1275.46 954.974 1334.81 956.588 1355C958.202 1375.2 958.507 1392.78 960.859 1424.45C963.546 1460.61 967.476 1466.69 977.146 1464.63C986.822 1462.57 981.773 1413.09 981.18 1404.04C980.37 1391.68 981.18 1382.61 984.001 1387.56C986.822 1392.51 990.855 1460.92 994.884 1477.82C998.917 1494.71 1011.41 1496.77 1014.64 1483.58C1017.86 1470.4 1009.1 1405.4 1008.59 1399.93C1006.98 1382.61 1009.4 1379.73 1012.22 1386.74C1015.04 1393.75 1019.07 1490.59 1036 1492.65C1052.93 1494.72 1044.87 1458.86 1042.45 1442.79C1040.03 1426.71 1038.39 1401.63 1038.01 1396.63C1036.89 1381.86 1034.71 1374.71 1039.67 1379.32C1043.64 1383.02 1056.15 1444.43 1058.17 1457.21C1060.18 1469.98 1063.32 1486.57 1075.5 1483.17C1086.59 1480.08 1078.54 1450.21 1076.22 1428.37C1074.14 1408.68 1066.64 1343.88 1066.64 1343.88C1066.64 1343.88 1070.67 1346.35 1076.31 1356.24C1081.95 1366.14 1095.96 1382.72 1109.87 1389.52C1123.9 1396.39 1124.97 1381.79 1117.11 1371.9Z" stroke="black" stroke-width="4" shape-rendering="crispEdges" mask="url(#path-1-inside-1_63_8844)"/>
</g>
<defs>
<filter id="filter0_d_63_8844" x="0" y="-30" width="1222" height="2659" filterUnits="userSpaceOnUse" color-interpolation-filters="sRGB">
<feFlood flood-opacity="0" result="BackgroundImageFix"/>
<feColorMatrix in="SourceAlpha" type="matrix" values="0 0 0 0 0 0 0 0 0 0 0 0 0 0 0 0 0 0 127 0" result="hardAlpha"/>
<feOffset/>
<feGaussianBlur stdDeviation="50"/>
<feComposite in2="hardAlpha" operator="out"/>
<feColorMatrix type="matrix" values="0 0 0 0 0.00392157 0 0 0 0 0.996078 0 0 0 0 0.282353 0 0 0 0.6 0"/>
<feBlend mode="normal" in2="BackgroundImageFix" result="effect1_dropShadow_63_8844"/>
<feBlend mode="normal" in="SourceGraphic" in2="effect1_dropShadow_63_8844" result="shape"/>
</filter>
</defs>
</svg>
