<svg width="1142" height="990" viewBox="0 0 1142 990" fill="none" xmlns="http://www.w3.org/2000/svg">
<g filter="url(#filter0_d_63_8401)">
<mask id="path-1-inside-1_63_8401" fill="white">
<path d="M1077.11 1361.9C1070.4 1353.46 1056.86 1321.11 1050.81 1310.39C1044.77 1299.68 1022.19 1263.51 1004.86 1246.62C1000.58 1242.45 996.279 1239.47 992.22 1237.35C979.681 1207.94 964.451 1089.63 955.879 999.653C946.812 904.451 917.181 866.742 917.181 866.742C921.416 788.852 896.019 707.867 896.824 688.704C897.628 669.541 896.824 609.78 896.824 609.78C892.388 511.694 841.601 492.737 786.378 474.603C731.155 456.468 663.837 421.85 653.759 412.785C643.681 403.721 643.681 388.882 643.279 364.567C642.887 341.044 652.681 315.959 660.619 287.484C681.992 286.967 694.592 221.358 683.988 215.379C680.161 213.222 677.294 213.053 675.158 213.802C678.516 180.428 677.108 142.846 661.418 113.585C631.592 57.948 573.542 60.0098 573.542 60.0098H568.452C568.452 60.0098 510.408 57.948 480.576 113.585C464.886 142.846 463.478 180.428 466.836 213.802C464.701 213.058 461.828 213.222 458.006 215.379C447.407 221.358 460.007 286.967 481.375 287.484C489.313 315.964 499.107 341.044 498.715 364.567C498.313 388.882 498.313 403.721 488.235 412.785C478.157 421.85 410.839 456.473 355.616 474.603C300.393 492.737 249.601 511.694 245.17 609.78C245.17 609.78 244.366 669.541 245.17 688.704C245.975 707.867 220.579 788.852 224.813 866.742C224.813 866.742 195.188 904.451 186.115 999.653C177.543 1089.63 162.308 1207.94 149.775 1237.35C145.721 1239.47 141.419 1242.45 137.143 1246.62C119.809 1263.51 97.2388 1299.68 91.1888 1310.39C85.1441 1321.11 71.5949 1353.46 64.8848 1361.9C57.0245 1371.8 58.1025 1386.39 72.1416 1379.52C86.0467 1372.72 100.055 1356.14 105.697 1346.24C111.34 1336.35 115.373 1333.88 115.373 1333.88C115.373 1333.88 107.874 1398.68 105.785 1418.37C103.469 1440.21 95.4232 1470.08 106.507 1473.17C118.689 1476.57 121.825 1459.98 123.842 1447.21C125.859 1434.43 138.366 1373.02 142.342 1369.32C147.299 1364.7 145.117 1371.86 143.998 1386.63C143.621 1391.63 141.981 1416.71 139.562 1432.79C137.143 1448.86 129.082 1484.72 146.015 1482.65C162.947 1480.59 166.975 1383.75 169.797 1376.74C172.618 1369.73 175.037 1372.62 173.422 1389.93C172.912 1395.4 164.149 1460.4 167.378 1473.58C170.601 1486.77 183.098 1484.71 187.131 1467.82C191.165 1450.92 195.193 1382.51 198.014 1377.56C200.835 1372.61 201.64 1381.68 200.835 1394.04C200.242 1403.09 195.193 1452.57 204.869 1454.63C214.544 1456.69 218.474 1450.61 221.156 1414.45C223.508 1382.78 223.813 1365.19 225.427 1345C227.041 1324.81 229.053 1265.46 219.382 1247.33C219.382 1247.33 231.477 1186.33 256.466 1133.58C281.46 1080.83 318.543 988.51 316.929 943.177C315.588 905.532 346.492 774.683 357.937 730.436C359.02 741.467 360.604 753.153 362.883 765.139C374.168 824.483 391.101 896.193 388.682 940.704C386.263 985.215 381.425 1052.8 376.587 1079.18C371.749 1105.55 342.727 1207.76 343.532 1333.87C344.337 1459.98 361.269 1608.76 369.331 1640.08C377.392 1671.4 379.713 1702.45 377.299 1723.88C374.88 1745.31 370.14 1792.98 374.978 1825.13C374.978 1825.13 355.632 1909.2 370.945 2023.77C386.263 2138.34 413.671 2264.45 413.671 2277.64C413.671 2278.81 413.671 2280.61 413.671 2282.88C412.356 2289.03 410.891 2295.15 409.57 2301.3C407.972 2308.73 406.899 2316.17 406.698 2323.79C406.502 2331.33 406.914 2338.84 407.043 2346.37C407.131 2351.65 406.992 2356.93 406.491 2362.17C402.788 2369.86 398.322 2377.25 393.742 2384.32C387.527 2393.92 380.497 2402.93 373.348 2411.82C366.133 2420.79 358.768 2429.63 351.887 2438.87C348.468 2443.46 345.167 2448.15 342.072 2452.98C338.844 2458.02 335.197 2463.31 334.047 2469.33C332.985 2474.88 334.527 2480.48 339.695 2483.12C340.726 2483.65 341.82 2483.98 342.918 2484.12C342.779 2485.82 342.882 2487.56 343.357 2489.36C345.11 2495.92 351.645 2500.64 358.221 2500.83C359.113 2503.96 361.362 2506.34 364.854 2507.36C369.129 2508.61 373.771 2507.3 377.588 2505.04C377.779 2506.04 378.093 2507.02 378.568 2507.96C380.951 2512.73 386.268 2514.77 391.266 2514.61C397.177 2514.42 402.185 2510.87 406.12 2506.6C408.157 2504.4 410.004 2502.03 411.85 2499.68C411.076 2502.86 411.004 2506.17 412.16 2509.27C414.31 2515.03 420.438 2517.94 426.07 2518.75C431.413 2519.53 436.818 2518.44 441.625 2515.98C443.467 2515.04 445.359 2513.83 447.113 2512.43C450.404 2510.77 453.4 2508.37 455.964 2505.77C461.652 2500 465.577 2492.81 468.533 2485.26C475.083 2468.54 477.192 2450.37 480.612 2432.82C481.257 2429.52 481.927 2426.18 482.665 2422.86C483.088 2423.16 483.763 2423.12 484.341 2422.53C491.675 2414.92 494.501 2402.62 495.378 2392.32C496.451 2379.69 494.574 2367.09 492.284 2354.71C489.86 2341.57 487.461 2328.48 485.94 2315.18C484.423 2301.91 483.588 2288.56 482.969 2275.21C482.629 2267.87 482.319 2260.53 482.015 2253.19C481.994 2252.65 481.963 2252.12 481.937 2251.58C483.407 2231.2 485.104 2211.35 487.033 2194.38C495.095 2123.49 523.312 2005.63 516.055 1944.63C508.798 1883.64 517.639 1727.86 525.329 1683.35C533.014 1638.84 570.071 1388.26 562.01 1316.55L571.005 1315.72L580 1316.55C571.938 1388.26 608.996 1638.84 616.681 1683.35C624.366 1727.86 633.206 1883.64 625.954 1944.63C618.698 2005.63 646.915 2123.49 654.977 2194.38C656.906 2211.35 658.602 2231.2 660.072 2251.58C660.047 2252.12 660.016 2252.65 659.995 2253.19C659.685 2260.53 659.381 2267.87 659.041 2275.21C658.422 2288.56 657.586 2301.91 656.07 2315.18C654.554 2328.48 652.155 2341.57 649.726 2354.71C647.441 2367.09 645.559 2379.69 646.631 2392.32C647.508 2402.62 650.335 2414.93 657.669 2422.53C658.247 2423.12 658.917 2423.16 659.345 2422.86C660.083 2426.18 660.753 2429.52 661.398 2432.82C664.817 2450.37 666.927 2468.54 673.477 2485.26C676.438 2492.81 680.357 2500 686.046 2505.77C688.61 2508.37 691.606 2510.78 694.897 2512.43C696.65 2513.83 698.538 2515.04 700.384 2515.98C705.191 2518.44 710.591 2519.53 715.94 2518.75C721.572 2517.94 727.694 2515.03 729.85 2509.27C731.005 2506.17 730.933 2502.86 730.16 2499.68C732.006 2502.03 733.853 2504.4 735.89 2506.6C739.825 2510.87 744.833 2514.42 750.744 2514.61C755.742 2514.77 761.059 2512.73 763.442 2507.96C763.911 2507.02 764.226 2506.04 764.422 2505.04C768.239 2507.3 772.88 2508.6 777.156 2507.36C780.648 2506.34 782.902 2503.96 783.789 2500.83C790.365 2500.64 796.905 2495.92 798.653 2489.36C799.133 2487.56 799.231 2485.82 799.092 2484.12C800.19 2483.97 801.284 2483.65 802.315 2483.12C807.483 2480.48 809.025 2474.88 807.963 2469.33C806.813 2463.31 803.166 2458.02 799.937 2452.98C796.843 2448.15 793.542 2443.46 790.122 2438.87C783.242 2429.63 775.877 2420.78 768.661 2411.82C761.513 2402.93 754.488 2393.92 748.268 2384.32C743.688 2377.25 739.222 2369.86 735.518 2362.17C735.023 2356.93 734.879 2351.65 734.967 2346.37C735.096 2338.84 735.508 2331.33 735.312 2323.79C735.111 2316.17 734.038 2308.74 732.444 2301.3C731.124 2295.14 729.665 2289.03 728.344 2282.88C728.344 2280.61 728.344 2278.81 728.344 2277.64C728.344 2264.45 755.757 2138.34 771.07 2023.77C786.388 1909.2 767.042 1825.13 767.042 1825.13C771.88 1792.98 767.135 1745.31 764.721 1723.88C762.302 1702.45 764.623 1671.4 772.684 1640.08C780.746 1608.76 797.678 1459.98 798.483 1333.87C799.288 1207.76 770.265 1105.55 765.428 1079.18C760.59 1052.8 755.752 985.215 753.333 940.704C750.914 896.193 767.847 824.483 779.132 765.139C781.411 753.147 782.995 741.467 784.078 730.436C795.523 774.683 826.427 905.532 825.086 943.177C823.472 988.51 860.56 1080.83 885.549 1133.58C910.538 1186.33 922.633 1247.33 922.633 1247.33C912.957 1265.46 914.974 1324.81 916.588 1345C918.202 1365.2 918.507 1382.78 920.859 1414.45C923.546 1450.61 927.476 1456.69 937.146 1454.63C946.822 1452.57 941.773 1403.09 941.18 1394.04C940.37 1381.68 941.18 1372.61 944.001 1377.56C946.822 1382.51 950.855 1450.92 954.884 1467.82C958.917 1484.71 971.409 1486.77 974.637 1473.58C977.861 1460.4 969.103 1395.4 968.593 1389.93C966.978 1372.61 969.397 1369.73 972.218 1376.74C975.04 1383.75 979.073 1480.59 996 1482.65C1012.93 1484.72 1004.87 1448.86 1002.45 1432.79C1000.03 1416.71 998.393 1391.63 998.012 1386.63C996.893 1371.86 994.711 1364.71 999.667 1369.32C1003.64 1373.02 1016.15 1434.43 1018.17 1447.21C1020.18 1459.98 1023.32 1476.57 1035.5 1473.17C1046.59 1470.08 1038.54 1440.21 1036.22 1418.37C1034.14 1398.68 1026.64 1333.88 1026.64 1333.88C1026.64 1333.88 1030.67 1336.35 1036.31 1346.24C1041.95 1356.14 1055.96 1372.72 1069.87 1379.52C1083.9 1386.39 1084.97 1371.79 1077.11 1361.9Z"/>
</mask>
<path d="M1077.11 1361.9C1070.4 1353.46 1056.86 1321.11 1050.81 1310.39C1044.77 1299.68 1022.19 1263.51 1004.86 1246.62C1000.58 1242.45 996.279 1239.47 992.22 1237.35C979.681 1207.94 964.451 1089.63 955.879 999.653C946.812 904.451 917.181 866.742 917.181 866.742C921.416 788.852 896.019 707.867 896.824 688.704C897.628 669.541 896.824 609.78 896.824 609.78C892.388 511.694 841.601 492.737 786.378 474.603C731.155 456.468 663.837 421.85 653.759 412.785C643.681 403.721 643.681 388.882 643.279 364.567C642.887 341.044 652.681 315.959 660.619 287.484C681.992 286.967 694.592 221.358 683.988 215.379C680.161 213.222 677.294 213.053 675.158 213.802C678.516 180.428 677.108 142.846 661.418 113.585C631.592 57.948 573.542 60.0098 573.542 60.0098H568.452C568.452 60.0098 510.408 57.948 480.576 113.585C464.886 142.846 463.478 180.428 466.836 213.802C464.701 213.058 461.828 213.222 458.006 215.379C447.407 221.358 460.007 286.967 481.375 287.484C489.313 315.964 499.107 341.044 498.715 364.567C498.313 388.882 498.313 403.721 488.235 412.785C478.157 421.85 410.839 456.473 355.616 474.603C300.393 492.737 249.601 511.694 245.17 609.78C245.17 609.78 244.366 669.541 245.17 688.704C245.975 707.867 220.579 788.852 224.813 866.742C224.813 866.742 195.188 904.451 186.115 999.653C177.543 1089.63 162.308 1207.94 149.775 1237.35C145.721 1239.47 141.419 1242.45 137.143 1246.62C119.809 1263.51 97.2388 1299.68 91.1888 1310.39C85.1441 1321.11 71.5949 1353.46 64.8848 1361.9C57.0245 1371.8 58.1025 1386.39 72.1416 1379.52C86.0467 1372.72 100.055 1356.14 105.697 1346.24C111.34 1336.35 115.373 1333.88 115.373 1333.88C115.373 1333.88 107.874 1398.68 105.785 1418.37C103.469 1440.21 95.4232 1470.08 106.507 1473.17C118.689 1476.57 121.825 1459.98 123.842 1447.21C125.859 1434.43 138.366 1373.02 142.342 1369.32C147.299 1364.7 145.117 1371.86 143.998 1386.63C143.621 1391.63 141.981 1416.71 139.562 1432.79C137.143 1448.86 129.082 1484.72 146.015 1482.65C162.947 1480.59 166.975 1383.75 169.797 1376.74C172.618 1369.73 175.037 1372.62 173.422 1389.93C172.912 1395.4 164.149 1460.4 167.378 1473.58C170.601 1486.77 183.098 1484.71 187.131 1467.82C191.165 1450.92 195.193 1382.51 198.014 1377.56C200.835 1372.61 201.64 1381.68 200.835 1394.04C200.242 1403.09 195.193 1452.57 204.869 1454.63C214.544 1456.69 218.474 1450.61 221.156 1414.45C223.508 1382.78 223.813 1365.19 225.427 1345C227.041 1324.81 229.053 1265.46 219.382 1247.33C219.382 1247.33 231.477 1186.33 256.466 1133.58C281.46 1080.83 318.543 988.51 316.929 943.177C315.588 905.532 346.492 774.683 357.937 730.436C359.02 741.467 360.604 753.153 362.883 765.139C374.168 824.483 391.101 896.193 388.682 940.704C386.263 985.215 381.425 1052.8 376.587 1079.18C371.749 1105.55 342.727 1207.76 343.532 1333.87C344.337 1459.98 361.269 1608.76 369.331 1640.08C377.392 1671.4 379.713 1702.45 377.299 1723.88C374.88 1745.31 370.14 1792.98 374.978 1825.13C374.978 1825.13 355.632 1909.2 370.945 2023.77C386.263 2138.34 413.671 2264.45 413.671 2277.64C413.671 2278.81 413.671 2280.61 413.671 2282.88C412.356 2289.03 410.891 2295.15 409.57 2301.3C407.972 2308.73 406.899 2316.17 406.698 2323.79C406.502 2331.33 406.914 2338.84 407.043 2346.37C407.131 2351.65 406.992 2356.93 406.491 2362.17C402.788 2369.86 398.322 2377.25 393.742 2384.32C387.527 2393.92 380.497 2402.93 373.348 2411.82C366.133 2420.79 358.768 2429.63 351.887 2438.87C348.468 2443.46 345.167 2448.15 342.072 2452.98C338.844 2458.02 335.197 2463.31 334.047 2469.33C332.985 2474.88 334.527 2480.48 339.695 2483.12C340.726 2483.65 341.82 2483.98 342.918 2484.12C342.779 2485.82 342.882 2487.56 343.357 2489.36C345.11 2495.92 351.645 2500.64 358.221 2500.83C359.113 2503.96 361.362 2506.34 364.854 2507.36C369.129 2508.61 373.771 2507.3 377.588 2505.04C377.779 2506.04 378.093 2507.02 378.568 2507.96C380.951 2512.73 386.268 2514.77 391.266 2514.61C397.177 2514.42 402.185 2510.87 406.12 2506.6C408.157 2504.4 410.004 2502.03 411.85 2499.68C411.076 2502.86 411.004 2506.17 412.16 2509.27C414.31 2515.03 420.438 2517.94 426.07 2518.75C431.413 2519.53 436.818 2518.44 441.625 2515.98C443.467 2515.04 445.359 2513.83 447.113 2512.43C450.404 2510.77 453.4 2508.37 455.964 2505.77C461.652 2500 465.577 2492.81 468.533 2485.26C475.083 2468.54 477.192 2450.37 480.612 2432.82C481.257 2429.52 481.927 2426.18 482.665 2422.86C483.088 2423.16 483.763 2423.12 484.341 2422.53C491.675 2414.92 494.501 2402.62 495.378 2392.32C496.451 2379.69 494.574 2367.09 492.284 2354.71C489.86 2341.57 487.461 2328.48 485.94 2315.18C484.423 2301.91 483.588 2288.56 482.969 2275.21C482.629 2267.87 482.319 2260.53 482.015 2253.19C481.994 2252.65 481.963 2252.12 481.937 2251.58C483.407 2231.2 485.104 2211.35 487.033 2194.38C495.095 2123.49 523.312 2005.63 516.055 1944.63C508.798 1883.64 517.639 1727.86 525.329 1683.35C533.014 1638.84 570.071 1388.26 562.01 1316.55L571.005 1315.72L580 1316.55C571.938 1388.26 608.996 1638.84 616.681 1683.35C624.366 1727.86 633.206 1883.64 625.954 1944.63C618.698 2005.63 646.915 2123.49 654.977 2194.38C656.906 2211.35 658.602 2231.2 660.072 2251.58C660.047 2252.12 660.016 2252.65 659.995 2253.19C659.685 2260.53 659.381 2267.87 659.041 2275.21C658.422 2288.56 657.586 2301.91 656.07 2315.18C654.554 2328.48 652.155 2341.57 649.726 2354.71C647.441 2367.09 645.559 2379.69 646.631 2392.32C647.508 2402.62 650.335 2414.93 657.669 2422.53C658.247 2423.12 658.917 2423.16 659.345 2422.86C660.083 2426.18 660.753 2429.52 661.398 2432.82C664.817 2450.37 666.927 2468.54 673.477 2485.26C676.438 2492.81 680.357 2500 686.046 2505.77C688.61 2508.37 691.606 2510.78 694.897 2512.43C696.65 2513.83 698.538 2515.04 700.384 2515.98C705.191 2518.44 710.591 2519.53 715.94 2518.75C721.572 2517.94 727.694 2515.03 729.85 2509.27C731.005 2506.17 730.933 2502.86 730.16 2499.68C732.006 2502.03 733.853 2504.4 735.89 2506.6C739.825 2510.87 744.833 2514.42 750.744 2514.61C755.742 2514.77 761.059 2512.73 763.442 2507.96C763.911 2507.02 764.226 2506.04 764.422 2505.04C768.239 2507.3 772.88 2508.6 777.156 2507.36C780.648 2506.34 782.902 2503.96 783.789 2500.83C790.365 2500.64 796.905 2495.92 798.653 2489.36C799.133 2487.56 799.231 2485.82 799.092 2484.12C800.19 2483.97 801.284 2483.65 802.315 2483.12C807.483 2480.48 809.025 2474.88 807.963 2469.33C806.813 2463.31 803.166 2458.02 799.937 2452.98C796.843 2448.15 793.542 2443.46 790.122 2438.87C783.242 2429.63 775.877 2420.78 768.661 2411.82C761.513 2402.93 754.488 2393.92 748.268 2384.32C743.688 2377.25 739.222 2369.86 735.518 2362.17C735.023 2356.93 734.879 2351.65 734.967 2346.37C735.096 2338.84 735.508 2331.33 735.312 2323.79C735.111 2316.17 734.038 2308.74 732.444 2301.3C731.124 2295.14 729.665 2289.03 728.344 2282.88C728.344 2280.61 728.344 2278.81 728.344 2277.64C728.344 2264.45 755.757 2138.34 771.07 2023.77C786.388 1909.2 767.042 1825.13 767.042 1825.13C771.88 1792.98 767.135 1745.31 764.721 1723.88C762.302 1702.45 764.623 1671.4 772.684 1640.08C780.746 1608.76 797.678 1459.98 798.483 1333.87C799.288 1207.76 770.265 1105.55 765.428 1079.18C760.59 1052.8 755.752 985.215 753.333 940.704C750.914 896.193 767.847 824.483 779.132 765.139C781.411 753.147 782.995 741.467 784.078 730.436C795.523 774.683 826.427 905.532 825.086 943.177C823.472 988.51 860.56 1080.83 885.549 1133.58C910.538 1186.33 922.633 1247.33 922.633 1247.33C912.957 1265.46 914.974 1324.81 916.588 1345C918.202 1365.2 918.507 1382.78 920.859 1414.45C923.546 1450.61 927.476 1456.69 937.146 1454.63C946.822 1452.57 941.773 1403.09 941.18 1394.04C940.37 1381.68 941.18 1372.61 944.001 1377.56C946.822 1382.51 950.855 1450.92 954.884 1467.82C958.917 1484.71 971.409 1486.77 974.637 1473.58C977.861 1460.4 969.103 1395.4 968.593 1389.93C966.978 1372.61 969.397 1369.73 972.218 1376.74C975.04 1383.75 979.073 1480.59 996 1482.65C1012.93 1484.72 1004.87 1448.86 1002.45 1432.79C1000.03 1416.71 998.393 1391.63 998.012 1386.63C996.893 1371.86 994.711 1364.71 999.667 1369.32C1003.64 1373.02 1016.15 1434.43 1018.17 1447.21C1020.18 1459.98 1023.32 1476.57 1035.5 1473.17C1046.59 1470.08 1038.54 1440.21 1036.22 1418.37C1034.14 1398.68 1026.64 1333.88 1026.64 1333.88C1026.64 1333.88 1030.67 1336.35 1036.31 1346.24C1041.95 1356.14 1055.96 1372.72 1069.87 1379.52C1083.9 1386.39 1084.97 1371.79 1077.11 1361.9Z" fill="#D8DBC4" fill-opacity="0.01" shape-rendering="crispEdges"/>
<path d="M1077.11 1361.9C1070.4 1353.46 1056.86 1321.11 1050.81 1310.39C1044.77 1299.68 1022.19 1263.51 1004.86 1246.62C1000.58 1242.45 996.279 1239.47 992.22 1237.35C979.681 1207.94 964.451 1089.63 955.879 999.653C946.812 904.451 917.181 866.742 917.181 866.742C921.416 788.852 896.019 707.867 896.824 688.704C897.628 669.541 896.824 609.78 896.824 609.78C892.388 511.694 841.601 492.737 786.378 474.603C731.155 456.468 663.837 421.85 653.759 412.785C643.681 403.721 643.681 388.882 643.279 364.567C642.887 341.044 652.681 315.959 660.619 287.484C681.992 286.967 694.592 221.358 683.988 215.379C680.161 213.222 677.294 213.053 675.158 213.802C678.516 180.428 677.108 142.846 661.418 113.585C631.592 57.948 573.542 60.0098 573.542 60.0098H568.452C568.452 60.0098 510.408 57.948 480.576 113.585C464.886 142.846 463.478 180.428 466.836 213.802C464.701 213.058 461.828 213.222 458.006 215.379C447.407 221.358 460.007 286.967 481.375 287.484C489.313 315.964 499.107 341.044 498.715 364.567C498.313 388.882 498.313 403.721 488.235 412.785C478.157 421.85 410.839 456.473 355.616 474.603C300.393 492.737 249.601 511.694 245.17 609.78C245.17 609.78 244.366 669.541 245.17 688.704C245.975 707.867 220.579 788.852 224.813 866.742C224.813 866.742 195.188 904.451 186.115 999.653C177.543 1089.63 162.308 1207.94 149.775 1237.35C145.721 1239.47 141.419 1242.45 137.143 1246.62C119.809 1263.51 97.2388 1299.68 91.1888 1310.39C85.1441 1321.11 71.5949 1353.46 64.8848 1361.9C57.0245 1371.8 58.1025 1386.39 72.1416 1379.52C86.0467 1372.72 100.055 1356.14 105.697 1346.24C111.34 1336.35 115.373 1333.88 115.373 1333.88C115.373 1333.88 107.874 1398.68 105.785 1418.37C103.469 1440.21 95.4232 1470.08 106.507 1473.17C118.689 1476.57 121.825 1459.98 123.842 1447.21C125.859 1434.43 138.366 1373.02 142.342 1369.32C147.299 1364.7 145.117 1371.86 143.998 1386.63C143.621 1391.63 141.981 1416.71 139.562 1432.79C137.143 1448.86 129.082 1484.72 146.015 1482.65C162.947 1480.59 166.975 1383.75 169.797 1376.74C172.618 1369.73 175.037 1372.62 173.422 1389.93C172.912 1395.4 164.149 1460.4 167.378 1473.58C170.601 1486.77 183.098 1484.71 187.131 1467.82C191.165 1450.92 195.193 1382.51 198.014 1377.56C200.835 1372.61 201.64 1381.68 200.835 1394.04C200.242 1403.09 195.193 1452.57 204.869 1454.63C214.544 1456.69 218.474 1450.61 221.156 1414.45C223.508 1382.78 223.813 1365.19 225.427 1345C227.041 1324.81 229.053 1265.46 219.382 1247.33C219.382 1247.33 231.477 1186.33 256.466 1133.58C281.46 1080.83 318.543 988.51 316.929 943.177C315.588 905.532 346.492 774.683 357.937 730.436C359.02 741.467 360.604 753.153 362.883 765.139C374.168 824.483 391.101 896.193 388.682 940.704C386.263 985.215 381.425 1052.8 376.587 1079.18C371.749 1105.55 342.727 1207.76 343.532 1333.87C344.337 1459.98 361.269 1608.76 369.331 1640.08C377.392 1671.4 379.713 1702.45 377.299 1723.88C374.88 1745.31 370.14 1792.98 374.978 1825.13C374.978 1825.13 355.632 1909.2 370.945 2023.77C386.263 2138.34 413.671 2264.45 413.671 2277.64C413.671 2278.81 413.671 2280.61 413.671 2282.88C412.356 2289.03 410.891 2295.15 409.57 2301.3C407.972 2308.73 406.899 2316.17 406.698 2323.79C406.502 2331.33 406.914 2338.84 407.043 2346.37C407.131 2351.65 406.992 2356.93 406.491 2362.17C402.788 2369.86 398.322 2377.25 393.742 2384.32C387.527 2393.92 380.497 2402.93 373.348 2411.82C366.133 2420.79 358.768 2429.63 351.887 2438.87C348.468 2443.46 345.167 2448.15 342.072 2452.98C338.844 2458.02 335.197 2463.31 334.047 2469.33C332.985 2474.88 334.527 2480.48 339.695 2483.12C340.726 2483.65 341.82 2483.98 342.918 2484.12C342.779 2485.82 342.882 2487.56 343.357 2489.36C345.11 2495.92 351.645 2500.64 358.221 2500.83C359.113 2503.96 361.362 2506.34 364.854 2507.36C369.129 2508.61 373.771 2507.3 377.588 2505.04C377.779 2506.04 378.093 2507.02 378.568 2507.96C380.951 2512.73 386.268 2514.77 391.266 2514.61C397.177 2514.42 402.185 2510.87 406.12 2506.6C408.157 2504.4 410.004 2502.03 411.85 2499.68C411.076 2502.86 411.004 2506.17 412.16 2509.27C414.31 2515.03 420.438 2517.94 426.07 2518.75C431.413 2519.53 436.818 2518.44 441.625 2515.98C443.467 2515.04 445.359 2513.83 447.113 2512.43C450.404 2510.77 453.4 2508.37 455.964 2505.77C461.652 2500 465.577 2492.81 468.533 2485.26C475.083 2468.54 477.192 2450.37 480.612 2432.82C481.257 2429.52 481.927 2426.18 482.665 2422.86C483.088 2423.16 483.763 2423.12 484.341 2422.53C491.675 2414.92 494.501 2402.62 495.378 2392.32C496.451 2379.69 494.574 2367.09 492.284 2354.71C489.86 2341.57 487.461 2328.48 485.94 2315.18C484.423 2301.91 483.588 2288.56 482.969 2275.21C482.629 2267.87 482.319 2260.53 482.015 2253.19C481.994 2252.65 481.963 2252.12 481.937 2251.58C483.407 2231.2 485.104 2211.35 487.033 2194.38C495.095 2123.49 523.312 2005.63 516.055 1944.63C508.798 1883.64 517.639 1727.86 525.329 1683.35C533.014 1638.84 570.071 1388.26 562.01 1316.55L571.005 1315.72L580 1316.55C571.938 1388.26 608.996 1638.84 616.681 1683.35C624.366 1727.86 633.206 1883.64 625.954 1944.63C618.698 2005.63 646.915 2123.49 654.977 2194.38C656.906 2211.35 658.602 2231.2 660.072 2251.58C660.047 2252.12 660.016 2252.65 659.995 2253.19C659.685 2260.53 659.381 2267.87 659.041 2275.21C658.422 2288.56 657.586 2301.91 656.07 2315.18C654.554 2328.48 652.155 2341.57 649.726 2354.71C647.441 2367.09 645.559 2379.69 646.631 2392.32C647.508 2402.62 650.335 2414.93 657.669 2422.53C658.247 2423.12 658.917 2423.16 659.345 2422.86C660.083 2426.18 660.753 2429.52 661.398 2432.82C664.817 2450.37 666.927 2468.54 673.477 2485.26C676.438 2492.81 680.357 2500 686.046 2505.77C688.61 2508.37 691.606 2510.78 694.897 2512.43C696.65 2513.83 698.538 2515.04 700.384 2515.98C705.191 2518.44 710.591 2519.53 715.94 2518.75C721.572 2517.94 727.694 2515.03 729.85 2509.27C731.005 2506.17 730.933 2502.86 730.16 2499.68C732.006 2502.03 733.853 2504.4 735.89 2506.6C739.825 2510.87 744.833 2514.42 750.744 2514.61C755.742 2514.77 761.059 2512.73 763.442 2507.96C763.911 2507.02 764.226 2506.04 764.422 2505.04C768.239 2507.3 772.88 2508.6 777.156 2507.36C780.648 2506.34 782.902 2503.96 783.789 2500.83C790.365 2500.64 796.905 2495.92 798.653 2489.36C799.133 2487.56 799.231 2485.82 799.092 2484.12C800.19 2483.97 801.284 2483.65 802.315 2483.12C807.483 2480.48 809.025 2474.88 807.963 2469.33C806.813 2463.31 803.166 2458.02 799.937 2452.98C796.843 2448.15 793.542 2443.46 790.122 2438.87C783.242 2429.63 775.877 2420.78 768.661 2411.82C761.513 2402.93 754.488 2393.92 748.268 2384.32C743.688 2377.25 739.222 2369.86 735.518 2362.17C735.023 2356.93 734.879 2351.65 734.967 2346.37C735.096 2338.84 735.508 2331.33 735.312 2323.79C735.111 2316.17 734.038 2308.74 732.444 2301.3C731.124 2295.14 729.665 2289.03 728.344 2282.88C728.344 2280.61 728.344 2278.81 728.344 2277.64C728.344 2264.45 755.757 2138.34 771.07 2023.77C786.388 1909.2 767.042 1825.13 767.042 1825.13C771.88 1792.98 767.135 1745.31 764.721 1723.88C762.302 1702.45 764.623 1671.4 772.684 1640.08C780.746 1608.76 797.678 1459.98 798.483 1333.87C799.288 1207.76 770.265 1105.55 765.428 1079.18C760.59 1052.8 755.752 985.215 753.333 940.704C750.914 896.193 767.847 824.483 779.132 765.139C781.411 753.147 782.995 741.467 784.078 730.436C795.523 774.683 826.427 905.532 825.086 943.177C823.472 988.51 860.56 1080.83 885.549 1133.58C910.538 1186.33 922.633 1247.33 922.633 1247.33C912.957 1265.46 914.974 1324.81 916.588 1345C918.202 1365.2 918.507 1382.78 920.859 1414.45C923.546 1450.61 927.476 1456.69 937.146 1454.63C946.822 1452.57 941.773 1403.09 941.18 1394.04C940.37 1381.68 941.18 1372.61 944.001 1377.56C946.822 1382.51 950.855 1450.92 954.884 1467.82C958.917 1484.71 971.409 1486.77 974.637 1473.58C977.861 1460.4 969.103 1395.4 968.593 1389.93C966.978 1372.61 969.397 1369.73 972.218 1376.74C975.04 1383.75 979.073 1480.59 996 1482.65C1012.93 1484.72 1004.87 1448.86 1002.45 1432.79C1000.03 1416.71 998.393 1391.63 998.012 1386.63C996.893 1371.86 994.711 1364.71 999.667 1369.32C1003.64 1373.02 1016.15 1434.43 1018.17 1447.21C1020.18 1459.98 1023.32 1476.57 1035.5 1473.17C1046.59 1470.08 1038.54 1440.21 1036.22 1418.37C1034.14 1398.68 1026.64 1333.88 1026.64 1333.88C1026.64 1333.88 1030.67 1336.35 1036.31 1346.24C1041.95 1356.14 1055.96 1372.72 1069.87 1379.52C1083.9 1386.39 1084.97 1371.79 1077.11 1361.9Z" stroke="black" stroke-width="4" shape-rendering="crispEdges" mask="url(#path-1-inside-1_63_8401)"/>
</g>
<defs>
<filter id="filter0_d_63_8401" x="0" y="0" width="1142" height="2579" filterUnits="userSpaceOnUse" color-interpolation-filters="sRGB">
<feFlood flood-opacity="0" result="BackgroundImageFix"/>
<feColorMatrix in="SourceAlpha" type="matrix" values="0 0 0 0 0 0 0 0 0 0 0 0 0 0 0 0 0 0 127 0" result="hardAlpha"/>
<feOffset/>
<feGaussianBlur stdDeviation="30"/>
<feComposite in2="hardAlpha" operator="out"/>
<feColorMatrix type="matrix" values="0 0 0 0 0.00392157 0 0 0 0 0.996078 0 0 0 0 0.282353 0 0 0 0.6 0"/>
<feBlend mode="normal" in2="BackgroundImageFix" result="effect1_dropShadow_63_8401"/>
<feBlend mode="normal" in="SourceGraphic" in2="effect1_dropShadow_63_8401" result="shape"/>
</filter>
</defs>
</svg>
