<svg width="1440" height="1000" viewBox="0 0 1440 1000" fill="none" xmlns="http://www.w3.org/2000/svg">
<g filter="url(#filter0_d_63_9287)">
<mask id="path-1-inside-1_63_9287" fill="white">
<path d="M1226.11 1371.9C1219.4 1363.46 1205.86 1331.11 1199.81 1320.39C1193.77 1309.68 1171.19 1273.51 1153.86 1256.62C1149.58 1252.45 1145.28 1249.47 1141.22 1247.35C1128.68 1217.94 1113.45 1099.63 1104.88 1009.65C1095.81 914.451 1066.18 876.742 1066.18 876.742C1070.42 798.852 1045.02 717.867 1045.82 698.704C1046.63 679.541 1045.82 619.78 1045.82 619.78C1041.39 521.694 990.601 502.737 935.378 484.603C880.155 466.468 812.837 431.85 802.759 422.785C792.681 413.721 792.681 398.882 792.279 374.567C791.887 351.044 801.681 325.959 809.619 297.484C830.992 296.967 843.592 231.358 832.988 225.379C829.161 223.222 826.294 223.053 824.158 223.802C827.516 190.428 826.108 152.846 810.418 123.585C780.592 67.948 722.542 70.0098 722.542 70.0098H717.452C717.452 70.0098 659.408 67.948 629.576 123.585C613.886 152.846 612.478 190.428 615.836 223.802C613.701 223.058 610.828 223.222 607.006 225.379C596.407 231.358 609.007 296.967 630.375 297.484C638.313 325.964 648.107 351.044 647.715 374.567C647.313 398.882 647.313 413.721 637.235 422.785C627.157 431.85 559.839 466.473 504.616 484.603C449.393 502.737 398.601 521.694 394.17 619.78C394.17 619.78 393.366 679.541 394.17 698.704C394.975 717.867 369.579 798.852 373.813 876.742C373.813 876.742 344.188 914.451 335.115 1009.65C326.543 1099.63 311.308 1217.94 298.775 1247.35C294.721 1249.47 290.419 1252.45 286.143 1256.62C268.809 1273.51 246.239 1309.68 240.189 1320.39C234.144 1331.11 220.595 1363.46 213.885 1371.9C206.025 1381.8 207.103 1396.39 221.142 1389.52C235.047 1382.72 249.055 1366.14 254.697 1356.24C260.34 1346.35 264.373 1343.88 264.373 1343.88C264.373 1343.88 256.874 1408.68 254.785 1428.37C252.469 1450.21 244.423 1480.08 255.507 1483.17C267.689 1486.57 270.825 1469.98 272.842 1457.21C274.859 1444.43 287.366 1383.02 291.342 1379.32C296.299 1374.7 294.117 1381.86 292.998 1396.63C292.621 1401.63 290.981 1426.71 288.562 1442.79C286.143 1458.86 278.082 1494.72 295.015 1492.65C311.947 1490.59 315.975 1393.75 318.797 1386.74C321.618 1379.73 324.037 1382.62 322.422 1399.93C321.912 1405.4 313.149 1470.4 316.378 1483.58C319.601 1496.77 332.098 1494.71 336.131 1477.82C340.165 1460.92 344.193 1392.51 347.014 1387.56C349.835 1382.61 350.64 1391.68 349.835 1404.04C349.242 1413.09 344.193 1462.57 353.869 1464.63C363.544 1466.69 367.474 1460.61 370.156 1424.45C372.508 1392.78 372.813 1375.19 374.427 1355C376.041 1334.81 378.053 1275.46 368.382 1257.33C368.382 1257.33 380.477 1196.33 405.466 1143.58C430.46 1090.83 467.543 998.51 465.929 953.177C464.588 915.532 495.492 784.683 506.937 740.436C508.02 751.467 509.604 763.153 511.883 775.139C523.168 834.483 540.101 906.193 537.682 950.704C535.263 995.215 530.425 1062.8 525.587 1089.18C520.749 1115.55 491.727 1217.76 492.532 1343.87C493.337 1469.98 510.269 1618.76 518.331 1650.08C526.392 1681.4 528.713 1712.45 526.299 1733.88C523.88 1755.31 519.14 1802.98 523.978 1835.13C523.978 1835.13 504.632 1919.2 519.945 2033.77C535.263 2148.34 562.671 2274.45 562.671 2287.64C562.671 2288.81 562.671 2290.61 562.671 2292.88C561.356 2299.03 559.891 2305.15 558.57 2311.3C556.972 2318.73 555.899 2326.17 555.698 2333.79C555.502 2341.33 555.914 2348.84 556.043 2356.37C556.131 2361.65 555.992 2366.93 555.491 2372.17C551.788 2379.86 547.322 2387.25 542.742 2394.32C536.527 2403.92 529.497 2412.93 522.348 2421.82C515.133 2430.79 507.768 2439.63 500.887 2448.87C497.468 2453.46 494.167 2458.15 491.072 2462.98C487.844 2468.02 484.197 2473.31 483.047 2479.33C481.985 2484.88 483.527 2490.48 488.695 2493.12C489.726 2493.65 490.82 2493.98 491.918 2494.12C491.779 2495.82 491.882 2497.56 492.357 2499.36C494.11 2505.92 500.645 2510.64 507.221 2510.83C508.113 2513.96 510.362 2516.34 513.854 2517.36C518.129 2518.61 522.771 2517.3 526.588 2515.04C526.779 2516.04 527.093 2517.02 527.568 2517.96C529.951 2522.73 535.268 2524.77 540.266 2524.61C546.177 2524.42 551.185 2520.87 555.12 2516.6C557.157 2514.4 559.004 2512.03 560.85 2509.68C560.076 2512.86 560.004 2516.17 561.16 2519.27C563.31 2525.03 569.438 2527.94 575.07 2528.75C580.413 2529.53 585.818 2528.44 590.625 2525.98C592.467 2525.04 594.359 2523.83 596.113 2522.43C599.404 2520.77 602.4 2518.37 604.964 2515.77C610.652 2510 614.577 2502.81 617.533 2495.26C624.083 2478.54 626.192 2460.37 629.612 2442.82C630.257 2439.52 630.927 2436.18 631.665 2432.86C632.088 2433.16 632.763 2433.12 633.341 2432.53C640.675 2424.92 643.501 2412.62 644.378 2402.32C645.451 2389.69 643.574 2377.09 641.284 2364.71C638.86 2351.57 636.461 2338.48 634.94 2325.18C633.423 2311.91 632.588 2298.56 631.969 2285.21C631.629 2277.87 631.319 2270.53 631.015 2263.19C630.994 2262.65 630.963 2262.12 630.937 2261.58C632.407 2241.2 634.104 2221.35 636.033 2204.38C644.095 2133.49 672.312 2015.63 665.055 1954.63C657.798 1893.64 666.639 1737.86 674.329 1693.35C682.014 1648.84 719.071 1398.26 711.01 1326.55L720.005 1325.72L729 1326.55C720.938 1398.26 757.996 1648.84 765.681 1693.35C773.366 1737.86 782.206 1893.64 774.954 1954.63C767.698 2015.63 795.915 2133.49 803.977 2204.38C805.906 2221.35 807.602 2241.2 809.072 2261.58C809.047 2262.12 809.016 2262.65 808.995 2263.19C808.685 2270.53 808.381 2277.87 808.041 2285.21C807.422 2298.56 806.586 2311.91 805.07 2325.18C803.554 2338.48 801.155 2351.57 798.726 2364.71C796.441 2377.09 794.559 2389.69 795.631 2402.32C796.508 2412.62 799.335 2424.93 806.669 2432.53C807.247 2433.12 807.917 2433.16 808.345 2432.86C809.083 2436.18 809.753 2439.52 810.398 2442.82C813.817 2460.37 815.927 2478.54 822.477 2495.26C825.438 2502.81 829.357 2510 835.046 2515.77C837.61 2518.37 840.606 2520.78 843.897 2522.43C845.65 2523.83 847.538 2525.04 849.384 2525.98C854.191 2528.44 859.591 2529.53 864.94 2528.75C870.572 2527.94 876.694 2525.03 878.85 2519.27C880.005 2516.17 879.933 2512.86 879.16 2509.68C881.006 2512.03 882.853 2514.4 884.89 2516.6C888.825 2520.87 893.833 2524.42 899.744 2524.61C904.742 2524.77 910.059 2522.73 912.442 2517.96C912.911 2517.02 913.226 2516.04 913.422 2515.04C917.239 2517.3 921.88 2518.6 926.156 2517.36C929.648 2516.34 931.902 2513.96 932.789 2510.83C939.365 2510.64 945.905 2505.92 947.653 2499.36C948.133 2497.56 948.231 2495.82 948.092 2494.12C949.19 2493.97 950.284 2493.65 951.315 2493.12C956.483 2490.48 958.025 2484.88 956.963 2479.33C955.813 2473.31 952.166 2468.02 948.937 2462.98C945.843 2458.15 942.542 2453.46 939.122 2448.87C932.242 2439.63 924.877 2430.78 917.661 2421.82C910.513 2412.93 903.488 2403.92 897.268 2394.32C892.688 2387.25 888.222 2379.86 884.518 2372.17C884.023 2366.93 883.879 2361.65 883.967 2356.37C884.096 2348.84 884.508 2341.33 884.312 2333.79C884.111 2326.17 883.038 2318.74 881.444 2311.3C880.124 2305.14 878.665 2299.03 877.344 2292.88C877.344 2290.61 877.344 2288.81 877.344 2287.64C877.344 2274.45 904.757 2148.34 920.07 2033.77C935.388 1919.2 916.042 1835.13 916.042 1835.13C920.88 1802.98 916.135 1755.31 913.721 1733.88C911.302 1712.45 913.623 1681.4 921.684 1650.08C929.746 1618.76 946.678 1469.98 947.483 1343.87C948.288 1217.76 919.265 1115.55 914.428 1089.18C909.59 1062.8 904.752 995.215 902.333 950.704C899.914 906.193 916.847 834.483 928.132 775.139C930.411 763.147 931.995 751.467 933.078 740.436C944.523 784.683 975.427 915.532 974.086 953.177C972.472 998.51 1009.56 1090.83 1034.55 1143.58C1059.54 1196.33 1071.63 1257.33 1071.63 1257.33C1061.96 1275.46 1063.97 1334.81 1065.59 1355C1067.2 1375.2 1067.51 1392.78 1069.86 1424.45C1072.55 1460.61 1076.48 1466.69 1086.15 1464.63C1095.82 1462.57 1090.77 1413.09 1090.18 1404.04C1089.37 1391.68 1090.18 1382.61 1093 1387.56C1095.82 1392.51 1099.86 1460.92 1103.88 1477.82C1107.92 1494.71 1120.41 1496.77 1123.64 1483.58C1126.86 1470.4 1118.1 1405.4 1117.59 1399.93C1115.98 1382.61 1118.4 1379.73 1121.22 1386.74C1124.04 1393.75 1128.07 1490.59 1145 1492.65C1161.93 1494.72 1153.87 1458.86 1151.45 1442.79C1149.03 1426.71 1147.39 1401.63 1147.01 1396.63C1145.89 1381.86 1143.71 1374.71 1148.67 1379.32C1152.64 1383.02 1165.15 1444.43 1167.17 1457.21C1169.18 1469.98 1172.32 1486.57 1184.5 1483.17C1195.59 1480.08 1187.54 1450.21 1185.22 1428.37C1183.14 1408.68 1175.64 1343.88 1175.64 1343.88C1175.64 1343.88 1179.67 1346.35 1185.31 1356.24C1190.95 1366.14 1204.96 1382.72 1218.87 1389.52C1232.9 1396.39 1233.97 1381.79 1226.11 1371.9Z"/>
</mask>
<path d="M1226.11 1371.9C1219.4 1363.46 1205.86 1331.11 1199.81 1320.39C1193.77 1309.68 1171.19 1273.51 1153.86 1256.62C1149.58 1252.45 1145.28 1249.47 1141.22 1247.35C1128.68 1217.94 1113.45 1099.63 1104.88 1009.65C1095.81 914.451 1066.18 876.742 1066.18 876.742C1070.42 798.852 1045.02 717.867 1045.82 698.704C1046.63 679.541 1045.82 619.78 1045.82 619.78C1041.39 521.694 990.601 502.737 935.378 484.603C880.155 466.468 812.837 431.85 802.759 422.785C792.681 413.721 792.681 398.882 792.279 374.567C791.887 351.044 801.681 325.959 809.619 297.484C830.992 296.967 843.592 231.358 832.988 225.379C829.161 223.222 826.294 223.053 824.158 223.802C827.516 190.428 826.108 152.846 810.418 123.585C780.592 67.948 722.542 70.0098 722.542 70.0098H717.452C717.452 70.0098 659.408 67.948 629.576 123.585C613.886 152.846 612.478 190.428 615.836 223.802C613.701 223.058 610.828 223.222 607.006 225.379C596.407 231.358 609.007 296.967 630.375 297.484C638.313 325.964 648.107 351.044 647.715 374.567C647.313 398.882 647.313 413.721 637.235 422.785C627.157 431.85 559.839 466.473 504.616 484.603C449.393 502.737 398.601 521.694 394.17 619.78C394.17 619.78 393.366 679.541 394.17 698.704C394.975 717.867 369.579 798.852 373.813 876.742C373.813 876.742 344.188 914.451 335.115 1009.65C326.543 1099.63 311.308 1217.94 298.775 1247.35C294.721 1249.47 290.419 1252.45 286.143 1256.62C268.809 1273.51 246.239 1309.68 240.189 1320.39C234.144 1331.11 220.595 1363.46 213.885 1371.9C206.025 1381.8 207.103 1396.39 221.142 1389.52C235.047 1382.72 249.055 1366.14 254.697 1356.24C260.34 1346.35 264.373 1343.88 264.373 1343.88C264.373 1343.88 256.874 1408.68 254.785 1428.37C252.469 1450.21 244.423 1480.08 255.507 1483.17C267.689 1486.57 270.825 1469.98 272.842 1457.21C274.859 1444.43 287.366 1383.02 291.342 1379.32C296.299 1374.7 294.117 1381.86 292.998 1396.63C292.621 1401.63 290.981 1426.71 288.562 1442.79C286.143 1458.86 278.082 1494.72 295.015 1492.65C311.947 1490.59 315.975 1393.75 318.797 1386.74C321.618 1379.73 324.037 1382.62 322.422 1399.93C321.912 1405.4 313.149 1470.4 316.378 1483.58C319.601 1496.77 332.098 1494.71 336.131 1477.82C340.165 1460.92 344.193 1392.51 347.014 1387.56C349.835 1382.61 350.64 1391.68 349.835 1404.04C349.242 1413.09 344.193 1462.57 353.869 1464.63C363.544 1466.69 367.474 1460.61 370.156 1424.45C372.508 1392.78 372.813 1375.19 374.427 1355C376.041 1334.81 378.053 1275.46 368.382 1257.33C368.382 1257.33 380.477 1196.33 405.466 1143.58C430.46 1090.83 467.543 998.51 465.929 953.177C464.588 915.532 495.492 784.683 506.937 740.436C508.02 751.467 509.604 763.153 511.883 775.139C523.168 834.483 540.101 906.193 537.682 950.704C535.263 995.215 530.425 1062.8 525.587 1089.18C520.749 1115.55 491.727 1217.76 492.532 1343.87C493.337 1469.98 510.269 1618.76 518.331 1650.08C526.392 1681.4 528.713 1712.45 526.299 1733.88C523.88 1755.31 519.14 1802.98 523.978 1835.13C523.978 1835.13 504.632 1919.2 519.945 2033.77C535.263 2148.34 562.671 2274.45 562.671 2287.64C562.671 2288.81 562.671 2290.61 562.671 2292.88C561.356 2299.03 559.891 2305.15 558.57 2311.3C556.972 2318.73 555.899 2326.17 555.698 2333.79C555.502 2341.33 555.914 2348.84 556.043 2356.37C556.131 2361.65 555.992 2366.93 555.491 2372.17C551.788 2379.86 547.322 2387.25 542.742 2394.32C536.527 2403.92 529.497 2412.93 522.348 2421.82C515.133 2430.79 507.768 2439.63 500.887 2448.87C497.468 2453.46 494.167 2458.15 491.072 2462.98C487.844 2468.02 484.197 2473.31 483.047 2479.33C481.985 2484.88 483.527 2490.48 488.695 2493.12C489.726 2493.65 490.82 2493.98 491.918 2494.12C491.779 2495.82 491.882 2497.56 492.357 2499.36C494.11 2505.92 500.645 2510.64 507.221 2510.83C508.113 2513.96 510.362 2516.34 513.854 2517.36C518.129 2518.61 522.771 2517.3 526.588 2515.04C526.779 2516.04 527.093 2517.02 527.568 2517.96C529.951 2522.73 535.268 2524.77 540.266 2524.61C546.177 2524.42 551.185 2520.87 555.12 2516.6C557.157 2514.4 559.004 2512.03 560.85 2509.68C560.076 2512.86 560.004 2516.17 561.16 2519.27C563.31 2525.03 569.438 2527.94 575.07 2528.75C580.413 2529.53 585.818 2528.44 590.625 2525.98C592.467 2525.04 594.359 2523.83 596.113 2522.43C599.404 2520.77 602.4 2518.37 604.964 2515.77C610.652 2510 614.577 2502.81 617.533 2495.26C624.083 2478.54 626.192 2460.37 629.612 2442.82C630.257 2439.52 630.927 2436.18 631.665 2432.86C632.088 2433.16 632.763 2433.12 633.341 2432.53C640.675 2424.92 643.501 2412.62 644.378 2402.32C645.451 2389.69 643.574 2377.09 641.284 2364.71C638.86 2351.57 636.461 2338.48 634.94 2325.18C633.423 2311.91 632.588 2298.56 631.969 2285.21C631.629 2277.87 631.319 2270.53 631.015 2263.19C630.994 2262.65 630.963 2262.12 630.937 2261.58C632.407 2241.2 634.104 2221.35 636.033 2204.38C644.095 2133.49 672.312 2015.63 665.055 1954.63C657.798 1893.64 666.639 1737.86 674.329 1693.35C682.014 1648.84 719.071 1398.26 711.01 1326.55L720.005 1325.72L729 1326.55C720.938 1398.26 757.996 1648.84 765.681 1693.35C773.366 1737.86 782.206 1893.64 774.954 1954.63C767.698 2015.63 795.915 2133.49 803.977 2204.38C805.906 2221.35 807.602 2241.2 809.072 2261.58C809.047 2262.12 809.016 2262.65 808.995 2263.19C808.685 2270.53 808.381 2277.87 808.041 2285.21C807.422 2298.56 806.586 2311.91 805.07 2325.18C803.554 2338.48 801.155 2351.57 798.726 2364.71C796.441 2377.09 794.559 2389.69 795.631 2402.32C796.508 2412.62 799.335 2424.93 806.669 2432.53C807.247 2433.12 807.917 2433.16 808.345 2432.86C809.083 2436.18 809.753 2439.52 810.398 2442.82C813.817 2460.37 815.927 2478.54 822.477 2495.26C825.438 2502.81 829.357 2510 835.046 2515.77C837.61 2518.37 840.606 2520.78 843.897 2522.43C845.65 2523.83 847.538 2525.04 849.384 2525.98C854.191 2528.44 859.591 2529.53 864.94 2528.75C870.572 2527.94 876.694 2525.03 878.85 2519.27C880.005 2516.17 879.933 2512.86 879.16 2509.68C881.006 2512.03 882.853 2514.4 884.89 2516.6C888.825 2520.87 893.833 2524.42 899.744 2524.61C904.742 2524.77 910.059 2522.73 912.442 2517.96C912.911 2517.02 913.226 2516.04 913.422 2515.04C917.239 2517.3 921.88 2518.6 926.156 2517.36C929.648 2516.34 931.902 2513.96 932.789 2510.83C939.365 2510.64 945.905 2505.92 947.653 2499.36C948.133 2497.56 948.231 2495.82 948.092 2494.12C949.19 2493.97 950.284 2493.65 951.315 2493.12C956.483 2490.48 958.025 2484.88 956.963 2479.33C955.813 2473.31 952.166 2468.02 948.937 2462.98C945.843 2458.15 942.542 2453.46 939.122 2448.87C932.242 2439.63 924.877 2430.78 917.661 2421.82C910.513 2412.93 903.488 2403.92 897.268 2394.32C892.688 2387.25 888.222 2379.86 884.518 2372.17C884.023 2366.93 883.879 2361.65 883.967 2356.37C884.096 2348.84 884.508 2341.33 884.312 2333.79C884.111 2326.17 883.038 2318.74 881.444 2311.3C880.124 2305.14 878.665 2299.03 877.344 2292.88C877.344 2290.61 877.344 2288.81 877.344 2287.64C877.344 2274.45 904.757 2148.34 920.07 2033.77C935.388 1919.2 916.042 1835.13 916.042 1835.13C920.88 1802.98 916.135 1755.31 913.721 1733.88C911.302 1712.45 913.623 1681.4 921.684 1650.08C929.746 1618.76 946.678 1469.98 947.483 1343.87C948.288 1217.76 919.265 1115.55 914.428 1089.18C909.59 1062.8 904.752 995.215 902.333 950.704C899.914 906.193 916.847 834.483 928.132 775.139C930.411 763.147 931.995 751.467 933.078 740.436C944.523 784.683 975.427 915.532 974.086 953.177C972.472 998.51 1009.56 1090.83 1034.55 1143.58C1059.54 1196.33 1071.63 1257.33 1071.63 1257.33C1061.96 1275.46 1063.97 1334.81 1065.59 1355C1067.2 1375.2 1067.51 1392.78 1069.86 1424.45C1072.55 1460.61 1076.48 1466.69 1086.15 1464.63C1095.82 1462.57 1090.77 1413.09 1090.18 1404.04C1089.37 1391.68 1090.18 1382.61 1093 1387.56C1095.82 1392.51 1099.86 1460.92 1103.88 1477.82C1107.92 1494.71 1120.41 1496.77 1123.64 1483.58C1126.86 1470.4 1118.1 1405.4 1117.59 1399.93C1115.98 1382.61 1118.4 1379.73 1121.22 1386.74C1124.04 1393.75 1128.07 1490.59 1145 1492.65C1161.93 1494.72 1153.87 1458.86 1151.45 1442.79C1149.03 1426.71 1147.39 1401.63 1147.01 1396.63C1145.89 1381.86 1143.71 1374.71 1148.67 1379.32C1152.64 1383.02 1165.15 1444.43 1167.17 1457.21C1169.18 1469.98 1172.32 1486.57 1184.5 1483.17C1195.59 1480.08 1187.54 1450.21 1185.22 1428.37C1183.14 1408.68 1175.64 1343.88 1175.64 1343.88C1175.64 1343.88 1179.67 1346.35 1185.31 1356.24C1190.95 1366.14 1204.96 1382.72 1218.87 1389.52C1232.9 1396.39 1233.97 1381.79 1226.11 1371.9Z" fill="#D8DACB"/>
<path d="M1226.11 1371.9C1219.4 1363.46 1205.86 1331.11 1199.81 1320.39C1193.77 1309.68 1171.19 1273.51 1153.86 1256.62C1149.58 1252.45 1145.28 1249.47 1141.22 1247.35C1128.68 1217.94 1113.45 1099.63 1104.88 1009.65C1095.81 914.451 1066.18 876.742 1066.18 876.742C1070.42 798.852 1045.02 717.867 1045.82 698.704C1046.63 679.541 1045.82 619.78 1045.82 619.78C1041.39 521.694 990.601 502.737 935.378 484.603C880.155 466.468 812.837 431.85 802.759 422.785C792.681 413.721 792.681 398.882 792.279 374.567C791.887 351.044 801.681 325.959 809.619 297.484C830.992 296.967 843.592 231.358 832.988 225.379C829.161 223.222 826.294 223.053 824.158 223.802C827.516 190.428 826.108 152.846 810.418 123.585C780.592 67.948 722.542 70.0098 722.542 70.0098H717.452C717.452 70.0098 659.408 67.948 629.576 123.585C613.886 152.846 612.478 190.428 615.836 223.802C613.701 223.058 610.828 223.222 607.006 225.379C596.407 231.358 609.007 296.967 630.375 297.484C638.313 325.964 648.107 351.044 647.715 374.567C647.313 398.882 647.313 413.721 637.235 422.785C627.157 431.85 559.839 466.473 504.616 484.603C449.393 502.737 398.601 521.694 394.17 619.78C394.17 619.78 393.366 679.541 394.17 698.704C394.975 717.867 369.579 798.852 373.813 876.742C373.813 876.742 344.188 914.451 335.115 1009.65C326.543 1099.63 311.308 1217.94 298.775 1247.35C294.721 1249.47 290.419 1252.45 286.143 1256.62C268.809 1273.51 246.239 1309.68 240.189 1320.39C234.144 1331.11 220.595 1363.46 213.885 1371.9C206.025 1381.8 207.103 1396.39 221.142 1389.52C235.047 1382.72 249.055 1366.14 254.697 1356.24C260.34 1346.35 264.373 1343.88 264.373 1343.88C264.373 1343.88 256.874 1408.68 254.785 1428.37C252.469 1450.21 244.423 1480.08 255.507 1483.17C267.689 1486.57 270.825 1469.98 272.842 1457.21C274.859 1444.43 287.366 1383.02 291.342 1379.32C296.299 1374.7 294.117 1381.86 292.998 1396.63C292.621 1401.63 290.981 1426.71 288.562 1442.79C286.143 1458.86 278.082 1494.72 295.015 1492.65C311.947 1490.59 315.975 1393.75 318.797 1386.74C321.618 1379.73 324.037 1382.62 322.422 1399.93C321.912 1405.4 313.149 1470.4 316.378 1483.58C319.601 1496.77 332.098 1494.71 336.131 1477.82C340.165 1460.92 344.193 1392.51 347.014 1387.56C349.835 1382.61 350.64 1391.68 349.835 1404.04C349.242 1413.09 344.193 1462.57 353.869 1464.63C363.544 1466.69 367.474 1460.61 370.156 1424.45C372.508 1392.78 372.813 1375.19 374.427 1355C376.041 1334.81 378.053 1275.46 368.382 1257.33C368.382 1257.33 380.477 1196.33 405.466 1143.58C430.46 1090.83 467.543 998.51 465.929 953.177C464.588 915.532 495.492 784.683 506.937 740.436C508.02 751.467 509.604 763.153 511.883 775.139C523.168 834.483 540.101 906.193 537.682 950.704C535.263 995.215 530.425 1062.8 525.587 1089.18C520.749 1115.55 491.727 1217.76 492.532 1343.87C493.337 1469.98 510.269 1618.76 518.331 1650.08C526.392 1681.4 528.713 1712.45 526.299 1733.88C523.88 1755.31 519.14 1802.98 523.978 1835.13C523.978 1835.13 504.632 1919.2 519.945 2033.77C535.263 2148.34 562.671 2274.45 562.671 2287.64C562.671 2288.81 562.671 2290.61 562.671 2292.88C561.356 2299.03 559.891 2305.15 558.57 2311.3C556.972 2318.73 555.899 2326.17 555.698 2333.79C555.502 2341.33 555.914 2348.84 556.043 2356.37C556.131 2361.65 555.992 2366.93 555.491 2372.17C551.788 2379.86 547.322 2387.25 542.742 2394.32C536.527 2403.92 529.497 2412.93 522.348 2421.82C515.133 2430.79 507.768 2439.63 500.887 2448.87C497.468 2453.46 494.167 2458.15 491.072 2462.98C487.844 2468.02 484.197 2473.31 483.047 2479.33C481.985 2484.88 483.527 2490.48 488.695 2493.12C489.726 2493.65 490.82 2493.98 491.918 2494.12C491.779 2495.82 491.882 2497.56 492.357 2499.36C494.11 2505.92 500.645 2510.64 507.221 2510.83C508.113 2513.96 510.362 2516.34 513.854 2517.36C518.129 2518.61 522.771 2517.3 526.588 2515.04C526.779 2516.04 527.093 2517.02 527.568 2517.96C529.951 2522.73 535.268 2524.77 540.266 2524.61C546.177 2524.42 551.185 2520.87 555.12 2516.6C557.157 2514.4 559.004 2512.03 560.85 2509.68C560.076 2512.86 560.004 2516.17 561.16 2519.27C563.31 2525.03 569.438 2527.94 575.07 2528.75C580.413 2529.53 585.818 2528.44 590.625 2525.98C592.467 2525.04 594.359 2523.83 596.113 2522.43C599.404 2520.77 602.4 2518.37 604.964 2515.77C610.652 2510 614.577 2502.81 617.533 2495.26C624.083 2478.54 626.192 2460.37 629.612 2442.82C630.257 2439.52 630.927 2436.18 631.665 2432.86C632.088 2433.16 632.763 2433.12 633.341 2432.53C640.675 2424.92 643.501 2412.62 644.378 2402.32C645.451 2389.69 643.574 2377.09 641.284 2364.71C638.86 2351.57 636.461 2338.48 634.94 2325.18C633.423 2311.91 632.588 2298.56 631.969 2285.21C631.629 2277.87 631.319 2270.53 631.015 2263.19C630.994 2262.65 630.963 2262.12 630.937 2261.58C632.407 2241.2 634.104 2221.35 636.033 2204.38C644.095 2133.49 672.312 2015.63 665.055 1954.63C657.798 1893.64 666.639 1737.86 674.329 1693.35C682.014 1648.84 719.071 1398.26 711.01 1326.55L720.005 1325.72L729 1326.55C720.938 1398.26 757.996 1648.84 765.681 1693.35C773.366 1737.86 782.206 1893.64 774.954 1954.63C767.698 2015.63 795.915 2133.49 803.977 2204.38C805.906 2221.35 807.602 2241.2 809.072 2261.58C809.047 2262.12 809.016 2262.65 808.995 2263.19C808.685 2270.53 808.381 2277.87 808.041 2285.21C807.422 2298.56 806.586 2311.91 805.07 2325.18C803.554 2338.48 801.155 2351.57 798.726 2364.71C796.441 2377.09 794.559 2389.69 795.631 2402.32C796.508 2412.62 799.335 2424.93 806.669 2432.53C807.247 2433.12 807.917 2433.16 808.345 2432.86C809.083 2436.18 809.753 2439.52 810.398 2442.82C813.817 2460.37 815.927 2478.54 822.477 2495.26C825.438 2502.81 829.357 2510 835.046 2515.77C837.61 2518.37 840.606 2520.78 843.897 2522.43C845.65 2523.83 847.538 2525.04 849.384 2525.98C854.191 2528.44 859.591 2529.53 864.94 2528.75C870.572 2527.94 876.694 2525.03 878.85 2519.27C880.005 2516.17 879.933 2512.86 879.16 2509.68C881.006 2512.03 882.853 2514.4 884.89 2516.6C888.825 2520.87 893.833 2524.42 899.744 2524.61C904.742 2524.77 910.059 2522.73 912.442 2517.96C912.911 2517.02 913.226 2516.04 913.422 2515.04C917.239 2517.3 921.88 2518.6 926.156 2517.36C929.648 2516.34 931.902 2513.96 932.789 2510.83C939.365 2510.64 945.905 2505.92 947.653 2499.36C948.133 2497.56 948.231 2495.82 948.092 2494.12C949.19 2493.97 950.284 2493.65 951.315 2493.12C956.483 2490.48 958.025 2484.88 956.963 2479.33C955.813 2473.31 952.166 2468.02 948.937 2462.98C945.843 2458.15 942.542 2453.46 939.122 2448.87C932.242 2439.63 924.877 2430.78 917.661 2421.82C910.513 2412.93 903.488 2403.92 897.268 2394.32C892.688 2387.25 888.222 2379.86 884.518 2372.17C884.023 2366.93 883.879 2361.65 883.967 2356.37C884.096 2348.84 884.508 2341.33 884.312 2333.79C884.111 2326.17 883.038 2318.74 881.444 2311.3C880.124 2305.14 878.665 2299.03 877.344 2292.88C877.344 2290.61 877.344 2288.81 877.344 2287.64C877.344 2274.45 904.757 2148.34 920.07 2033.77C935.388 1919.2 916.042 1835.13 916.042 1835.13C920.88 1802.98 916.135 1755.31 913.721 1733.88C911.302 1712.45 913.623 1681.4 921.684 1650.08C929.746 1618.76 946.678 1469.98 947.483 1343.87C948.288 1217.76 919.265 1115.55 914.428 1089.18C909.59 1062.8 904.752 995.215 902.333 950.704C899.914 906.193 916.847 834.483 928.132 775.139C930.411 763.147 931.995 751.467 933.078 740.436C944.523 784.683 975.427 915.532 974.086 953.177C972.472 998.51 1009.56 1090.83 1034.55 1143.58C1059.54 1196.33 1071.63 1257.33 1071.63 1257.33C1061.96 1275.46 1063.97 1334.81 1065.59 1355C1067.2 1375.2 1067.51 1392.78 1069.86 1424.45C1072.55 1460.61 1076.48 1466.69 1086.15 1464.63C1095.82 1462.57 1090.77 1413.09 1090.18 1404.04C1089.37 1391.68 1090.18 1382.61 1093 1387.56C1095.82 1392.51 1099.86 1460.92 1103.88 1477.82C1107.92 1494.71 1120.41 1496.77 1123.64 1483.58C1126.86 1470.4 1118.1 1405.4 1117.59 1399.93C1115.98 1382.61 1118.4 1379.73 1121.22 1386.74C1124.04 1393.75 1128.07 1490.59 1145 1492.65C1161.93 1494.72 1153.87 1458.86 1151.45 1442.79C1149.03 1426.71 1147.39 1401.63 1147.01 1396.63C1145.89 1381.86 1143.71 1374.71 1148.67 1379.32C1152.64 1383.02 1165.15 1444.43 1167.17 1457.21C1169.18 1469.98 1172.32 1486.57 1184.5 1483.17C1195.59 1480.08 1187.54 1450.21 1185.22 1428.37C1183.14 1408.68 1175.64 1343.88 1175.64 1343.88C1175.64 1343.88 1179.67 1346.35 1185.31 1356.24C1190.95 1366.14 1204.96 1382.72 1218.87 1389.52C1232.9 1396.39 1233.97 1381.79 1226.11 1371.9Z" stroke="black" stroke-width="4" mask="url(#path-1-inside-1_63_9287)"/>
</g>
<defs>
<filter id="filter0_d_63_9287" x="-41" y="-180" width="1522" height="2959" filterUnits="userSpaceOnUse" color-interpolation-filters="sRGB">
<feFlood flood-opacity="0" result="BackgroundImageFix"/>
<feColorMatrix in="SourceAlpha" type="matrix" values="0 0 0 0 0 0 0 0 0 0 0 0 0 0 0 0 0 0 127 0" result="hardAlpha"/>
<feOffset/>
<feGaussianBlur stdDeviation="125"/>
<feComposite in2="hardAlpha" operator="out"/>
<feColorMatrix type="matrix" values="0 0 0 0 0.00392157 0 0 0 0 0.996078 0 0 0 0 0.282353 0 0 0 0.8 0"/>
<feBlend mode="normal" in2="BackgroundImageFix" result="effect1_dropShadow_63_9287"/>
<feBlend mode="normal" in="SourceGraphic" in2="effect1_dropShadow_63_9287" result="shape"/>
</filter>
</defs>
</svg>
