<svg width="390" height="277" viewBox="0 0 390 277" fill="none" xmlns="http://www.w3.org/2000/svg">
<mask id="path-1-outside-1_124_3685" maskUnits="userSpaceOnUse" x="25" y="20" width="337" height="257" fill="black">
<rect fill="white" x="25" y="20" width="337" height="257"/>
<path d="M65.4937 85.28H80.6137C80.6137 89.36 81.6937 92.52 83.8537 94.76C86.0937 96.92 89.2537 98 93.3338 98C97.4137 98 100.574 96.92 102.814 94.76C105.054 92.52 106.174 89.36 106.174 85.28V71.36H80.9737V57.8H106.174V47.12C106.174 43.04 105.054 39.92 102.814 37.76C100.574 35.52 97.4137 34.4 93.3338 34.4C89.2537 34.4 86.0937 35.52 83.8537 37.76C81.6937 39.92 80.6137 43.04 80.6137 47.12H65.4937C65.4937 41.84 66.6537 37.28 68.9737 33.44C71.2937 29.52 74.5337 26.52 78.6937 24.44C82.8537 22.28 87.7337 21.2 93.3338 21.2C99.0137 21.2 103.934 22.28 108.094 24.44C112.254 26.52 115.454 29.52 117.694 33.44C120.014 37.28 121.174 41.84 121.174 47.12V85.28C121.174 90.56 120.014 95.16 117.694 99.08C115.454 102.92 112.254 105.92 108.094 108.08C103.934 110.16 99.0137 111.2 93.3338 111.2C87.7337 111.2 82.8537 110.16 78.6937 108.08C74.5337 105.92 71.2937 102.92 68.9737 99.08C66.6537 95.16 65.4937 90.56 65.4937 85.28ZM137.567 110C135.567 110 134.567 109 134.567 107V25.4C134.567 23.4 135.567 22.4 137.567 22.4H146.687C148.607 22.4 149.567 23.4 149.567 25.4V58.16H159.887L175.607 24.56C176.247 23.12 177.367 22.4 178.967 22.4H188.927C190.047 22.4 190.807 22.76 191.207 23.48C191.687 24.12 191.687 24.92 191.207 25.88L173.087 64.16L192.167 106.52C192.647 107.48 192.647 108.32 192.167 109.04C191.767 109.68 191.007 110 189.887 110H179.567C177.887 110 176.727 109.24 176.087 107.72L159.767 71.24H149.567V107C149.567 109 148.607 110 146.687 110H137.567ZM227.52 111.2C222 111.2 217.08 110.24 212.76 108.32C208.44 106.4 204.96 103.76 202.32 100.4C199.68 96.96 198.08 92.96 197.52 88.4C197.44 87.36 197.64 86.6 198.12 86.12C198.68 85.56 199.44 85.28 200.4 85.28H209.4C211 85.28 212.04 86.2 212.52 88.04C213.24 91.16 214.92 93.64 217.56 95.48C220.28 97.32 223.6 98.24 227.52 98.24C232.16 98.24 235.88 97 238.68 94.52C241.56 91.96 243 88.64 243 84.56C243 80.48 241.56 77.2 238.68 74.72C235.88 72.16 232.16 70.88 227.52 70.88H220.44C218.52 70.88 217.56 69.88 217.56 67.88V61.16C217.56 59.16 218.52 58.16 220.44 58.16H227.76C231.6 58.16 234.72 57.04 237.12 54.8C239.52 52.48 240.72 49.52 240.72 45.92C240.72 42.32 239.52 39.44 237.12 37.28C234.72 35.04 231.64 33.92 227.88 33.92C224.44 33.92 221.52 34.88 219.12 36.8C216.8 38.64 215.36 41.16 214.8 44.36C214.48 46.2 213.48 47.12 211.8 47.12H202.8C200.64 47.12 199.68 46.12 199.92 44.12C200.4 39.56 201.88 35.56 204.36 32.12C206.84 28.68 210.08 26 214.08 24.08C218.16 22.16 222.8 21.2 228 21.2C233.44 21.2 238.24 22.2 242.4 24.2C246.56 26.12 249.8 28.84 252.12 32.36C254.52 35.88 255.72 39.96 255.72 44.6C255.72 49.32 254.4 53.44 251.76 56.96C249.2 60.48 245.88 62.64 241.8 63.44V63.8C246.68 64.76 250.64 67.28 253.68 71.36C256.72 75.36 258.24 80.08 258.24 85.52C258.24 90.64 256.92 95.12 254.28 98.96C251.72 102.8 248.12 105.8 243.48 107.96C238.92 110.12 233.6 111.2 227.52 111.2ZM295.753 111.2C287.353 111.2 280.673 108.8 275.713 104C270.833 99.2 268.393 92.56 268.393 84.08V48.32C268.393 39.84 270.833 33.2 275.713 28.4C280.673 23.6 287.353 21.2 295.753 21.2C304.153 21.2 310.793 23.6 315.673 28.4C320.633 33.2 323.113 39.8 323.113 48.2V84.08C323.113 92.56 320.633 99.2 315.673 104C310.793 108.8 304.153 111.2 295.753 111.2ZM295.753 98C299.833 98 302.913 96.92 304.993 94.76C307.073 92.52 308.113 89.36 308.113 85.28V47.12C308.113 43.04 307.073 39.92 304.993 37.76C302.913 35.52 299.833 34.4 295.753 34.4C291.673 34.4 288.593 35.52 286.513 37.76C284.433 39.92 283.393 43.04 283.393 47.12V85.28C283.393 89.36 284.433 92.52 286.513 94.76C288.593 96.92 291.673 98 295.753 98ZM94.2937 193.2C85.8937 193.2 79.2137 190.8 74.2537 186C69.3737 181.2 66.9337 174.56 66.9337 166.08V130.32C66.9337 121.84 69.3737 115.2 74.2537 110.4C79.2137 105.6 85.8937 103.2 94.2937 103.2C102.694 103.2 109.334 105.6 114.214 110.4C119.174 115.2 121.654 121.8 121.654 130.2V166.08C121.654 174.56 119.174 181.2 114.214 186C109.334 190.8 102.694 193.2 94.2937 193.2ZM94.2937 180C98.3737 180 101.454 178.92 103.534 176.76C105.614 174.52 106.654 171.36 106.654 167.28V129.12C106.654 125.04 105.614 121.92 103.534 119.76C101.454 117.52 98.3737 116.4 94.2937 116.4C90.2137 116.4 87.1337 117.52 85.0537 119.76C82.9737 121.92 81.9337 125.04 81.9337 129.12V167.28C81.9337 171.36 82.9737 174.52 85.0537 176.76C87.1337 178.92 90.2137 180 94.2937 180ZM134.807 192V104.4H187.367V117.96H149.447V138.84H162.287C168.127 138.84 173.207 139.96 177.527 142.2C181.847 144.36 185.207 147.44 187.607 151.44C190.007 155.36 191.207 159.96 191.207 165.24C191.207 170.52 190.007 175.16 187.607 179.16C185.207 183.16 181.847 186.32 177.527 188.64C173.287 190.88 168.247 192 162.407 192H134.807ZM149.447 178.8H162.407C166.567 178.8 169.847 177.56 172.247 175.08C174.727 172.6 175.967 169.32 175.967 165.24C175.967 161.08 174.727 157.8 172.247 155.4C169.847 152.92 166.567 151.68 162.407 151.68H149.447V178.8ZM228.6 193.2C220.2 193.2 213.52 190.8 208.56 186C203.68 181.2 201.24 174.56 201.24 166.08V130.32C201.24 121.84 203.68 115.2 208.56 110.4C213.52 105.6 220.2 103.2 228.6 103.2C237 103.2 243.64 105.6 248.52 110.4C253.48 115.2 255.96 121.8 255.96 130.2V166.08C255.96 174.56 253.48 181.2 248.52 186C243.64 190.8 237 193.2 228.6 193.2ZM228.6 180C232.68 180 235.76 178.92 237.84 176.76C239.92 174.52 240.96 171.36 240.96 167.28V129.12C240.96 125.04 239.92 121.92 237.84 119.76C235.76 117.52 232.68 116.4 228.6 116.4C224.52 116.4 221.44 117.52 219.36 119.76C217.28 121.92 216.24 125.04 216.24 129.12V167.28C216.24 171.36 217.28 174.52 219.36 176.76C221.44 178.92 224.52 180 228.6 180ZM276.553 159.36V145.44H314.953V159.36H276.553ZM26.7572 274.6V260.92H29.7572C35.2772 260.92 38.1172 255.68 38.2772 245.2L39.2372 186.4H87.3572V274H72.3572V199.96H53.9972L53.1572 245.2C52.9972 254.72 50.9572 262 47.0372 267.04C43.1972 272.08 37.7572 274.6 30.7172 274.6H26.7572ZM127.87 275.2C119.47 275.2 112.79 272.8 107.83 268C102.95 263.2 100.51 256.56 100.51 248.08V212.32C100.51 203.84 102.95 197.2 107.83 192.4C112.79 187.6 119.47 185.2 127.87 185.2C136.27 185.2 142.91 187.6 147.79 192.4C152.75 197.2 155.23 203.8 155.23 212.2V248.08C155.23 256.56 152.75 263.2 147.79 268C142.91 272.8 136.27 275.2 127.87 275.2ZM127.87 262C131.95 262 135.03 260.92 137.11 258.76C139.19 256.52 140.23 253.36 140.23 249.28V211.12C140.23 207.04 139.19 203.92 137.11 201.76C135.03 199.52 131.95 198.4 127.87 198.4C123.79 198.4 120.71 199.52 118.63 201.76C116.55 203.92 115.51 207.04 115.51 211.12V249.28C115.51 253.36 116.55 256.52 118.63 258.76C120.71 260.92 123.79 262 127.87 262ZM206.423 274V242.92H191.663C183.663 242.92 177.423 240.92 172.943 236.92C168.463 232.84 166.223 227.2 166.223 220V186.4H181.223V219.28C181.223 222.48 182.303 225 184.463 226.84C186.703 228.6 189.703 229.48 193.463 229.48H206.423V186.4H221.423V274H206.423ZM238.297 274C236.297 274 235.297 273 235.297 271V189.4C235.297 187.4 236.297 186.4 238.297 186.4H247.417C249.337 186.4 250.297 187.4 250.297 189.4V222.16H260.617L276.337 188.56C276.977 187.12 278.097 186.4 279.697 186.4H289.657C290.777 186.4 291.537 186.76 291.937 187.48C292.417 188.12 292.417 188.92 291.937 189.88L273.817 228.16L292.897 270.52C293.377 271.48 293.377 272.32 292.897 273.04C292.497 273.68 291.737 274 290.617 274H280.297C278.617 274 277.457 273.24 276.817 271.72L260.497 235.24H250.297V271C250.297 273 249.337 274 247.417 274H238.297ZM301.01 274C298.77 274 297.93 272.92 298.49 270.76L319.01 188.92C319.41 187.24 320.49 186.4 322.25 186.4H336.29C338.05 186.4 339.13 187.24 339.53 188.92L360.17 270.76C360.73 272.92 359.89 274 357.65 274H348.41C346.65 274 345.61 273.12 345.29 271.36L340.97 252.76H317.69L313.49 271.36C313.09 273.12 312.01 274 310.25 274H301.01ZM320.45 240.52H338.21L332.93 217C332.53 215.32 332.17 213.76 331.85 212.32C331.61 210.88 331.37 209.52 331.13 208.24C330.81 206.8 330.25 205.92 329.45 205.6C328.65 205.2 328.13 205.6 327.89 206.8C327.65 208.32 327.33 209.92 326.93 211.6C326.61 213.28 326.21 215.04 325.73 216.88L320.45 240.52Z"/>
</mask>
<path d="M65.4937 85.28V84.28H64.4937V85.28H65.4937ZM80.6137 85.28H81.6137V84.28H80.6137V85.28ZM83.8537 94.76L83.1339 95.4541L83.1465 95.4672L83.1596 95.4798L83.8537 94.76ZM102.814 94.76L103.508 95.4798L103.514 95.4735L103.521 95.4671L102.814 94.76ZM106.174 71.36H107.174V70.36H106.174V71.36ZM80.9737 71.36H79.9737V72.36H80.9737V71.36ZM80.9737 57.8V56.8H79.9737V57.8H80.9737ZM106.174 57.8V58.8H107.174V57.8H106.174ZM102.814 37.76L102.107 38.4671L102.113 38.4735L102.12 38.4798L102.814 37.76ZM80.6137 47.12V48.12H81.6137V47.12H80.6137ZM65.4937 47.12H64.4937V48.12H65.4937V47.12ZM68.9737 33.44L69.8297 33.9571L69.8343 33.9493L68.9737 33.44ZM78.6937 24.44L79.141 25.3344L79.1478 25.331L79.1546 25.3275L78.6937 24.44ZM108.094 24.44L107.633 25.3275L107.64 25.331L107.647 25.3344L108.094 24.44ZM117.694 33.44L116.826 33.9361L116.832 33.9467L116.838 33.9571L117.694 33.44ZM117.694 99.08L116.833 98.5707L116.83 98.5761L117.694 99.08ZM108.094 108.08L108.541 108.974L108.548 108.971L108.555 108.967L108.094 108.08ZM78.6937 108.08L78.2329 108.967L78.2397 108.971L78.2465 108.974L78.6937 108.08ZM68.9737 99.08L68.1131 99.5893L68.1178 99.5971L68.9737 99.08ZM65.4937 85.28V86.28H80.6137V85.28V84.28H65.4937V85.28ZM80.6137 85.28H79.6137C79.6137 89.5357 80.7437 92.9754 83.1339 95.4541L83.8537 94.76L84.5736 94.0659C82.6438 92.0646 81.6137 89.1843 81.6137 85.28H80.6137ZM83.8537 94.76L83.1596 95.4798C85.6384 97.8701 89.0781 99 93.3338 99V98V97C89.4294 97 86.5491 95.9699 84.5479 94.0402L83.8537 94.76ZM93.3338 98V99C97.5894 99 101.029 97.8701 103.508 95.4798L102.814 94.76L102.12 94.0402C100.118 95.9699 97.2381 97 93.3338 97V98ZM102.814 94.76L103.521 95.4671C105.998 92.9898 107.174 89.5454 107.174 85.28H106.174H105.174C105.174 89.1746 104.109 92.0502 102.107 94.0529L102.814 94.76ZM106.174 85.28H107.174V71.36H106.174H105.174V85.28H106.174ZM106.174 71.36V70.36H80.9737V71.36V72.36H106.174V71.36ZM80.9737 71.36H81.9737V57.8H80.9737H79.9737V71.36H80.9737ZM80.9737 57.8V58.8H106.174V57.8V56.8H80.9737V57.8ZM106.174 57.8H107.174V47.12H106.174H105.174V57.8H106.174ZM106.174 47.12H107.174C107.174 42.8568 105.999 39.4422 103.508 37.0401L102.814 37.76L102.12 38.4798C104.109 40.3978 105.174 43.2232 105.174 47.12H106.174ZM102.814 37.76L103.521 37.0529C101.044 34.5756 97.5991 33.4 93.3338 33.4V34.4V35.4C97.2284 35.4 100.104 36.4644 102.107 38.4671L102.814 37.76ZM93.3338 34.4V33.4C89.0684 33.4 85.624 34.5756 83.1466 37.0529L83.8537 37.76L84.5609 38.4671C86.5635 36.4644 89.4391 35.4 93.3338 35.4V34.4ZM83.8537 37.76L83.1466 37.0529C80.7428 39.4567 79.6137 42.8667 79.6137 47.12H80.6137H81.6137C81.6137 43.2133 82.6447 40.3833 84.5609 38.4671L83.8537 37.76ZM80.6137 47.12V46.12H65.4937V47.12V48.12H80.6137V47.12ZM65.4937 47.12H66.4937C66.4937 41.9897 67.6195 37.6154 69.8297 33.9571L68.9737 33.44L68.1178 32.9229C65.688 36.9446 64.4937 41.6903 64.4937 47.12H65.4937ZM68.9737 33.44L69.8343 33.9493C72.0543 30.1984 75.1491 27.3304 79.141 25.3344L78.6937 24.44L78.2465 23.5456C73.9184 25.7096 70.5332 28.8416 68.1132 32.9307L68.9737 33.44ZM78.6937 24.44L79.1546 25.3275C83.147 23.2545 87.8631 22.2 93.3338 22.2V21.2V20.2C87.6044 20.2 82.5605 21.3055 78.2329 23.5525L78.6937 24.44ZM93.3338 21.2V22.2C98.887 22.2 103.642 23.2555 107.633 25.3275L108.094 24.44L108.555 23.5525C104.225 21.3045 99.1405 20.2 93.3338 20.2V21.2ZM108.094 24.44L107.647 25.3344C111.636 27.329 114.687 30.1929 116.826 33.9361L117.694 33.44L118.562 32.9439C116.221 28.847 112.872 25.711 108.541 23.5456L108.094 24.44ZM117.694 33.44L116.838 33.9571C119.048 37.6154 120.174 41.9897 120.174 47.12H121.174H122.174C122.174 41.6903 120.979 36.9446 118.55 32.9229L117.694 33.44ZM121.174 47.12H120.174V85.28H121.174H122.174V47.12H121.174ZM121.174 85.28H120.174C120.174 90.4097 119.048 94.828 116.833 98.5707L117.694 99.08L118.554 99.5893C120.979 95.492 122.174 90.7103 122.174 85.28H121.174ZM117.694 99.08L116.83 98.5761C114.691 102.244 111.635 105.115 107.633 107.193L108.094 108.08L108.555 108.967C112.873 106.725 116.217 103.596 118.558 99.5839L117.694 99.08ZM108.094 108.08L107.647 107.186C103.653 109.182 98.8923 110.2 93.3338 110.2V111.2V112.2C99.1352 112.2 104.215 111.138 108.541 108.974L108.094 108.08ZM93.3338 111.2V110.2C87.8577 110.2 83.1366 109.183 79.141 107.186L78.6937 108.08L78.2465 108.974C82.5709 111.137 87.6098 112.2 93.3338 112.2V111.2ZM78.6937 108.08L79.1546 107.193C75.1502 105.113 72.0502 102.238 69.8297 98.5629L68.9737 99.08L68.1178 99.5971C70.5373 103.602 73.9173 106.727 78.2329 108.967L78.6937 108.08ZM68.9737 99.08L69.8343 98.5707C67.6193 94.828 66.4937 90.4097 66.4937 85.28H65.4937H64.4937C64.4937 90.7103 65.6882 95.492 68.1132 99.5893L68.9737 99.08ZM149.567 58.16H148.567V59.16H149.567V58.16ZM159.887 58.16V59.16H160.523L160.793 58.5838L159.887 58.16ZM175.607 24.56L176.513 24.9838L176.517 24.975L176.521 24.9661L175.607 24.56ZM191.207 23.48L190.333 23.9656L190.366 24.0254L190.407 24.08L191.207 23.48ZM191.207 25.88L190.312 25.4328L190.308 25.4424L190.303 25.4522L191.207 25.88ZM173.087 64.16L172.183 63.7322L171.985 64.1496L172.175 64.5707L173.087 64.16ZM192.167 106.52L191.255 106.931L191.263 106.949L191.272 106.967L192.167 106.52ZM192.167 109.04L191.335 108.485L191.327 108.498L191.319 108.51L192.167 109.04ZM176.087 107.72L177.009 107.332L177.004 107.322L177 107.312L176.087 107.72ZM159.767 71.24L160.68 70.8316L160.415 70.24H159.767V71.24ZM149.567 71.24V70.24H148.567V71.24H149.567ZM137.567 110V109C136.721 109 136.27 108.789 136.024 108.543C135.778 108.297 135.567 107.846 135.567 107H134.567H133.567C133.567 108.154 133.856 109.203 134.61 109.957C135.363 110.711 136.413 111 137.567 111V110ZM134.567 107H135.567V25.4H134.567H133.567V107H134.567ZM134.567 25.4H135.567C135.567 24.5541 135.778 24.1034 136.024 23.8571C136.27 23.6108 136.721 23.4 137.567 23.4V22.4V21.4C136.413 21.4 135.363 21.6892 134.61 22.4429C133.856 23.1966 133.567 24.2458 133.567 25.4H134.567ZM137.567 22.4V23.4H146.687V22.4V21.4H137.567V22.4ZM146.687 22.4V23.4C147.482 23.4 147.897 23.6049 148.125 23.8425C148.361 24.0877 148.567 24.5442 148.567 25.4H149.567H150.567C150.567 24.2558 150.293 23.2123 149.568 22.4575C148.836 21.695 147.812 21.4 146.687 21.4V22.4ZM149.567 25.4H148.567V58.16H149.567H150.567V25.4H149.567ZM149.567 58.16V59.16H159.887V58.16V57.16H149.567V58.16ZM159.887 58.16L160.793 58.5838L176.513 24.9838L175.607 24.56L174.701 24.1362L158.981 57.7362L159.887 58.16ZM175.607 24.56L176.521 24.9661C176.776 24.3911 177.1 24.0175 177.468 23.7812C177.836 23.5442 178.32 23.4 178.967 23.4V22.4V21.4C178.014 21.4 177.137 21.6158 176.386 22.0988C175.634 22.5825 175.077 23.2889 174.693 24.1539L175.607 24.56ZM178.967 22.4V23.4H188.927V22.4V21.4H178.967V22.4ZM188.927 22.4V23.4C189.832 23.4 190.171 23.6748 190.333 23.9656L191.207 23.48L192.081 22.9944C191.443 21.8452 190.261 21.4 188.927 21.4V22.4ZM191.207 23.48L190.407 24.08C190.581 24.3126 190.691 24.6765 190.312 25.4328L191.207 25.88L192.101 26.3272C192.683 25.1635 192.792 23.9274 192.007 22.88L191.207 23.48ZM191.207 25.88L190.303 25.4522L172.183 63.7322L173.087 64.16L173.991 64.5878L192.111 26.3078L191.207 25.88ZM173.087 64.16L172.175 64.5707L191.255 106.931L192.167 106.52L193.079 106.109L173.999 63.7493L173.087 64.16ZM192.167 106.52L191.272 106.967C191.637 107.697 191.565 108.139 191.335 108.485L192.167 109.04L192.999 109.595C193.728 108.501 193.657 107.263 193.061 106.073L192.167 106.52ZM192.167 109.04L191.319 108.51C191.18 108.732 190.842 109 189.887 109V110V111C191.172 111 192.354 110.628 193.015 109.57L192.167 109.04ZM189.887 110V109H179.567V110V111H189.887V110ZM179.567 110V109C178.88 109 178.37 108.846 177.985 108.594C177.601 108.342 177.266 107.944 177.009 107.332L176.087 107.72L175.165 108.108C175.548 109.016 176.113 109.758 176.889 110.266C177.663 110.774 178.574 111 179.567 111V110ZM176.087 107.72L177 107.312L160.68 70.8316L159.767 71.24L158.854 71.6484L175.174 108.128L176.087 107.72ZM159.767 71.24V70.24H149.567V71.24V72.24H159.767V71.24ZM149.567 71.24H148.567V107H149.567H150.567V71.24H149.567ZM149.567 107H148.567C148.567 107.856 148.361 108.312 148.125 108.557C147.897 108.795 147.482 109 146.687 109V110V111C147.812 111 148.836 110.705 149.568 109.943C150.293 109.188 150.567 108.144 150.567 107H149.567ZM146.687 110V109H137.567V110V111H146.687V110ZM212.76 108.32L212.354 109.234L212.76 108.32ZM202.32 100.4L201.527 101.009L201.534 101.018L202.32 100.4ZM197.52 88.4L196.523 88.4767L196.525 88.4993L196.527 88.5219L197.52 88.4ZM198.12 86.12L197.413 85.4129V85.4129L198.12 86.12ZM212.52 88.04L213.494 87.8151L213.491 87.8013L213.488 87.7876L212.52 88.04ZM217.56 95.48L216.988 96.3005L217 96.3083L217.56 95.48ZM238.68 94.52L239.343 95.2686L239.344 95.2674L238.68 94.52ZM238.68 74.72L238.005 75.458L238.016 75.4681L238.027 75.4778L238.68 74.72ZM237.12 54.8L237.802 55.5311L237.809 55.5251L237.815 55.519L237.12 54.8ZM237.12 37.28L236.438 38.0111L236.444 38.0172L236.451 38.0233L237.12 37.28ZM219.12 36.8L219.741 37.5835L219.745 37.5809L219.12 36.8ZM214.8 44.36L213.815 44.1876L213.815 44.1887L214.8 44.36ZM199.92 44.12L200.913 44.2391L200.914 44.2319L200.914 44.2247L199.92 44.12ZM204.36 32.12L203.549 31.5352V31.5352L204.36 32.12ZM214.08 24.08L213.654 23.1752L213.647 23.1785L214.08 24.08ZM242.4 24.2L241.967 25.1012L241.974 25.1047L241.981 25.108L242.4 24.2ZM252.12 32.36L251.285 32.9103L251.289 32.9169L251.294 32.9233L252.12 32.36ZM251.76 56.96L250.96 56.36L250.956 56.3659L250.951 56.3718L251.76 56.96ZM241.8 63.44L241.608 62.4587L240.8 62.617V63.44H241.8ZM241.8 63.8H240.8V64.6224L241.607 64.7812L241.8 63.8ZM253.68 71.36L252.878 71.9575L252.884 71.9651L253.68 71.36ZM254.28 98.96L253.456 98.3935L253.452 98.3994L253.448 98.4053L254.28 98.96ZM243.48 107.96L243.058 107.053L243.052 107.056L243.48 107.96ZM227.52 111.2V110.2C222.117 110.2 217.339 109.261 213.166 107.406L212.76 108.32L212.354 109.234C216.821 111.219 221.883 112.2 227.52 112.2V111.2ZM212.76 108.32L213.166 107.406C208.979 105.545 205.635 103.001 203.106 99.7822L202.32 100.4L201.534 101.018C204.285 104.519 207.901 107.255 212.354 109.234L212.76 108.32ZM202.32 100.4L203.113 99.7912C200.589 96.5013 199.052 92.6719 198.513 88.2781L197.52 88.4L196.527 88.5219C197.108 93.2481 198.771 97.4187 201.527 101.009L202.32 100.4ZM197.52 88.4L198.517 88.3233C198.447 87.4177 198.643 87.0108 198.827 86.8271L198.12 86.12L197.413 85.4129C196.637 86.1892 196.433 87.3023 196.523 88.4767L197.52 88.4ZM198.12 86.12L198.827 86.8271C199.161 86.4932 199.645 86.28 200.4 86.28V85.28V84.28C199.235 84.28 198.199 84.6268 197.413 85.4129L198.12 86.12ZM200.4 85.28V86.28H209.4V85.28V84.28H200.4V85.28ZM209.4 85.28V86.28C209.995 86.28 210.408 86.4451 210.717 86.719C211.043 87.007 211.344 87.4956 211.552 88.2924L212.52 88.04L213.488 87.7876C213.215 86.7444 212.757 85.853 212.043 85.221C211.312 84.5749 210.405 84.28 209.4 84.28V85.28ZM212.52 88.04L211.546 88.2649C212.322 91.6277 214.146 94.3194 216.988 96.3004L217.56 95.48L218.132 94.6596C215.694 92.9606 214.158 90.6923 213.494 87.8151L212.52 88.04ZM217.56 95.48L217 96.3083C219.915 98.2804 223.44 99.24 227.52 99.24V98.24V97.24C223.76 97.24 220.645 96.3596 218.12 94.6517L217.56 95.48ZM227.52 98.24V99.24C232.343 99.24 236.319 97.947 239.343 95.2686L238.68 94.52L238.017 93.7714C235.441 96.053 231.977 97.24 227.52 97.24V98.24ZM238.68 94.52L239.344 95.2674C242.452 92.5054 244 88.9066 244 84.56H243H242C242 88.3734 240.668 91.4146 238.016 93.7726L238.68 94.52ZM243 84.56H244C244 80.2131 242.451 76.6475 239.333 73.9622L238.68 74.72L238.027 75.4778C240.669 77.7525 242 80.7469 242 84.56H243ZM238.68 74.72L239.355 73.982C236.331 71.2178 232.351 69.88 227.52 69.88V70.88V71.88C231.969 71.88 235.429 73.1022 238.005 75.458L238.68 74.72ZM227.52 70.88V69.88H220.44V70.88V71.88H227.52V70.88ZM220.44 70.88V69.88C219.645 69.88 219.229 69.675 219.001 69.4375C218.766 69.1923 218.56 68.7358 218.56 67.88H217.56H216.56C216.56 69.0242 216.834 70.0677 217.559 70.8225C218.291 71.585 219.315 71.88 220.44 71.88V70.88ZM217.56 67.88H218.56V61.16H217.56H216.56V67.88H217.56ZM217.56 61.16H218.56C218.56 60.3042 218.766 59.8477 219.001 59.6025C219.229 59.365 219.645 59.16 220.44 59.16V58.16V57.16C219.315 57.16 218.291 57.455 217.559 58.2175C216.834 58.9723 216.56 60.0158 216.56 61.16H217.56ZM220.44 58.16V59.16H227.76V58.16V57.16H220.44V58.16ZM227.76 58.16V59.16C231.807 59.16 235.186 57.9728 237.802 55.5311L237.12 54.8L236.438 54.0689C234.254 56.1072 231.393 57.16 227.76 57.16V58.16ZM237.12 54.8L237.815 55.519C240.426 52.9948 241.72 49.7675 241.72 45.92H240.72H239.72C239.72 49.2725 238.614 51.9652 236.425 54.081L237.12 54.8ZM240.72 45.92H241.72C241.72 42.0728 240.425 38.9093 237.789 36.5367L237.12 37.28L236.451 38.0233C238.615 39.9707 239.72 42.5672 239.72 45.92H240.72ZM237.12 37.28L237.802 36.5489C235.19 34.1109 231.854 32.92 227.88 32.92V33.92V34.92C231.426 34.92 234.25 35.9691 236.438 38.0111L237.12 37.28ZM227.88 33.92V32.92C224.242 32.92 221.094 33.9404 218.495 36.0191L219.12 36.8L219.745 37.5809C221.946 35.8196 224.638 34.92 227.88 34.92V33.92ZM219.12 36.8L218.499 36.0165C215.967 38.024 214.413 40.7716 213.815 44.1876L214.8 44.36L215.785 44.5324C216.307 41.5484 217.633 39.256 219.741 37.5835L219.12 36.8ZM214.8 44.36L213.815 44.1887C213.679 44.9717 213.42 45.4302 213.133 45.6941C212.859 45.9464 212.451 46.12 211.8 46.12V47.12V48.12C212.829 48.12 213.761 47.8335 214.487 47.1659C215.2 46.5098 215.601 45.5883 215.785 44.5313L214.8 44.36ZM211.8 47.12V46.12H202.8V47.12V48.12H211.8V47.12ZM202.8 47.12V46.12C201.843 46.12 201.39 45.8948 201.181 45.6775C200.99 45.4778 200.812 45.0809 200.913 44.2391L199.92 44.12L198.927 44.0009C198.788 45.159 198.97 46.2621 199.739 47.0625C200.49 47.8452 201.597 48.12 202.8 48.12V47.12ZM199.92 44.12L200.914 44.2247C201.378 39.8234 202.801 35.9921 205.171 32.7048L204.36 32.12L203.549 31.5352C200.959 35.1279 199.422 39.2966 198.925 44.0153L199.92 44.12ZM204.36 32.12L205.171 32.7048C207.549 29.4067 210.656 26.8327 214.513 24.9815L214.08 24.08L213.647 23.1785C209.504 25.1673 206.131 27.9533 203.549 31.5352L204.36 32.12ZM214.08 24.08L214.506 24.9848C218.434 23.1364 222.925 22.2 228 22.2V21.2V20.2C222.675 20.2 217.886 21.1836 213.654 23.1752L214.08 24.08ZM228 21.2V22.2C233.317 22.2 237.964 23.1769 241.967 25.1012L242.4 24.2L242.833 23.2987C238.516 21.2231 233.563 20.2 228 20.2V21.2ZM242.4 24.2L241.981 25.108C245.987 26.9569 249.076 29.5594 251.285 32.9103L252.12 32.36L252.955 31.8097C250.523 28.1206 247.133 25.2831 242.819 23.292L242.4 24.2ZM252.12 32.36L251.294 32.9233C253.57 36.2624 254.72 40.1422 254.72 44.6H255.72H256.72C256.72 39.7778 255.47 35.4976 252.946 31.7967L252.12 32.36ZM255.72 44.6H254.72C254.72 49.1204 253.46 53.026 250.96 56.36L251.76 56.96L252.56 57.56C255.34 53.854 256.72 49.5196 256.72 44.6H255.72ZM251.76 56.96L250.951 56.3718C248.532 59.6982 245.427 61.7097 241.608 62.4587L241.8 63.44L241.992 64.4213C246.333 63.5703 249.868 61.2618 252.569 57.5482L251.76 56.96ZM241.8 63.44H240.8V63.8H241.8H242.8V63.44H241.8ZM241.8 63.8L241.607 64.7812C246.237 65.6921 249.983 68.0715 252.878 71.9575L253.68 71.36L254.482 70.7625C251.297 66.4885 247.123 63.8279 241.993 62.8188L241.8 63.8ZM253.68 71.36L252.884 71.9651C255.78 75.7764 257.24 80.2793 257.24 85.52H258.24H259.24C259.24 79.8807 257.66 74.9436 254.476 70.7549L253.68 71.36ZM258.24 85.52H257.24C257.24 90.4586 255.97 94.7366 253.456 98.3935L254.28 98.96L255.104 99.5265C257.87 95.5034 259.24 90.8214 259.24 85.52H258.24ZM254.28 98.96L253.448 98.4053C251.001 102.076 247.55 104.962 243.058 107.053L243.48 107.96L243.902 108.867C248.69 106.638 252.439 103.524 255.112 99.5147L254.28 98.96ZM243.48 107.96L243.052 107.056C238.65 109.141 233.482 110.2 227.52 110.2V111.2V112.2C233.718 112.2 239.19 111.099 243.908 108.864L243.48 107.96ZM275.713 104L275.012 104.713L275.018 104.719L275.713 104ZM275.713 28.4L275.018 27.6814L275.012 27.6871L275.713 28.4ZM315.673 28.4L314.972 29.1129L314.978 29.1186L315.673 28.4ZM315.673 104L314.978 103.281L314.972 103.287L315.673 104ZM304.993 94.76L305.713 95.4536L305.72 95.4471L305.726 95.4405L304.993 94.76ZM304.993 37.76L304.26 38.4404L304.267 38.4471L304.273 38.4536L304.993 37.76ZM286.513 37.76L287.233 38.4536L287.24 38.4471L287.246 38.4404L286.513 37.76ZM286.513 94.76L285.78 95.4405L285.786 95.4471L285.793 95.4536L286.513 94.76ZM295.753 111.2V110.2C287.553 110.2 281.143 107.863 276.409 103.281L275.713 104L275.018 104.719C280.203 109.737 287.153 112.2 295.753 112.2V111.2ZM275.713 104L276.414 103.287C271.769 98.7179 269.393 92.3599 269.393 84.08H268.393H267.393C267.393 92.7601 269.897 99.6821 275.012 104.713L275.713 104ZM268.393 84.08H269.393V48.32H268.393H267.393V84.08H268.393ZM268.393 48.32H269.393C269.393 40.0401 271.769 33.6821 276.414 29.1129L275.713 28.4L275.012 27.6871C269.897 32.7179 267.393 39.6399 267.393 48.32H268.393ZM275.713 28.4L276.409 29.1186C281.143 24.5367 287.553 22.2 295.753 22.2V21.2V20.2C287.153 20.2 280.203 22.6633 275.018 27.6814L275.713 28.4ZM295.753 21.2V22.2C303.954 22.2 310.32 24.5369 314.972 29.1129L315.673 28.4L316.374 27.6871C311.267 22.6631 304.352 20.2 295.753 20.2V21.2ZM315.673 28.4L314.978 29.1186C319.702 33.6905 322.113 40.0079 322.113 48.2H323.113H324.113C324.113 39.5921 321.564 32.7095 316.369 27.6814L315.673 28.4ZM323.113 48.2H322.113V84.08H323.113H324.113V48.2H323.113ZM323.113 84.08H322.113C322.113 92.3552 319.7 98.7113 314.978 103.281L315.673 104L316.369 104.719C321.566 99.6887 324.113 92.7648 324.113 84.08H323.113ZM315.673 104L314.972 103.287C310.32 107.863 303.954 110.2 295.753 110.2V111.2V112.2C304.352 112.2 311.267 109.737 316.374 104.713L315.673 104ZM295.753 98V99C300.004 99 303.385 97.8719 305.713 95.4536L304.993 94.76L304.273 94.0664C302.441 95.9681 299.662 97 295.753 97V98ZM304.993 94.76L305.726 95.4405C308.029 92.9607 309.113 89.5261 309.113 85.28H308.113H307.113C307.113 89.1939 306.118 92.0793 304.26 94.0795L304.993 94.76ZM308.113 85.28H309.113V47.12H308.113H307.113V85.28H308.113ZM308.113 47.12H309.113C309.113 42.8764 308.03 39.4715 305.713 37.0664L304.993 37.76L304.273 38.4536C306.117 40.3685 307.113 43.2036 307.113 47.12H308.113ZM304.993 37.76L305.726 37.0795C303.399 34.574 300.014 33.4 295.753 33.4V34.4V35.4C299.652 35.4 302.427 36.466 304.26 38.4404L304.993 37.76ZM295.753 34.4V33.4C291.492 33.4 288.107 34.574 285.78 37.0795L286.513 37.76L287.246 38.4404C289.079 36.466 291.854 35.4 295.753 35.4V34.4ZM286.513 37.76L285.793 37.0664C283.477 39.4715 282.393 42.8764 282.393 47.12H283.393H284.393C284.393 43.2036 285.39 40.3685 287.233 38.4536L286.513 37.76ZM283.393 47.12H282.393V85.28H283.393H284.393V47.12H283.393ZM283.393 85.28H282.393C282.393 89.5261 283.478 92.9607 285.78 95.4405L286.513 94.76L287.246 94.0796C285.389 92.0793 284.393 89.1939 284.393 85.28H283.393ZM286.513 94.76L285.793 95.4536C288.121 97.8719 291.502 99 295.753 99V98V97C291.844 97 289.065 95.9681 287.233 94.0664L286.513 94.76ZM74.2537 186L73.5525 186.713L73.5583 186.719L74.2537 186ZM74.2537 110.4L73.5583 109.681L73.5525 109.687L74.2537 110.4ZM114.214 110.4L113.512 111.113L113.518 111.119L114.214 110.4ZM114.214 186L113.518 185.281L113.513 185.287L114.214 186ZM103.534 176.76L104.254 177.454L104.26 177.447L104.267 177.44L103.534 176.76ZM103.534 119.76L102.801 120.44L102.807 120.447L102.813 120.454L103.534 119.76ZM85.0537 119.76L85.7741 120.454L85.7804 120.447L85.7865 120.44L85.0537 119.76ZM85.0537 176.76L84.321 177.44L84.3271 177.447L84.3334 177.454L85.0537 176.76ZM94.2937 193.2V192.2C86.0936 192.2 79.6838 189.863 74.9492 185.281L74.2537 186L73.5583 186.719C78.7437 191.737 85.6939 194.2 94.2937 194.2V193.2ZM74.2537 186L74.955 185.287C70.3097 180.718 67.9337 174.36 67.9337 166.08H66.9337H65.9337C65.9337 174.76 68.4378 181.682 73.5525 186.713L74.2537 186ZM66.9337 166.08H67.9337V130.32H66.9337H65.9337V166.08H66.9337ZM66.9337 130.32H67.9337C67.9337 122.04 70.3097 115.682 74.955 111.113L74.2537 110.4L73.5525 109.687C68.4378 114.718 65.9337 121.64 65.9337 130.32H66.9337ZM74.2537 110.4L74.9492 111.119C79.6838 106.537 86.0936 104.2 94.2937 104.2V103.2V102.2C85.6939 102.2 78.7437 104.663 73.5583 109.681L74.2537 110.4ZM94.2937 103.2V104.2C102.495 104.2 108.86 106.537 113.513 111.113L114.214 110.4L114.915 109.687C109.807 104.663 102.893 102.2 94.2937 102.2V103.2ZM114.214 110.4L113.518 111.119C118.243 115.691 120.654 122.008 120.654 130.2H121.654H122.654C122.654 121.592 120.105 114.709 114.909 109.681L114.214 110.4ZM121.654 130.2H120.654V166.08H121.654H122.654V130.2H121.654ZM121.654 166.08H120.654C120.654 174.355 118.241 180.711 113.518 185.281L114.214 186L114.909 186.719C120.107 181.689 122.654 174.765 122.654 166.08H121.654ZM114.214 186L113.513 185.287C108.86 189.863 102.495 192.2 94.2937 192.2V193.2V194.2C102.893 194.2 109.807 191.737 114.915 186.713L114.214 186ZM94.2937 180V181C98.5444 181 101.925 179.872 104.254 177.454L103.534 176.76L102.813 176.066C100.982 177.968 98.2031 179 94.2937 179V180ZM103.534 176.76L104.267 177.44C106.569 174.961 107.654 171.526 107.654 167.28H106.654H105.654C105.654 171.194 104.658 174.079 102.801 176.08L103.534 176.76ZM106.654 167.28H107.654V129.12H106.654H105.654V167.28H106.654ZM106.654 129.12H107.654C107.654 124.876 106.57 121.471 104.254 119.066L103.534 119.76L102.813 120.454C104.657 122.368 105.654 125.204 105.654 129.12H106.654ZM103.534 119.76L104.267 119.08C101.94 116.574 98.5546 115.4 94.2937 115.4V116.4V117.4C98.1929 117.4 100.967 118.466 102.801 120.44L103.534 119.76ZM94.2937 116.4V115.4C90.0329 115.4 86.6475 116.574 84.321 119.08L85.0537 119.76L85.7865 120.44C87.62 118.466 90.3946 117.4 94.2937 117.4V116.4ZM85.0537 119.76L84.3334 119.066C82.0174 121.471 80.9337 124.876 80.9337 129.12H81.9337H82.9337C82.9337 125.204 83.9301 122.368 85.7741 120.454L85.0537 119.76ZM81.9337 129.12H80.9337V167.28H81.9337H82.9337V129.12H81.9337ZM81.9337 167.28H80.9337C80.9337 171.526 82.0183 174.961 84.321 177.44L85.0537 176.76L85.7865 176.08C83.9292 174.079 82.9337 171.194 82.9337 167.28H81.9337ZM85.0537 176.76L84.3334 177.454C86.6621 179.872 90.0431 181 94.2937 181V180V179C90.3844 179 87.6054 177.968 85.7741 176.066L85.0537 176.76ZM134.807 192H133.807V193H134.807V192ZM134.807 104.4V103.4H133.807V104.4H134.807ZM187.367 104.4H188.367V103.4H187.367V104.4ZM187.367 117.96V118.96H188.367V117.96H187.367ZM149.447 117.96V116.96H148.447V117.96H149.447ZM149.447 138.84H148.447V139.84H149.447V138.84ZM177.527 142.2L177.067 143.088L177.073 143.091L177.08 143.094L177.527 142.2ZM187.607 151.44L186.749 151.955L186.754 151.962L187.607 151.44ZM187.607 179.16L186.749 178.646V178.646L187.607 179.16ZM177.527 188.64L177.994 189.524L178 189.521L177.527 188.64ZM149.447 178.8H148.447V179.8H149.447V178.8ZM172.247 175.08L171.54 174.373L171.534 174.379L171.528 174.385L172.247 175.08ZM172.247 155.4L171.528 156.095L171.54 156.107L171.551 156.119L172.247 155.4ZM149.447 151.68V150.68H148.447V151.68H149.447ZM134.807 192H135.807V104.4H134.807H133.807V192H134.807ZM134.807 104.4V105.4H187.367V104.4V103.4H134.807V104.4ZM187.367 104.4H186.367V117.96H187.367H188.367V104.4H187.367ZM187.367 117.96V116.96H149.447V117.96V118.96H187.367V117.96ZM149.447 117.96H148.447V138.84H149.447H150.447V117.96H149.447ZM149.447 138.84V139.84H162.287V138.84V137.84H149.447V138.84ZM162.287 138.84V139.84C167.998 139.84 172.915 140.935 177.067 143.088L177.527 142.2L177.987 141.312C173.499 138.985 168.255 137.84 162.287 137.84V138.84ZM177.527 142.2L177.08 143.094C181.236 145.173 184.451 148.124 186.749 151.954L187.607 151.44L188.464 150.926C185.963 146.756 182.458 143.547 177.974 141.306L177.527 142.2ZM187.607 151.44L186.754 151.962C189.044 155.703 190.207 160.116 190.207 165.24H191.207H192.207C192.207 159.804 190.97 155.017 188.46 150.918L187.607 151.44ZM191.207 165.24H190.207C190.207 170.363 189.044 174.821 186.749 178.646L187.607 179.16L188.464 179.674C190.969 175.499 192.207 170.677 192.207 165.24H191.207ZM187.607 179.16L186.749 178.646C184.447 182.483 181.223 185.52 177.054 187.759L177.527 188.64L178 189.521C182.47 187.12 185.967 183.837 188.464 179.674L187.607 179.16ZM177.527 188.64L177.06 187.756C172.992 189.905 168.119 191 162.407 191V192V193C168.375 193 173.582 191.855 177.994 189.524L177.527 188.64ZM162.407 192V191H134.807V192V193H162.407V192ZM149.447 178.8V179.8H162.407V178.8V177.8H149.447V178.8ZM162.407 178.8V179.8C166.778 179.8 170.339 178.489 172.965 175.775L172.247 175.08L171.528 174.385C169.355 176.631 166.356 177.8 162.407 177.8V178.8ZM172.247 175.08L172.954 175.787C175.652 173.089 176.967 169.538 176.967 165.24H175.967H174.967C174.967 169.102 173.802 172.111 171.54 174.373L172.247 175.08ZM175.967 165.24H176.967C176.967 160.869 175.656 157.308 172.942 154.681L172.247 155.4L171.551 156.119C173.798 158.292 174.967 161.291 174.967 165.24H175.967ZM172.247 155.4L172.965 154.705C170.339 151.991 166.778 150.68 162.407 150.68V151.68V152.68C166.356 152.68 169.355 153.849 171.528 156.095L172.247 155.4ZM162.407 151.68V150.68H149.447V151.68V152.68H162.407V151.68ZM149.447 151.68H148.447V178.8H149.447H150.447V151.68H149.447ZM208.56 186L207.859 186.713L207.865 186.719L208.56 186ZM208.56 110.4L207.865 109.681L207.859 109.687L208.56 110.4ZM248.52 110.4L247.819 111.113L247.825 111.119L248.52 110.4ZM248.52 186L247.825 185.281L247.819 185.287L248.52 186ZM237.84 176.76L238.56 177.454L238.567 177.447L238.573 177.44L237.84 176.76ZM237.84 119.76L237.107 120.44L237.113 120.447L237.12 120.454L237.84 119.76ZM219.36 119.76L220.08 120.454L220.087 120.447L220.093 120.44L219.36 119.76ZM219.36 176.76L218.627 177.44L218.633 177.447L218.64 177.454L219.36 176.76ZM228.6 193.2V192.2C220.4 192.2 213.99 189.863 209.255 185.281L208.56 186L207.865 186.719C213.05 191.737 220 194.2 228.6 194.2V193.2ZM208.56 186L209.261 185.287C204.616 180.718 202.24 174.36 202.24 166.08H201.24H200.24C200.24 174.76 202.744 181.682 207.859 186.713L208.56 186ZM201.24 166.08H202.24V130.32H201.24H200.24V166.08H201.24ZM201.24 130.32H202.24C202.24 122.04 204.616 115.682 209.261 111.113L208.56 110.4L207.859 109.687C202.744 114.718 200.24 121.64 200.24 130.32H201.24ZM208.56 110.4L209.255 111.119C213.99 106.537 220.4 104.2 228.6 104.2V103.2V102.2C220 102.2 213.05 104.663 207.865 109.681L208.56 110.4ZM228.6 103.2V104.2C236.801 104.2 243.166 106.537 247.819 111.113L248.52 110.4L249.221 109.687C244.114 104.663 237.199 102.2 228.6 102.2V103.2ZM248.52 110.4L247.825 111.119C252.549 115.691 254.96 122.008 254.96 130.2H255.96H256.96C256.96 121.592 254.411 114.709 249.215 109.681L248.52 110.4ZM255.96 130.2H254.96V166.08H255.96H256.96V130.2H255.96ZM255.96 166.08H254.96C254.96 174.355 252.547 180.711 247.825 185.281L248.52 186L249.215 186.719C254.413 181.689 256.96 174.765 256.96 166.08H255.96ZM248.52 186L247.819 185.287C243.166 189.863 236.801 192.2 228.6 192.2V193.2V194.2C237.199 194.2 244.114 191.737 249.221 186.713L248.52 186ZM228.6 180V181C232.851 181 236.232 179.872 238.56 177.454L237.84 176.76L237.12 176.066C235.288 177.968 232.509 179 228.6 179V180ZM237.84 176.76L238.573 177.44C240.875 174.961 241.96 171.526 241.96 167.28H240.96H239.96C239.96 171.194 238.965 174.079 237.107 176.08L237.84 176.76ZM240.96 167.28H241.96V129.12H240.96H239.96V167.28H240.96ZM240.96 129.12H241.96C241.96 124.876 240.876 121.471 238.56 119.066L237.84 119.76L237.12 120.454C238.964 122.368 239.96 125.204 239.96 129.12H240.96ZM237.84 119.76L238.573 119.08C236.246 116.574 232.861 115.4 228.6 115.4V116.4V117.4C232.499 117.4 235.274 118.466 237.107 120.44L237.84 119.76ZM228.6 116.4V115.4C224.339 115.4 220.954 116.574 218.627 119.08L219.36 119.76L220.093 120.44C221.926 118.466 224.701 117.4 228.6 117.4V116.4ZM219.36 119.76L218.64 119.066C216.324 121.471 215.24 124.876 215.24 129.12H216.24H217.24C217.24 125.204 218.236 122.368 220.08 120.454L219.36 119.76ZM216.24 129.12H215.24V167.28H216.24H217.24V129.12H216.24ZM216.24 167.28H215.24C215.24 171.526 216.325 174.961 218.627 177.44L219.36 176.76L220.093 176.08C218.235 174.079 217.24 171.194 217.24 167.28H216.24ZM219.36 176.76L218.64 177.454C220.968 179.872 224.349 181 228.6 181V180V179C224.691 179 221.912 177.968 220.08 176.066L219.36 176.76ZM276.553 159.36H275.553V160.36H276.553V159.36ZM276.553 145.44V144.44H275.553V145.44H276.553ZM314.953 145.44H315.953V144.44H314.953V145.44ZM314.953 159.36V160.36H315.953V159.36H314.953ZM276.553 159.36H277.553V145.44H276.553H275.553V159.36H276.553ZM276.553 145.44V146.44H314.953V145.44V144.44H276.553V145.44ZM314.953 145.44H313.953V159.36H314.953H315.953V145.44H314.953ZM314.953 159.36V158.36H276.553V159.36V160.36H314.953V159.36ZM26.7572 274.6H25.7572V275.6H26.7572V274.6ZM26.7572 260.92V259.92H25.7572V260.92H26.7572ZM38.2772 245.2L37.2773 245.184L37.2773 245.185L38.2772 245.2ZM39.2372 186.4V185.4H38.2534L38.2373 186.384L39.2372 186.4ZM87.3572 186.4H88.3572V185.4H87.3572V186.4ZM87.3572 274V275H88.3572V274H87.3572ZM72.3572 274H71.3572V275H72.3572V274ZM72.3572 199.96H73.3572V198.96H72.3572V199.96ZM53.9972 199.96V198.96H53.0156L52.9974 199.941L53.9972 199.96ZM53.1572 245.2L52.1574 245.181L52.1573 245.183L53.1572 245.2ZM47.0372 267.04L46.2478 266.426L46.2418 266.434L47.0372 267.04ZM26.7572 274.6H27.7572V260.92H26.7572H25.7572V274.6H26.7572ZM26.7572 260.92V261.92H29.7572V260.92V259.92H26.7572V260.92ZM29.7572 260.92V261.92C31.302 261.92 32.7032 261.551 33.9258 260.785C35.1444 260.021 36.1313 258.897 36.9064 257.466C38.4412 254.635 39.1962 250.511 39.2771 245.215L38.2772 245.2L37.2773 245.185C37.1982 250.369 36.4532 254.105 35.148 256.514C34.5031 257.703 33.735 258.544 32.8636 259.09C31.9962 259.634 30.9724 259.92 29.7572 259.92V260.92ZM38.2772 245.2L39.2771 245.216L40.2371 186.416L39.2372 186.4L38.2373 186.384L37.2773 245.184L38.2772 245.2ZM39.2372 186.4V187.4H87.3572V186.4V185.4H39.2372V186.4ZM87.3572 186.4H86.3572V274H87.3572H88.3572V186.4H87.3572ZM87.3572 274V273H72.3572V274V275H87.3572V274ZM72.3572 274H73.3572V199.96H72.3572H71.3572V274H72.3572ZM72.3572 199.96V198.96H53.9972V199.96V200.96H72.3572V199.96ZM53.9972 199.96L52.9974 199.941L52.1574 245.181L53.1572 245.2L54.157 245.219L54.997 199.979L53.9972 199.96ZM53.1572 245.2L52.1573 245.183C51.9993 254.588 49.9838 261.623 46.2478 266.426L47.0372 267.04L47.8265 267.654C51.9306 262.377 53.9951 254.852 54.1571 245.217L53.1572 245.2ZM47.0372 267.04L46.2418 266.434C42.6138 271.196 37.4849 273.6 30.7172 273.6V274.6V275.6C38.0295 275.6 43.7806 272.964 47.8326 267.646L47.0372 267.04ZM30.7172 274.6V273.6H26.7572V274.6V275.6H30.7172V274.6ZM107.83 268L107.129 268.713L107.135 268.719L107.83 268ZM107.83 192.4L107.135 191.681L107.129 191.687L107.83 192.4ZM147.79 192.4L147.089 193.113L147.095 193.119L147.79 192.4ZM147.79 268L147.095 267.281L147.089 267.287L147.79 268ZM137.11 258.76L137.831 259.454L137.837 259.447L137.843 259.44L137.11 258.76ZM137.11 201.76L136.378 202.44L136.384 202.447L136.39 202.454L137.11 201.76ZM118.63 201.76L119.351 202.454L119.357 202.447L119.363 202.44L118.63 201.76ZM118.63 258.76L117.898 259.44L117.904 259.447L117.91 259.454L118.63 258.76ZM127.87 275.2V274.2C119.67 274.2 113.26 271.863 108.526 267.281L107.83 268L107.135 268.719C112.32 273.737 119.27 276.2 127.87 276.2V275.2ZM107.83 268L108.532 267.287C103.886 262.718 101.51 256.36 101.51 248.08H100.51H99.5103C99.5103 256.76 102.014 263.682 107.129 268.713L107.83 268ZM100.51 248.08H101.51V212.32H100.51H99.5103V248.08H100.51ZM100.51 212.32H101.51C101.51 204.04 103.886 197.682 108.532 193.113L107.83 192.4L107.129 191.687C102.014 196.718 99.5103 203.64 99.5103 212.32H100.51ZM107.83 192.4L108.526 193.119C113.26 188.537 119.67 186.2 127.87 186.2V185.2V184.2C119.27 184.2 112.32 186.663 107.135 191.681L107.83 192.4ZM127.87 185.2V186.2C136.071 186.2 142.437 188.537 147.089 193.113L147.79 192.4L148.492 191.687C143.384 186.663 136.469 184.2 127.87 184.2V185.2ZM147.79 192.4L147.095 193.119C151.819 197.691 154.23 204.008 154.23 212.2H155.23H156.23C156.23 203.592 153.681 196.709 148.486 191.681L147.79 192.4ZM155.23 212.2H154.23V248.08H155.23H156.23V212.2H155.23ZM155.23 248.08H154.23C154.23 256.355 151.817 262.711 147.095 267.281L147.79 268L148.486 268.719C153.683 263.689 156.23 256.765 156.23 248.08H155.23ZM147.79 268L147.089 267.287C142.437 271.863 136.071 274.2 127.87 274.2V275.2V276.2C136.469 276.2 143.384 273.737 148.492 268.713L147.79 268ZM127.87 262V263C132.121 263 135.502 261.872 137.831 259.454L137.11 258.76L136.39 258.066C134.559 259.968 131.78 261 127.87 261V262ZM137.11 258.76L137.843 259.44C140.146 256.961 141.23 253.526 141.23 249.28H140.23H139.23C139.23 253.194 138.235 256.079 136.378 258.08L137.11 258.76ZM140.23 249.28H141.23V211.12H140.23H139.23V249.28H140.23ZM140.23 211.12H141.23C141.23 206.876 140.147 203.471 137.831 201.066L137.11 201.76L136.39 202.454C138.234 204.368 139.23 207.204 139.23 211.12H140.23ZM137.11 201.76L137.843 201.08C135.517 198.574 132.131 197.4 127.87 197.4V198.4V199.4C131.77 199.4 134.544 200.466 136.378 202.44L137.11 201.76ZM127.87 198.4V197.4C123.61 197.4 120.224 198.574 117.898 201.08L118.63 201.76L119.363 202.44C121.197 200.466 123.971 199.4 127.87 199.4V198.4ZM118.63 201.76L117.91 201.066C115.594 203.471 114.51 206.876 114.51 211.12H115.51H116.51C116.51 207.204 117.507 204.368 119.351 202.454L118.63 201.76ZM115.51 211.12H114.51V249.28H115.51H116.51V211.12H115.51ZM115.51 249.28H114.51C114.51 253.526 115.595 256.961 117.898 259.44L118.63 258.76L119.363 258.08C117.506 256.079 116.51 253.194 116.51 249.28H115.51ZM118.63 258.76L117.91 259.454C120.239 261.872 123.62 263 127.87 263V262V261C123.961 261 121.182 259.968 119.351 258.066L118.63 258.76ZM206.423 274H205.423V275H206.423V274ZM206.423 242.92H207.423V241.92H206.423V242.92ZM172.943 236.92L172.27 237.659L172.277 237.666L172.943 236.92ZM166.223 186.4V185.4H165.223V186.4H166.223ZM181.223 186.4H182.223V185.4H181.223V186.4ZM184.463 226.84L183.815 227.601L183.83 227.614L183.846 227.626L184.463 226.84ZM206.423 229.48V230.48H207.423V229.48H206.423ZM206.423 186.4V185.4H205.423V186.4H206.423ZM221.423 186.4H222.423V185.4H221.423V186.4ZM221.423 274V275H222.423V274H221.423ZM206.423 274H207.423V242.92H206.423H205.423V274H206.423ZM206.423 242.92V241.92H191.663V242.92V243.92H206.423V242.92ZM191.663 242.92V241.92C183.826 241.92 177.853 239.963 173.609 236.174L172.943 236.92L172.277 237.666C176.994 241.877 183.501 243.92 191.663 243.92V242.92ZM172.943 236.92L173.617 236.181C169.384 232.326 167.223 226.976 167.223 220H166.223H165.223C165.223 227.424 167.543 233.354 172.27 237.659L172.943 236.92ZM166.223 220H167.223V186.4H166.223H165.223V220H166.223ZM166.223 186.4V187.4H181.223V186.4V185.4H166.223V186.4ZM181.223 186.4H180.223V219.28H181.223H182.223V186.4H181.223ZM181.223 219.28H180.223C180.223 222.731 181.402 225.546 183.815 227.601L184.463 226.84L185.112 226.079C183.205 224.454 182.223 222.229 182.223 219.28H181.223ZM184.463 226.84L183.846 227.626C186.311 229.563 189.551 230.48 193.463 230.48V229.48V228.48C189.856 228.48 187.096 227.637 185.081 226.054L184.463 226.84ZM193.463 229.48V230.48H206.423V229.48V228.48H193.463V229.48ZM206.423 229.48H207.423V186.4H206.423H205.423V229.48H206.423ZM206.423 186.4V187.4H221.423V186.4V185.4H206.423V186.4ZM221.423 186.4H220.423V274H221.423H222.423V186.4H221.423ZM221.423 274V273H206.423V274V275H221.423V274ZM250.297 222.16H249.297V223.16H250.297V222.16ZM260.617 222.16V223.16H261.253L261.522 222.584L260.617 222.16ZM276.337 188.56L277.242 188.984L277.246 188.975L277.25 188.966L276.337 188.56ZM291.937 187.48L291.062 187.966L291.096 188.025L291.137 188.08L291.937 187.48ZM291.937 189.88L291.042 189.433L291.037 189.442L291.033 189.452L291.937 189.88ZM273.817 228.16L272.913 227.732L272.715 228.15L272.905 228.571L273.817 228.16ZM292.897 270.52L291.985 270.931L291.993 270.949L292.002 270.967L292.897 270.52ZM292.897 273.04L292.065 272.485L292.056 272.498L292.049 272.51L292.897 273.04ZM276.817 271.72L277.738 271.332L277.734 271.322L277.729 271.312L276.817 271.72ZM260.497 235.24L261.409 234.832L261.145 234.24H260.497V235.24ZM250.297 235.24V234.24H249.297V235.24H250.297ZM238.297 274V273C237.451 273 237 272.789 236.754 272.543C236.507 272.297 236.297 271.846 236.297 271H235.297H234.297C234.297 272.154 234.586 273.203 235.339 273.957C236.093 274.711 237.142 275 238.297 275V274ZM235.297 271H236.297V189.4H235.297H234.297V271H235.297ZM235.297 189.4H236.297C236.297 188.554 236.507 188.103 236.754 187.857C237 187.611 237.451 187.4 238.297 187.4V186.4V185.4C237.142 185.4 236.093 185.689 235.339 186.443C234.586 187.197 234.297 188.246 234.297 189.4H235.297ZM238.297 186.4V187.4H247.417V186.4V185.4H238.297V186.4ZM247.417 186.4V187.4C248.212 187.4 248.627 187.605 248.855 187.843C249.091 188.088 249.297 188.544 249.297 189.4H250.297H251.297C251.297 188.256 251.023 187.212 250.298 186.457C249.566 185.695 248.541 185.4 247.417 185.4V186.4ZM250.297 189.4H249.297V222.16H250.297H251.297V189.4H250.297ZM250.297 222.16V223.16H260.617V222.16V221.16H250.297V222.16ZM260.617 222.16L261.522 222.584L277.242 188.984L276.337 188.56L275.431 188.136L259.711 221.736L260.617 222.16ZM276.337 188.56L277.25 188.966C277.506 188.391 277.83 188.018 278.197 187.781C278.566 187.544 279.049 187.4 279.697 187.4V186.4V185.4C278.744 185.4 277.867 185.616 277.116 186.099C276.363 186.582 275.807 187.289 275.423 188.154L276.337 188.56ZM279.697 186.4V187.4H289.657V186.4V185.4H279.697V186.4ZM289.657 186.4V187.4C290.562 187.4 290.901 187.675 291.062 187.966L291.937 187.48L292.811 186.994C292.172 185.845 290.991 185.4 289.657 185.4V186.4ZM291.937 187.48L291.137 188.08C291.311 188.313 291.42 188.676 291.042 189.433L291.937 189.88L292.831 190.327C293.413 189.163 293.522 187.927 292.737 186.88L291.937 187.48ZM291.937 189.88L291.033 189.452L272.913 227.732L273.817 228.16L274.72 228.588L292.84 190.308L291.937 189.88ZM273.817 228.16L272.905 228.571L291.985 270.931L292.897 270.52L293.808 270.109L274.728 227.749L273.817 228.16ZM292.897 270.52L292.002 270.967C292.367 271.697 292.295 272.139 292.065 272.485L292.897 273.04L293.729 273.595C294.458 272.501 294.386 271.263 293.791 270.073L292.897 270.52ZM292.897 273.04L292.049 272.51C291.91 272.732 291.571 273 290.617 273V274V275C291.902 275 293.083 274.628 293.745 273.57L292.897 273.04ZM290.617 274V273H280.297V274V275H290.617V274ZM280.297 274V273C279.61 273 279.1 272.846 278.715 272.594C278.33 272.342 277.996 271.944 277.738 271.332L276.817 271.72L275.895 272.108C276.277 273.016 276.843 273.758 277.619 274.266C278.393 274.774 279.303 275 280.297 275V274ZM276.817 271.72L277.729 271.312L261.409 234.832L260.497 235.24L259.584 235.648L275.904 272.128L276.817 271.72ZM260.497 235.24V234.24H250.297V235.24V236.24H260.497V235.24ZM250.297 235.24H249.297V271H250.297H251.297V235.24H250.297ZM250.297 271H249.297C249.297 271.856 249.091 272.312 248.855 272.557C248.627 272.795 248.212 273 247.417 273V274V275C248.541 275 249.566 274.705 250.298 273.943C251.023 273.188 251.297 272.144 251.297 271H250.297ZM247.417 274V273H238.297V274V275H247.417V274ZM298.49 270.76L299.458 271.011L299.46 271.003L298.49 270.76ZM319.01 188.92L319.98 189.163L319.982 189.152L319.01 188.92ZM339.53 188.92L338.557 189.152L338.56 189.165L339.53 188.92ZM360.17 270.76L359.2 271.005L359.202 271.011L360.17 270.76ZM345.29 271.36L346.274 271.181L346.269 271.157L346.264 271.134L345.29 271.36ZM340.97 252.76L341.944 252.534L341.764 251.76H340.97V252.76ZM317.69 252.76V251.76H316.89L316.714 252.54L317.69 252.76ZM313.49 271.36L314.465 271.582L314.465 271.58L313.49 271.36ZM320.45 240.52L319.474 240.302L319.202 241.52H320.45V240.52ZM338.21 240.52V241.52H339.459L339.185 240.301L338.21 240.52ZM332.93 217L333.905 216.781L333.902 216.768L332.93 217ZM331.85 212.32L330.863 212.484L330.868 212.511L330.874 212.537L331.85 212.32ZM331.13 208.24L332.113 208.056L332.109 208.039L332.106 208.023L331.13 208.24ZM329.45 205.6L329.002 206.494L329.04 206.513L329.078 206.528L329.45 205.6ZM327.89 206.8L326.909 206.604L326.905 206.624L326.902 206.644L327.89 206.8ZM326.93 211.6L325.957 211.368L325.952 211.391L325.947 211.413L326.93 211.6ZM325.73 216.88L324.762 216.628L324.758 216.645L324.754 216.662L325.73 216.88ZM301.01 274V273C300.003 273 299.626 272.752 299.489 272.576C299.354 272.402 299.207 271.979 299.458 271.011L298.49 270.76L297.522 270.509C297.213 271.701 297.206 272.898 297.91 273.804C298.614 274.708 299.776 275 301.01 275V274ZM298.49 270.76L299.46 271.003L319.98 189.163L319.01 188.92L318.04 188.677L297.52 270.517L298.49 270.76ZM319.01 188.92L319.982 189.152C320.144 188.474 320.416 188.066 320.734 187.819C321.053 187.571 321.528 187.4 322.25 187.4V186.4V185.4C321.212 185.4 320.266 185.649 319.506 186.241C318.743 186.834 318.275 187.686 318.037 188.688L319.01 188.92ZM322.25 186.4V187.4H336.29V186.4V185.4H322.25V186.4ZM336.29 186.4V187.4C337.012 187.4 337.486 187.571 337.806 187.819C338.123 188.066 338.395 188.474 338.557 189.152L339.53 188.92L340.503 188.688C340.264 187.686 339.796 186.834 339.034 186.241C338.273 185.649 337.328 185.4 336.29 185.4V186.4ZM339.53 188.92L338.56 189.165L359.2 271.005L360.17 270.76L361.139 270.515L340.499 188.675L339.53 188.92ZM360.17 270.76L359.202 271.011C359.453 271.979 359.306 272.402 359.17 272.576C359.034 272.752 358.656 273 357.65 273V274V275C358.883 275 360.046 274.708 360.749 273.804C361.454 272.898 361.447 271.701 361.138 270.509L360.17 270.76ZM357.65 274V273H348.41V274V275H357.65V274ZM348.41 274V273C347.696 273 347.248 272.824 346.956 272.577C346.661 272.328 346.405 271.905 346.274 271.181L345.29 271.36L344.306 271.539C344.494 272.575 344.918 273.472 345.664 274.103C346.412 274.736 347.364 275 348.41 275V274ZM345.29 271.36L346.264 271.134L341.944 252.534L340.97 252.76L339.996 252.986L344.316 271.586L345.29 271.36ZM340.97 252.76V251.76H317.69V252.76V253.76H340.97V252.76ZM317.69 252.76L316.714 252.54L312.514 271.14L313.49 271.36L314.465 271.58L318.665 252.98L317.69 252.76ZM313.49 271.36L312.515 271.138C312.349 271.866 312.07 272.303 311.748 272.565C311.429 272.825 310.961 273 310.25 273V274V275C311.298 275 312.25 274.735 313.011 274.115C313.77 273.497 314.23 272.614 314.465 271.582L313.49 271.36ZM310.25 274V273H301.01V274V275H310.25V274ZM320.45 240.52V241.52H338.21V240.52V239.52H320.45V240.52ZM338.21 240.52L339.185 240.301L333.905 216.781L332.93 217L331.954 217.219L337.234 240.739L338.21 240.52ZM332.93 217L333.902 216.768C333.503 215.092 333.145 213.537 332.826 212.103L331.85 212.32L330.874 212.537C331.195 213.983 331.556 215.548 331.957 217.232L332.93 217ZM331.85 212.32L332.836 212.156C332.595 210.71 332.354 209.343 332.113 208.056L331.13 208.24L330.147 208.424C330.385 209.697 330.624 211.05 330.863 212.484L331.85 212.32ZM331.13 208.24L332.106 208.023C331.765 206.489 331.095 205.181 329.821 204.672L329.45 205.6L329.078 206.528C329.404 206.659 329.854 207.111 330.154 208.457L331.13 208.24ZM329.45 205.6L329.897 204.706C329.299 204.407 328.524 204.289 327.85 204.807C327.29 205.238 327.04 205.948 326.909 206.604L327.89 206.8L328.87 206.996C328.92 206.748 328.976 206.583 329.025 206.479C329.075 206.374 329.101 206.369 329.069 206.393C329.023 206.428 328.956 206.45 328.902 206.45C328.867 206.45 328.894 206.44 329.002 206.494L329.45 205.6ZM327.89 206.8L326.902 206.644C326.666 208.136 326.352 209.71 325.957 211.368L326.93 211.6L327.902 211.832C328.308 210.13 328.633 208.504 328.877 206.956L327.89 206.8ZM326.93 211.6L325.947 211.413C325.632 213.069 325.237 214.807 324.762 216.628L325.73 216.88L326.697 217.132C327.182 215.273 327.587 213.491 327.912 211.787L326.93 211.6ZM325.73 216.88L324.754 216.662L319.474 240.302L320.45 240.52L321.426 240.738L326.706 217.098L325.73 216.88Z" fill="black" mask="url(#path-1-outside-1_124_3685)"/>
<path d="M188.5 0.5C264.516 0.5 333.311 15.9348 383.084 40.8662C432.886 65.8125 463.5 100.183 463.5 138C463.5 175.817 432.886 210.187 383.084 235.134C333.311 260.065 264.516 275.5 188.5 275.5C112.484 275.5 43.6886 260.065 -6.08398 235.134C-55.8862 210.187 -86.5 175.817 -86.5 138C-86.5 100.183 -55.8862 65.8125 -6.08398 40.8662C43.6886 15.9348 112.484 0.5 188.5 0.5Z" stroke="black"/>
</svg>
