<svg width="73" height="348" viewBox="0 0 73 348" fill="none" xmlns="http://www.w3.org/2000/svg">
<mask id="path-1-outside-1_63_5191" maskUnits="userSpaceOnUse" x="-0.480469" y="-0.263184" width="73" height="348" fill="black">
<rect fill="white" x="-0.480469" y="-0.263184" width="73" height="348"/>
<path d="M37.5195 314.13L28.5435 310.53L2.47953 320.754L2.47953 314.226L17.9355 308.946C18.8315 308.626 19.7755 308.354 20.7675 308.13C21.7275 307.874 22.5115 307.714 23.1195 307.65C22.5115 307.586 21.7275 307.458 20.7675 307.266C19.7755 307.042 18.8315 306.802 17.9355 306.546L2.47953 301.698L2.47953 295.314L37.5195 307.794V314.13ZM37.5195 291.828H2.47953L2.47953 270.516H37.5195V276.516H7.90353L7.90353 285.828H37.5195V291.828ZM37.9995 254.311C37.9995 257.671 37.0395 260.343 35.1195 262.327C33.1995 264.279 30.5435 265.255 27.1515 265.255H12.8475C9.45553 265.255 6.79953 264.279 4.87953 262.327C2.95953 260.343 1.99953 257.671 1.99953 254.311C1.99953 250.951 2.95953 248.295 4.87953 246.343C6.79953 244.359 9.43953 243.367 12.7995 243.367H27.1515C30.5435 243.367 33.1995 244.359 35.1195 246.343C37.0395 248.295 37.9995 250.951 37.9995 254.311ZM32.7195 254.311C32.7195 252.679 32.2875 251.447 31.4235 250.615C30.5275 249.783 29.2635 249.367 27.6315 249.367H12.3675C10.7355 249.367 9.48753 249.783 8.62353 250.615C7.72753 251.447 7.27953 252.679 7.27953 254.311C7.27953 255.943 7.72753 257.175 8.62353 258.007C9.48753 258.839 10.7355 259.255 12.3675 259.255H27.6315C29.2635 259.255 30.5275 258.839 31.4235 258.007C32.2875 257.175 32.7195 255.943 32.7195 254.311ZM37.5195 229.274C37.5195 230.074 37.1195 230.474 36.3195 230.474H7.90353L7.90353 238.442C7.90353 239.242 7.50353 239.642 6.70353 239.642H3.67953C2.87953 239.642 2.47953 239.242 2.47953 238.442L2.47953 216.458C2.47953 215.658 2.87953 215.258 3.67953 215.258H6.70353C7.50353 215.258 7.90353 215.658 7.90353 216.458L7.90353 224.426H36.3195C37.1195 224.426 37.5195 224.826 37.5195 225.626V229.274ZM37.5195 210.141C37.5195 210.909 37.1195 211.293 36.3195 211.293H3.67953C2.87953 211.293 2.47953 210.909 2.47953 210.141L2.47953 199.629C2.47953 197.293 2.92753 195.261 3.82353 193.533C4.71953 191.773 5.98353 190.413 7.61553 189.453C9.21553 188.493 11.1035 188.013 13.2795 188.013C15.4555 188.013 17.3595 188.493 18.9915 189.453C20.5915 190.413 21.8395 191.773 22.7355 193.533C23.6315 195.261 24.0795 197.293 24.0795 199.629V205.293H36.3195C37.1195 205.293 37.5195 205.693 37.5195 206.493V210.141ZM18.7995 205.293V199.629C18.7995 197.933 18.2875 196.589 17.2635 195.597C16.2395 194.605 14.9115 194.109 13.2795 194.109C11.6475 194.109 10.3195 194.605 9.29553 195.597C8.27153 196.589 7.75953 197.933 7.75953 199.629L7.75953 204.093C7.75953 204.893 8.14353 205.293 8.91153 205.293H18.7995ZM37.5195 182.703C37.5195 183.503 37.1195 183.903 36.3195 183.903H3.67953C2.87953 183.903 2.47953 183.503 2.47953 182.703L2.47953 164.079C2.47953 163.279 2.87953 162.879 3.67953 162.879H6.55953C7.35953 162.879 7.75953 163.279 7.75953 164.079L7.75953 176.799C7.75953 177.599 8.15953 177.999 8.95953 177.999H16.8795V165.759C16.8795 164.959 17.2635 164.559 18.0315 164.559H20.7675C21.5675 164.559 21.9675 164.959 21.9675 165.759L21.9675 177.999H31.0395C31.8395 177.999 32.2395 177.599 32.2395 176.799V164.079C32.2395 163.279 32.6395 162.879 33.4395 162.879H36.3195C37.1195 162.879 37.5195 163.279 37.5195 164.079V182.703ZM37.5195 157.522H2.47953L2.47953 136.498H7.90353L7.90353 151.666H16.2555V146.53C16.2555 144.194 16.7035 142.162 17.5995 140.434C18.4635 138.706 19.6955 137.362 21.2955 136.402C22.8635 135.442 24.7035 134.962 26.8155 134.962C28.9275 134.962 30.7835 135.442 32.3835 136.402C33.9835 137.362 35.2475 138.706 36.1755 140.434C37.0715 142.13 37.5195 144.146 37.5195 146.482V157.522ZM32.2395 151.666L32.2395 146.482C32.2395 144.818 31.7435 143.506 30.7515 142.546C29.7595 141.554 28.4475 141.058 26.8155 141.058C25.1515 141.058 23.8395 141.554 22.8795 142.546C21.8875 143.506 21.3915 144.818 21.3915 146.482L21.3915 151.666H32.2395ZM37.5195 130.949H2.47953L2.47953 125.477H19.6155C20.7675 125.477 22.0315 125.509 23.4075 125.573C24.7835 125.637 26.1275 125.717 27.4395 125.813C28.7515 125.909 29.8715 125.989 30.7995 126.053L2.47953 116.405L2.47953 109.061H37.5195V114.533H20.9115C19.7915 114.533 18.5115 114.501 17.0715 114.437C15.6315 114.341 14.2235 114.245 12.8475 114.149C11.4395 114.053 10.2235 113.957 9.19953 113.861L37.5195 123.605V130.949ZM37.5195 94.9677C37.5195 95.7677 37.1195 96.1677 36.3195 96.1677H7.90353L7.90353 104.136C7.90353 104.936 7.50353 105.336 6.70353 105.336H3.67953C2.87953 105.336 2.47953 104.936 2.47953 104.136L2.47953 82.1517C2.47953 81.3517 2.87953 80.9517 3.67953 80.9517H6.70353C7.50353 80.9517 7.90353 81.3517 7.90353 82.1517L7.90353 90.1197H36.3195C37.1195 90.1197 37.5195 90.5197 37.5195 91.3197V94.9677ZM37.5195 76.9384H2.47953L2.47953 70.9384H16.1595L16.1595 65.4184C16.1595 63.0504 16.6075 61.0024 17.5035 59.2744C18.3995 57.5144 19.6635 56.1544 21.2955 55.1944C22.8955 54.2024 24.7515 53.7064 26.8635 53.7064C28.9755 53.7064 30.8315 54.2024 32.4315 55.1944C34.0315 56.1544 35.2795 57.5144 36.1755 59.2744C37.0715 61.0024 37.5195 63.0504 37.5195 65.4184L37.5195 76.9384ZM32.2395 70.9384V65.5144C32.2395 63.7864 31.7435 62.4104 30.7515 61.3864C29.7595 60.3304 28.4795 59.8024 26.9115 59.8024C25.3115 59.8024 23.9995 60.3304 22.9755 61.3864C21.9515 62.4104 21.4395 63.7864 21.4395 65.5144V70.9384H32.2395ZM70.5195 344.399C70.5195 345.199 70.1195 345.599 69.3195 345.599H36.6795C35.8795 345.599 35.4795 345.199 35.4795 344.399V334.847C35.4795 331.487 36.2955 328.815 37.9275 326.831C39.5595 324.815 41.7515 323.807 44.5035 323.807C46.4235 323.807 48.0715 324.367 49.4475 325.487C50.8235 326.575 51.6555 327.999 51.9435 329.759H52.0395C52.1995 328.447 52.6795 327.279 53.4795 326.255C54.2475 325.231 55.2555 324.431 56.5035 323.855C57.7195 323.279 59.0635 322.991 60.5355 322.991C62.5515 322.991 64.3115 323.455 65.8155 324.383C67.3195 325.311 68.4875 326.623 69.3195 328.319C70.1195 330.015 70.5195 332.015 70.5195 334.319V344.399ZM49.9275 339.743V334.943C49.9275 333.375 49.5115 332.127 48.6795 331.199C47.8155 330.271 46.6475 329.807 45.1755 329.807C43.7355 329.807 42.5995 330.271 41.7675 331.199C40.9035 332.095 40.4715 333.343 40.4715 334.943V338.591C40.4715 339.359 40.8715 339.743 41.6715 339.743H49.9275ZM64.3275 339.743C65.1275 339.743 65.5275 339.359 65.5275 338.591V334.655C65.5275 332.895 65.0635 331.519 64.1355 330.527C63.1755 329.503 61.8795 328.991 60.2475 328.991C58.6155 328.991 57.3035 329.503 56.3115 330.527C55.2875 331.519 54.7755 332.895 54.7755 334.655V339.743H64.3275ZM70.5195 282.996C70.5195 283.796 70.1195 284.196 69.3195 284.196H40.9035L40.9035 292.164C40.9035 292.964 40.5035 293.364 39.7035 293.364H36.6795C35.8795 293.364 35.4795 292.964 35.4795 292.164V270.18C35.4795 269.38 35.8795 268.98 36.6795 268.98H39.7035C40.5035 268.98 40.9035 269.38 40.9035 270.18V278.148H69.3195C70.1195 278.148 70.5195 278.548 70.5195 279.348V282.996ZM70.5195 263.287C70.5195 264.087 70.1195 264.487 69.3195 264.487H36.6795C35.8795 264.487 35.4795 264.087 35.4795 263.287V244.663C35.4795 243.863 35.8795 243.463 36.6795 243.463H39.5595C40.3595 243.463 40.7595 243.863 40.7595 244.663V257.383C40.7595 258.183 41.1595 258.583 41.9595 258.583H49.8795V246.343C49.8795 245.543 50.2635 245.143 51.0315 245.143H53.7675C54.5675 245.143 54.9675 245.543 54.9675 246.343V258.583H64.0395C64.8395 258.583 65.2395 258.183 65.2395 257.383V244.663C65.2395 243.863 65.6395 243.463 66.4395 243.463H69.3195C70.1195 243.463 70.5195 243.863 70.5195 244.663V263.287ZM70.5195 222.89H58.0875V228.794C58.0875 231.994 57.2875 234.49 55.6875 236.282C54.0555 238.074 51.7995 238.97 48.9195 238.97H35.4795V232.97H48.6315C49.9115 232.97 50.9195 232.538 51.6555 231.674C52.3595 230.778 52.7115 229.578 52.7115 228.074V222.89H35.4795V216.89H70.5195L70.5195 222.89ZM70.5195 209.565C70.5195 210.365 70.1195 210.765 69.3195 210.765H36.6795C35.8795 210.765 35.4795 210.365 35.4795 209.565V190.941C35.4795 190.141 35.8795 189.741 36.6795 189.741H39.5595C40.3595 189.741 40.7595 190.141 40.7595 190.941L40.7595 203.661C40.7595 204.461 41.1595 204.861 41.9595 204.861H49.8795L49.8795 192.621C49.8795 191.821 50.2635 191.421 51.0315 191.421H53.7675C54.5675 191.421 54.9675 191.821 54.9675 192.621L54.9675 204.861H64.0395C64.8395 204.861 65.2395 204.461 65.2395 203.661V190.941C65.2395 190.141 65.6395 189.741 66.4395 189.741H69.3195C70.1195 189.741 70.5195 190.141 70.5195 190.941V209.565ZM70.5195 183.231C70.5195 184.031 70.1195 184.431 69.3195 184.431H36.6795C35.8795 184.431 35.4795 184.031 35.4795 183.231V179.583C35.4795 178.815 35.8795 178.431 36.6795 178.431H49.6875V169.023H36.6795C35.8795 169.023 35.4795 168.639 35.4795 167.871V164.223C35.4795 163.423 35.8795 163.023 36.6795 163.023H69.3195C70.1195 163.023 70.5195 163.423 70.5195 164.223V167.871C70.5195 168.639 70.1195 169.023 69.3195 169.023H55.1115V178.431H69.3195C70.1195 178.431 70.5195 178.815 70.5195 179.583V183.231ZM70.5195 157.81H35.4795V152.338H52.6155C53.7675 152.338 55.0315 152.37 56.4075 152.434C57.7835 152.498 59.1275 152.578 60.4395 152.674C61.7515 152.77 62.8715 152.85 63.7995 152.914L35.4795 143.266V135.922H70.5195L70.5195 141.394H53.9115C52.7915 141.394 51.5115 141.362 50.0715 141.298C48.6315 141.202 47.2235 141.106 45.8475 141.01C44.4395 140.914 43.2235 140.818 42.1995 140.722L70.5195 150.466V157.81ZM70.5195 130.949H35.4795L35.4795 125.477H52.6155C53.7675 125.477 55.0315 125.509 56.4075 125.573C57.7835 125.637 59.1275 125.717 60.4395 125.813C61.7515 125.909 62.8715 125.989 63.7995 126.053L35.4795 116.405V109.061H70.5195V114.533H53.9115C52.7915 114.533 51.5115 114.501 50.0715 114.437C48.6315 114.341 47.2235 114.245 45.8475 114.149C44.4395 114.053 43.2235 113.957 42.1995 113.861L70.5195 123.605V130.949ZM70.5195 76.1704C70.5195 76.8104 70.1995 77.1304 69.5595 77.1304H65.7675C65.3515 77.1304 64.9675 76.9704 64.6155 76.6504L52.1835 64.5064C50.0395 62.4584 47.8635 61.4344 45.6555 61.4344C44.0875 61.4344 42.8235 61.8984 41.8635 62.8264C40.8715 63.7224 40.3755 64.9384 40.3755 66.4744C40.3755 67.8824 40.7915 69.0504 41.6235 69.9784C42.4555 70.9064 43.5595 71.4504 44.9355 71.6104C45.5755 71.6744 45.8955 71.9944 45.8955 72.5704V76.6984C45.8955 77.3704 45.5595 77.6744 44.8875 77.6104C42.9035 77.4504 41.1755 76.8904 39.7035 75.9304C38.1995 74.9384 37.0475 73.6264 36.2475 71.9944C35.4155 70.3304 34.9995 68.4424 34.9995 66.3304C34.9995 64.1224 35.4315 62.1864 36.2955 60.5224C37.1595 58.8584 38.3755 57.5784 39.9435 56.6824C41.4795 55.7544 43.2875 55.2904 45.3675 55.2904C47.1595 55.2904 48.9515 55.7224 50.7435 56.5864C52.5355 57.4184 54.3915 58.8104 56.3115 60.7624L63.8955 68.3944C64.1835 68.6824 64.4555 68.7784 64.7115 68.6824C64.9675 68.5864 65.0955 68.3304 65.0955 67.9144V55.8184C65.0955 55.1784 65.4155 54.8584 66.0555 54.8584H69.5595C70.1995 54.8584 70.5195 55.1784 70.5195 55.8184V76.1704ZM70.5195 34.5252C70.5195 35.1652 70.1995 35.4852 69.5595 35.4852H63.5595V50.0292C63.5595 50.6692 63.2395 50.9892 62.5995 50.9892H55.5435C55.1595 50.9892 54.7595 50.8612 54.3435 50.6052L36.1035 38.4612C35.6875 38.1732 35.4795 37.7892 35.4795 37.3092V32.7492C35.4795 32.3652 35.5915 32.1252 35.8155 32.0292C36.0395 31.9012 36.3115 31.9332 36.6315 32.1252L55.9275 44.8932C56.3435 45.1172 56.7435 45.2292 57.1275 45.2292H57.3195C57.9595 45.2292 58.2795 44.9092 58.2795 44.2692V35.4852H51.3195C50.6795 35.4852 50.3595 35.1652 50.3595 34.5252V30.3972C50.3595 29.7572 50.6795 29.4372 51.3195 29.4372H69.5595C70.1995 29.4372 70.5195 29.7572 70.5195 30.3972V34.5252ZM70.5195 7.99996H58.0875V13.904C58.0875 17.104 57.2875 19.6 55.6875 21.392C54.0555 23.184 51.7995 24.08 48.9195 24.08H35.4795V18.08H48.6315C49.9115 18.08 50.9195 17.648 51.6555 16.784C52.3595 15.888 52.7115 14.688 52.7115 13.184V7.99996H35.4795V1.99996H70.5195V7.99996Z"/>
</mask>
<path d="M37.5195 314.13L36.775 315.986L39.5195 317.087V314.13H37.5195ZM28.5435 310.53L29.288 308.673L28.5517 308.378L27.8132 308.668L28.5435 310.53ZM2.47953 320.754H0.47953L0.47953 323.687L3.20988 322.616L2.47953 320.754ZM2.47953 314.226L1.83298 312.333L0.47953 312.795L0.47953 314.226H2.47953ZM17.9355 308.946L18.5821 310.838L18.5952 310.834L18.6082 310.829L17.9355 308.946ZM20.7675 308.13L21.2081 310.081L21.2456 310.072L21.2829 310.062L20.7675 308.13ZM23.1195 307.65L23.3289 309.639L23.3289 305.661L23.1195 307.65ZM20.7675 307.266L20.327 309.217L20.3511 309.222L20.3753 309.227L20.7675 307.266ZM17.9355 306.546L17.337 308.454L17.3614 308.462L17.3861 308.469L17.9355 306.546ZM2.47953 301.698H0.47953L0.47953 303.166L1.88095 303.606L2.47953 301.698ZM2.47953 295.314L3.15057 293.43L0.47953 292.478L0.47953 295.314H2.47953ZM37.5195 307.794H39.5195V306.383L38.1906 305.91L37.5195 307.794ZM37.5195 314.13L38.264 312.273L29.288 308.673L28.5435 310.53L27.799 312.386L36.775 315.986L37.5195 314.13ZM28.5435 310.53L27.8132 308.668L1.74918 318.892L2.47953 320.754L3.20988 322.616L29.2739 312.392L28.5435 310.53ZM2.47953 320.754H4.47953L4.47953 314.226H2.47953H0.47953L0.47953 320.754H2.47953ZM2.47953 314.226L3.12608 316.118L18.5821 310.838L17.9355 308.946L17.289 307.053L1.83298 312.333L2.47953 314.226ZM17.9355 308.946L18.6082 310.829C19.4233 310.538 20.2894 310.288 21.2081 310.081L20.7675 308.13L20.327 306.179C19.2617 306.419 18.2398 306.713 17.2629 307.062L17.9355 308.946ZM20.7675 308.13L21.2829 310.062C22.1962 309.819 22.8677 309.687 23.3289 309.639L23.1195 307.65L22.9102 305.661C22.1553 305.74 21.2588 305.929 20.2522 306.197L20.7675 308.13ZM23.1195 307.65L23.3289 305.661C22.8074 305.606 22.0905 305.491 21.1598 305.305L20.7675 307.266L20.3753 309.227C21.3645 309.425 22.2157 309.566 22.9102 309.639L23.1195 307.65ZM20.7675 307.266L21.2081 305.315C20.2493 305.098 19.3419 304.867 18.485 304.623L17.9355 306.546L17.3861 308.469C18.3212 308.736 19.3017 308.985 20.327 309.217L20.7675 307.266ZM17.9355 306.546L18.5341 304.637L3.07811 299.789L2.47953 301.698L1.88095 303.606L17.337 308.454L17.9355 306.546ZM2.47953 301.698H4.47953L4.47953 295.314H2.47953H0.47953L0.47953 301.698H2.47953ZM2.47953 295.314L1.80849 297.198L36.8485 309.678L37.5195 307.794L38.1906 305.91L3.15057 293.43L2.47953 295.314ZM37.5195 307.794H35.5195V314.13H37.5195H39.5195V307.794H37.5195ZM37.5195 291.828V293.828H39.5195V291.828H37.5195ZM2.47953 291.828H0.47953L0.47953 293.828H2.47953L2.47953 291.828ZM2.47953 270.516V268.516H0.47953V270.516H2.47953ZM37.5195 270.516H39.5195V268.516H37.5195V270.516ZM37.5195 276.516V278.516H39.5195V276.516H37.5195ZM7.90353 276.516V274.516H5.90353V276.516H7.90353ZM7.90353 285.828H5.90353V287.828H7.90353V285.828ZM37.5195 285.828H39.5195L39.5195 283.828H37.5195L37.5195 285.828ZM37.5195 291.828V289.828H2.47953V291.828L2.47953 293.828H37.5195V291.828ZM2.47953 291.828H4.47953L4.47953 270.516H2.47953H0.47953L0.47953 291.828H2.47953ZM2.47953 270.516L2.47953 272.516H37.5195V270.516V268.516H2.47953V270.516ZM37.5195 270.516H35.5195V276.516H37.5195H39.5195V270.516H37.5195ZM37.5195 276.516V274.516H7.90353V276.516L7.90353 278.516H37.5195V276.516ZM7.90353 276.516H5.90353L5.90353 285.828H7.90353H9.90353L9.90353 276.516H7.90353ZM7.90353 285.828V287.828H37.5195V285.828L37.5195 283.828H7.90353V285.828ZM37.5195 285.828H35.5195V291.828H37.5195H39.5195V285.828H37.5195ZM35.1195 262.327L36.5454 263.73L36.5511 263.724L36.5567 263.718L35.1195 262.327ZM4.87953 262.327L3.44233 263.718L3.44798 263.724L3.45368 263.73L4.87953 262.327ZM4.87953 246.343L6.30538 247.746L6.31108 247.74L6.31673 247.734L4.87953 246.343ZM35.1195 246.343L33.6823 247.734L33.688 247.74L33.6937 247.746L35.1195 246.343ZM31.4235 250.615L32.8108 249.175L32.7977 249.162L32.7844 249.15L31.4235 250.615ZM8.62353 250.615L9.98443 252.081L9.99773 252.068L10.0108 252.056L8.62353 250.615ZM8.62353 258.007L10.0108 256.567L9.99773 256.554L9.98443 256.542L8.62353 258.007ZM31.4235 258.007L32.7844 259.473L32.7977 259.46L32.8108 259.448L31.4235 258.007ZM37.9995 254.311H35.9995C35.9995 257.272 35.1661 259.403 33.6823 260.936L35.1195 262.327L36.5567 263.718C38.913 261.283 39.9995 258.071 39.9995 254.311H37.9995ZM35.1195 262.327L33.6937 260.925C32.2354 262.407 30.1434 263.255 27.1515 263.255V265.255V267.255C30.9437 267.255 34.1637 266.151 36.5454 263.73L35.1195 262.327ZM27.1515 265.255V263.255H12.8475V265.255V267.255H27.1515V265.255ZM12.8475 265.255V263.255C9.85567 263.255 7.76368 262.407 6.30538 260.925L4.87953 262.327L3.45368 263.73C5.83539 266.151 9.05539 267.255 12.8475 267.255V265.255ZM4.87953 262.327L6.31673 260.936C4.83301 259.403 3.99953 257.272 3.99953 254.311H1.99953H-0.000469208C-0.000469208 258.071 1.08605 261.283 3.44233 263.718L4.87953 262.327ZM1.99953 254.311H3.99953C3.99953 251.35 4.83333 249.242 6.30538 247.746L4.87953 246.343L3.45368 244.941C1.08573 247.348 -0.000469208 250.553 -0.000469208 254.311H1.99953ZM4.87953 246.343L6.31673 247.734C7.78055 246.221 9.85541 245.367 12.7995 245.367V243.367V241.367C9.02365 241.367 5.81851 242.497 3.44233 244.952L4.87953 246.343ZM12.7995 243.367V245.367H27.1515V243.367V241.367H12.7995V243.367ZM27.1515 243.367V245.367C30.134 245.367 32.2221 246.225 33.6823 247.734L35.1195 246.343L36.5567 244.952C34.177 242.493 30.9531 241.367 27.1515 241.367V243.367ZM35.1195 246.343L33.6937 247.746C35.1657 249.242 35.9995 251.35 35.9995 254.311H37.9995H39.9995C39.9995 250.553 38.9133 247.348 36.5454 244.941L35.1195 246.343ZM32.7195 254.311H34.7195C34.7195 252.338 34.1913 250.504 32.8108 249.175L31.4235 250.615L30.0362 252.056C30.3837 252.39 30.7195 253.02 30.7195 254.311H32.7195ZM31.4235 250.615L32.7844 249.15C31.4089 247.872 29.5958 247.367 27.6315 247.367V249.367V251.367C28.9313 251.367 29.6461 251.694 30.0626 252.081L31.4235 250.615ZM27.6315 249.367V247.367H12.3675L12.3675 249.367V251.367H27.6315V249.367ZM12.3675 249.367L12.3675 247.367C10.4084 247.367 8.59053 247.87 7.23624 249.175L8.62353 250.615L10.0108 252.056C10.3845 251.696 11.0626 251.367 12.3675 251.367V249.367ZM8.62353 250.615L7.26263 249.15C5.8356 250.475 5.27953 252.318 5.27953 254.311H7.27953H9.27953C9.27953 253.041 9.61946 252.42 9.98443 252.081L8.62353 250.615ZM7.27953 254.311H5.27953C5.27953 256.305 5.8356 258.148 7.26263 259.473L8.62353 258.007L9.98443 256.542C9.61946 256.203 9.27953 255.582 9.27953 254.311H7.27953ZM8.62353 258.007L7.23625 259.448C8.59053 260.752 10.4084 261.255 12.3675 261.255V259.255L12.3675 257.255C11.0626 257.255 10.3845 256.926 10.0108 256.567L8.62353 258.007ZM12.3675 259.255V261.255H27.6315V259.255V257.255H12.3675L12.3675 259.255ZM27.6315 259.255V261.255C29.5958 261.255 31.4089 260.75 32.7844 259.473L31.4235 258.007L30.0626 256.542C29.6461 256.928 28.9313 257.255 27.6315 257.255V259.255ZM31.4235 258.007L32.8108 259.448C34.1913 258.118 34.7195 256.284 34.7195 254.311H32.7195H30.7195C30.7195 255.602 30.3837 256.232 30.0362 256.567L31.4235 258.007ZM7.90353 230.474L7.90353 228.474H5.90353V230.474H7.90353ZM7.90353 224.426H5.90353L5.90353 226.426H7.90353V224.426ZM37.5195 229.274H35.5195C35.5195 229.366 35.498 229.067 35.8053 228.76C36.1127 228.452 36.4112 228.474 36.3195 228.474V230.474V232.474C37.0278 232.474 37.9264 232.296 38.6337 231.588C39.3411 230.881 39.5195 229.982 39.5195 229.274H37.5195ZM36.3195 230.474V228.474H7.90353L7.90353 230.474V232.474H36.3195V230.474ZM7.90353 230.474H5.90353L5.90353 238.442H7.90353H9.90353L9.90353 230.474H7.90353ZM7.90353 238.442H5.90353C5.90353 238.534 5.88196 238.235 6.18932 237.928C6.49668 237.62 6.79524 237.642 6.70353 237.642L6.70353 239.642V241.642C7.41182 241.642 8.31038 241.464 9.01774 240.756C9.7251 240.049 9.90353 239.15 9.90353 238.442H7.90353ZM6.70353 239.642L6.70353 237.642H3.67953L3.67953 239.642V241.642H6.70353V239.642ZM3.67953 239.642L3.67953 237.642C3.58782 237.642 3.88638 237.62 4.19374 237.928C4.5011 238.235 4.47953 238.534 4.47953 238.442H2.47953H0.47953C0.47953 239.15 0.657955 240.049 1.36531 240.756C2.07267 241.464 2.97124 241.642 3.67953 241.642V239.642ZM2.47953 238.442H4.47953L4.47953 216.458H2.47953H0.47953L0.47953 238.442H2.47953ZM2.47953 216.458H4.47953C4.47953 216.366 4.5011 216.665 4.19374 216.972C3.88638 217.28 3.58782 217.258 3.67953 217.258V215.258L3.67953 213.258C2.97124 213.258 2.07268 213.436 1.36532 214.144C0.657959 214.851 0.47953 215.75 0.47953 216.458H2.47953ZM3.67953 215.258V217.258H6.70353V215.258L6.70353 213.258H3.67953L3.67953 215.258ZM6.70353 215.258V217.258C6.79524 217.258 6.49668 217.28 6.18932 216.972C5.88196 216.665 5.90353 216.366 5.90353 216.458H7.90353H9.90353C9.90353 215.75 9.7251 214.851 9.01774 214.144C8.31038 213.436 7.41182 213.258 6.70353 213.258L6.70353 215.258ZM7.90353 216.458H5.90353L5.90353 224.426H7.90353H9.90353V216.458H7.90353ZM7.90353 224.426V226.426H36.3195V224.426V222.426H7.90353L7.90353 224.426ZM36.3195 224.426V226.426C36.4112 226.426 36.1127 226.448 35.8053 226.14C35.498 225.833 35.5195 225.534 35.5195 225.626H37.5195H39.5195C39.5195 224.918 39.3411 224.019 38.6337 223.312C37.9264 222.604 37.0278 222.426 36.3195 222.426V224.426ZM37.5195 225.626H35.5195V229.274H37.5195H39.5195V225.626H37.5195ZM3.82353 193.533L5.59904 194.453L5.60247 194.447L5.60586 194.44L3.82353 193.533ZM7.61553 189.453L8.62957 191.177L8.63707 191.172L8.64452 191.168L7.61553 189.453ZM18.9915 189.453L20.0205 187.738L20.0131 187.733L20.0056 187.729L18.9915 189.453ZM22.7355 193.533L20.9532 194.44L20.9566 194.447L20.96 194.453L22.7355 193.533ZM24.0795 205.293H22.0795V207.293H24.0795V205.293ZM18.7995 205.293L18.7995 207.293H20.7995V205.293H18.7995ZM17.2635 195.597L15.8719 197.033H15.8719L17.2635 195.597ZM9.29553 195.597L10.6871 197.033H10.6871L9.29553 195.597ZM37.5195 210.141H35.5195C35.5195 210.195 35.5096 209.874 35.8345 209.562C36.1441 209.265 36.4312 209.293 36.3195 209.293V211.293V213.293C37.0079 213.293 37.895 213.129 38.6046 212.447C39.3294 211.752 39.5195 210.854 39.5195 210.141H37.5195ZM36.3195 211.293V209.293H3.67953L3.67953 211.293L3.67953 213.293H36.3195V211.293ZM3.67953 211.293L3.67953 209.293C3.56786 209.293 3.85498 209.265 4.16459 209.562C4.48944 209.874 4.47953 210.195 4.47953 210.141H2.47953H0.47953C0.47953 210.854 0.669624 211.752 1.39447 212.447C2.10408 213.129 2.9912 213.293 3.67953 213.293L3.67953 211.293ZM2.47953 210.141H4.47953L4.47953 199.629H2.47953H0.47953L0.47953 210.141H2.47953ZM2.47953 199.629H4.47953C4.47953 197.549 4.87728 195.845 5.59904 194.453L3.82353 193.533L2.04802 192.612C0.977779 194.676 0.47953 197.036 0.47953 199.629H2.47953ZM3.82353 193.533L5.60586 194.44C6.33668 193.005 7.34085 191.935 8.62957 191.177L7.61553 189.453L6.60149 187.729C4.62621 188.891 3.10238 190.541 2.0412 192.625L3.82353 193.533ZM7.61553 189.453L8.64452 191.168C9.88522 190.423 11.405 190.013 13.2795 190.013V188.013V186.013C10.8021 186.013 8.54585 186.562 6.58654 187.738L7.61553 189.453ZM13.2795 188.013V190.013C15.153 190.013 16.6963 190.423 17.9775 191.177L18.9915 189.453L20.0056 187.729C18.0227 186.562 15.7581 186.013 13.2795 186.013V188.013ZM18.9915 189.453L17.9625 191.168C19.2215 191.923 20.2171 192.994 20.9532 194.44L22.7355 193.533L24.5179 192.625C23.4619 190.551 21.9616 188.902 20.0205 187.738L18.9915 189.453ZM22.7355 193.533L20.96 194.453C21.6818 195.845 22.0795 197.549 22.0795 199.629H24.0795H26.0795C26.0795 197.036 25.5813 194.676 24.511 192.612L22.7355 193.533ZM24.0795 199.629H22.0795V205.293H24.0795H26.0795V199.629H24.0795ZM24.0795 205.293V207.293H36.3195V205.293V203.293H24.0795V205.293ZM36.3195 205.293V207.293C36.4112 207.293 36.1127 207.314 35.8053 207.007C35.498 206.7 35.5195 206.401 35.5195 206.493H37.5195H39.5195C39.5195 205.784 39.3411 204.886 38.6337 204.178C37.9264 203.471 37.0278 203.293 36.3195 203.293V205.293ZM37.5195 206.493H35.5195V210.141H37.5195H39.5195V206.493H37.5195ZM18.7995 205.293H20.7995V199.629H18.7995H16.7995V205.293H18.7995ZM18.7995 199.629H20.7995C20.7995 197.502 20.1409 195.6 18.6551 194.16L17.2635 195.597L15.8719 197.033C16.4341 197.578 16.7995 198.363 16.7995 199.629H18.7995ZM17.2635 195.597L18.6551 194.16C17.2035 192.754 15.3498 192.109 13.2795 192.109V194.109L13.2795 196.109C14.4733 196.109 15.2756 196.455 15.8719 197.033L17.2635 195.597ZM13.2795 194.109V192.109C11.2093 192.109 9.35555 192.754 7.90394 194.16L9.29553 195.597L10.6871 197.033C11.2835 196.455 12.0857 196.109 13.2795 196.109L13.2795 194.109ZM9.29553 195.597L7.90394 194.16C6.41813 195.6 5.75953 197.502 5.75953 199.629H7.75953H9.75953C9.75953 198.363 10.1249 197.578 10.6871 197.033L9.29553 195.597ZM7.75953 199.629H5.75953V204.093H7.75953H9.75953V199.629H7.75953ZM7.75953 204.093H5.75953C5.75953 204.781 5.92353 205.668 6.60476 206.378C7.3006 207.103 8.19799 207.293 8.91153 207.293V205.293V203.293C8.85707 203.293 9.17846 203.283 9.49031 203.608C9.78753 203.917 9.75953 204.204 9.75953 204.093H7.75953ZM8.91153 205.293V207.293H18.7995L18.7995 205.293V203.293H8.91153V205.293ZM16.8795 177.999V179.999H18.8795V177.999H16.8795ZM21.9675 177.999H19.9675V179.999H21.9675V177.999ZM37.5195 182.703H35.5195C35.5195 182.795 35.498 182.497 35.8053 182.189C36.1127 181.882 36.4112 181.903 36.3195 181.903V183.903V185.903C37.0278 185.903 37.9264 185.725 38.6337 185.018C39.3411 184.31 39.5195 183.412 39.5195 182.703H37.5195ZM36.3195 183.903V181.903H3.67953L3.67953 183.903L3.67953 185.903H36.3195V183.903ZM3.67953 183.903L3.67953 181.903C3.58782 181.903 3.88638 181.882 4.19374 182.189C4.5011 182.497 4.47953 182.795 4.47953 182.703H2.47953H0.47953C0.47953 183.412 0.657955 184.31 1.36531 185.018C2.07267 185.725 2.97124 185.903 3.67953 185.903L3.67953 183.903ZM2.47953 182.703H4.47953L4.47953 164.079H2.47953H0.47953L0.47953 182.703H2.47953ZM2.47953 164.079H4.47953C4.47953 163.988 4.5011 164.286 4.19374 164.594C3.88638 164.901 3.58782 164.879 3.67953 164.879L3.67953 162.879L3.67953 160.879C2.97124 160.879 2.07268 161.058 1.36532 161.765C0.657959 162.473 0.47953 163.371 0.47953 164.079H2.47953ZM3.67953 162.879L3.67953 164.879H6.55953L6.55953 162.879L6.55953 160.879H3.67953L3.67953 162.879ZM6.55953 162.879L6.55953 164.879C6.65124 164.879 6.35268 164.901 6.04532 164.594C5.73796 164.286 5.75953 163.988 5.75953 164.079H7.75953H9.75953C9.75953 163.371 9.5811 162.473 8.87374 161.765C8.16638 161.058 7.26782 160.879 6.55953 160.879L6.55953 162.879ZM7.75953 164.079H5.75953L5.75953 176.799H7.75953H9.75953L9.75953 164.079H7.75953ZM7.75953 176.799H5.75953C5.75953 177.508 5.93796 178.406 6.64532 179.114C7.35268 179.821 8.25124 179.999 8.95953 179.999V177.999V175.999C8.86782 175.999 9.16639 175.978 9.47375 176.285C9.78111 176.593 9.75953 176.891 9.75953 176.799H7.75953ZM8.95953 177.999V179.999H16.8795V177.999V175.999H8.95953V177.999ZM16.8795 177.999H18.8795V165.759H16.8795H14.8795L14.8795 177.999H16.8795ZM16.8795 165.759H18.8795C18.8795 165.648 18.9075 165.935 18.6103 166.245C18.2985 166.569 17.9771 166.559 18.0315 166.559V164.559L18.0315 162.559C17.318 162.559 16.4206 162.75 15.7248 163.474C15.0435 164.184 14.8795 165.071 14.8795 165.759H16.8795ZM18.0315 164.559V166.559H20.7675V164.559V162.559H18.0315L18.0315 164.559ZM20.7675 164.559V166.559C20.8592 166.559 20.5607 166.581 20.2533 166.274C19.946 165.966 19.9675 165.668 19.9675 165.759H21.9675H23.9675C23.9675 165.051 23.7891 164.153 23.0817 163.445C22.3744 162.738 21.4758 162.559 20.7675 162.559V164.559ZM21.9675 165.759H19.9675L19.9675 177.999H21.9675H23.9675L23.9675 165.759H21.9675ZM21.9675 177.999V179.999H31.0395V177.999V175.999H21.9675V177.999ZM31.0395 177.999V179.999C31.7478 179.999 32.6464 179.821 33.3537 179.114C34.0611 178.406 34.2395 177.508 34.2395 176.799H32.2395H30.2395C30.2395 176.891 30.218 176.593 30.5253 176.285C30.8327 175.978 31.1312 175.999 31.0395 175.999V177.999ZM32.2395 176.799H34.2395V164.079H32.2395H30.2395L30.2395 176.799H32.2395ZM32.2395 164.079H34.2395C34.2395 163.988 34.2611 164.286 33.9537 164.594C33.6464 164.901 33.3478 164.879 33.4395 164.879V162.879V160.879C32.7312 160.879 31.8327 161.058 31.1253 161.765C30.418 162.473 30.2395 163.371 30.2395 164.079H32.2395ZM33.4395 162.879V164.879H36.3195V162.879V160.879H33.4395V162.879ZM36.3195 162.879V164.879C36.4112 164.879 36.1127 164.901 35.8053 164.594C35.498 164.286 35.5195 163.988 35.5195 164.079H37.5195H39.5195C39.5195 163.371 39.3411 162.473 38.6337 161.765C37.9264 161.058 37.0278 160.879 36.3195 160.879V162.879ZM37.5195 164.079H35.5195V182.703H37.5195H39.5195V164.079H37.5195ZM37.5195 157.522L37.5195 159.522H39.5195L39.5195 157.522H37.5195ZM2.47953 157.522H0.47953L0.47953 159.522H2.47953V157.522ZM2.47953 136.498V134.498H0.47953L0.47953 136.498H2.47953ZM7.90353 136.498H9.90353V134.498H7.90353V136.498ZM7.90353 151.666H5.90353V153.666H7.90353V151.666ZM16.2555 151.666L16.2555 153.666H18.2555L18.2555 151.666H16.2555ZM17.5995 140.434L19.375 141.355L19.3818 141.342L19.3884 141.329L17.5995 140.434ZM21.2955 136.402L22.3245 138.117L22.3322 138.113L22.3398 138.108L21.2955 136.402ZM32.3835 136.402L31.3545 138.117H31.3545L32.3835 136.402ZM36.1755 140.434L37.944 139.5L37.9375 139.488L36.1755 140.434ZM32.2395 151.666V153.666H34.2395V151.666H32.2395ZM30.7515 142.546L29.3373 143.96L29.3489 143.972L29.3607 143.983L30.7515 142.546ZM22.8795 142.546L24.2704 143.983L24.2939 143.961L24.3167 143.937L22.8795 142.546ZM21.3915 151.666H19.3915L19.3915 153.666H21.3915V151.666ZM37.5195 157.522V155.522H2.47953L2.47953 157.522V159.522H37.5195L37.5195 157.522ZM2.47953 157.522H4.47953L4.47953 136.498H2.47953H0.47953L0.47953 157.522H2.47953ZM2.47953 136.498L2.47953 138.498H7.90353V136.498V134.498H2.47953V136.498ZM7.90353 136.498H5.90353L5.90353 151.666H7.90353H9.90353L9.90353 136.498H7.90353ZM7.90353 151.666V153.666H16.2555L16.2555 151.666V149.666H7.90353L7.90353 151.666ZM16.2555 151.666H18.2555V146.53H16.2555H14.2555V151.666H16.2555ZM16.2555 146.53H18.2555C18.2555 144.451 18.6533 142.747 19.375 141.355L17.5995 140.434L15.824 139.514C14.7538 141.578 14.2555 143.937 14.2555 146.53H16.2555ZM17.5995 140.434L19.3884 141.329C20.0886 139.928 21.0626 138.874 22.3245 138.117L21.2955 136.402L20.2665 134.687C18.3284 135.85 16.8384 137.484 15.8107 139.54L17.5995 140.434ZM21.2955 136.402L22.3398 138.108C23.549 137.368 25.0162 136.962 26.8155 136.962V134.962V132.962C24.3909 132.962 22.178 133.517 20.2512 134.696L21.2955 136.402ZM26.8155 134.962V136.962C28.6139 136.962 30.1048 137.367 31.3545 138.117L32.3835 136.402L33.4125 134.687C31.4623 133.517 29.2411 132.962 26.8155 132.962V134.962ZM32.3835 136.402L31.3545 138.117C32.6293 138.882 33.647 139.953 34.4135 141.38L36.1755 140.434L37.9375 139.488C36.848 137.459 35.3378 135.842 33.4125 134.687L32.3835 136.402ZM36.1755 140.434L34.4071 141.368C35.1213 142.72 35.5195 144.402 35.5195 146.482H37.5195H39.5195C39.5195 143.891 39.0217 141.54 37.9439 139.5L36.1755 140.434ZM37.5195 146.482H35.5195V157.522H37.5195H39.5195V146.482H37.5195ZM32.2395 151.666H34.2395L34.2395 146.482H32.2395H30.2395L30.2395 151.666H32.2395ZM32.2395 146.482H34.2395C34.2395 144.396 33.602 142.522 32.1424 141.109L30.7515 142.546L29.3607 143.983C29.8851 144.491 30.2395 145.24 30.2395 146.482H32.2395ZM30.7515 142.546L32.1657 141.132C30.7373 139.704 28.8844 139.058 26.8155 139.058V141.058V143.058C28.0107 143.058 28.7818 143.405 29.3373 143.96L30.7515 142.546ZM26.8155 141.058V139.058C24.7293 139.058 22.8549 139.696 21.4423 141.155L22.8795 142.546L24.3167 143.937C24.8242 143.413 25.5738 143.058 26.8155 143.058V141.058ZM22.8795 142.546L21.4887 141.109C20.0291 142.522 19.3915 144.396 19.3915 146.482H21.3915H23.3915C23.3915 145.24 23.746 144.491 24.2704 143.983L22.8795 142.546ZM21.3915 146.482H19.3915V151.666H21.3915H23.3915L23.3915 146.482H21.3915ZM21.3915 151.666V153.666H32.2395V151.666V149.666H21.3915V151.666ZM37.5195 130.949V132.949H39.5195V130.949H37.5195ZM2.47953 130.949H0.47953L0.47953 132.949H2.47953V130.949ZM2.47953 125.477L2.47953 123.477H0.47953L0.47953 125.477H2.47953ZM23.4075 125.573L23.5005 123.575V123.575L23.4075 125.573ZM27.4395 125.813L27.2936 127.808V127.808L27.4395 125.813ZM30.7995 126.053L30.6619 128.048L31.4445 124.16L30.7995 126.053ZM2.47953 116.405H0.47953V117.836L1.83458 118.298L2.47953 116.405ZM2.47953 109.061L2.47953 107.061H0.47953L0.47953 109.061H2.47953ZM37.5195 109.061H39.5195V107.061H37.5195V109.061ZM37.5195 114.533L37.5195 116.533H39.5195L39.5195 114.533H37.5195ZM17.0715 114.437L16.9385 116.433L16.9606 116.434L16.9827 116.435L17.0715 114.437ZM12.8475 114.149L12.9867 112.154L12.9836 112.154L12.8475 114.149ZM9.19953 113.861L9.38621 111.87L8.54883 115.752L9.19953 113.861ZM37.5195 123.605H39.5195V122.178L38.1702 121.714L37.5195 123.605ZM37.5195 130.949V128.949H2.47953L2.47953 130.949V132.949H37.5195V130.949ZM2.47953 130.949H4.47953L4.47953 125.477H2.47953H0.47953L0.47953 130.949H2.47953ZM2.47953 125.477V127.477H19.6155L19.6155 125.477V123.477H2.47953L2.47953 125.477ZM19.6155 125.477L19.6155 127.477C20.7313 127.477 21.9638 127.508 23.3146 127.571L23.4075 125.573L23.5005 123.575C22.0993 123.51 20.8038 123.477 19.6155 123.477V125.477ZM23.4075 125.573L23.3146 127.571C24.6737 127.634 26 127.713 27.2936 127.808L27.4395 125.813L27.5855 123.818C26.255 123.721 24.8933 123.64 23.5005 123.575L23.4075 125.573ZM27.4395 125.813L27.2936 127.808C28.6073 127.904 29.7303 127.984 30.6619 128.048L30.7995 126.053L30.9371 124.058C30.0128 123.994 28.8957 123.914 27.5855 123.818L27.4395 125.813ZM30.7995 126.053L31.4445 124.16L3.12449 114.512L2.47953 116.405L1.83458 118.298L30.1546 127.946L30.7995 126.053ZM2.47953 116.405H4.47953L4.47953 109.061H2.47953H0.47953L0.47953 116.405H2.47953ZM2.47953 109.061V111.061H37.5195V109.061V107.061H2.47953L2.47953 109.061ZM37.5195 109.061H35.5195V114.533H37.5195H39.5195V109.061H37.5195ZM37.5195 114.533V112.533H20.9115V114.533V116.533H37.5195L37.5195 114.533ZM20.9115 114.533V112.533C19.8281 112.533 18.5786 112.502 17.1603 112.439L17.0715 114.437L16.9827 116.435C18.4444 116.5 19.755 116.533 20.9115 116.533V114.533ZM17.0715 114.437L17.2046 112.441C15.7665 112.345 14.3606 112.25 12.9867 112.154L12.8475 114.149L12.7083 116.144C14.0865 116.24 15.4965 116.336 16.9385 116.433L17.0715 114.437ZM12.8475 114.149L12.9836 112.154C11.5868 112.058 10.3885 111.964 9.38621 111.87L9.19953 113.861L9.01285 115.852C10.0586 115.95 11.2923 116.048 12.7115 116.144L12.8475 114.149ZM9.19953 113.861L8.54883 115.752L36.8688 125.496L37.5195 123.605L38.1702 121.714L9.85023 111.97L9.19953 113.861ZM37.5195 123.605H35.5195V130.949H37.5195H39.5195V123.605H37.5195ZM7.90353 96.1677V94.1677H5.90353V96.1677H7.90353ZM7.90353 90.1197H5.90353V92.1197H7.90353L7.90353 90.1197ZM37.5195 94.9677H35.5195C35.5195 95.0594 35.498 94.7608 35.8053 94.4535C36.1127 94.1461 36.4112 94.1677 36.3195 94.1677V96.1677V98.1677C37.0278 98.1677 37.9264 97.9893 38.6337 97.2819C39.3411 96.5745 39.5195 95.676 39.5195 94.9677H37.5195ZM36.3195 96.1677V94.1677H7.90353V96.1677L7.90353 98.1677H36.3195V96.1677ZM7.90353 96.1677H5.90353L5.90353 104.136H7.90353H9.90353L9.90353 96.1677H7.90353ZM7.90353 104.136H5.90353C5.90353 104.227 5.88196 103.929 6.18932 103.621C6.49668 103.314 6.79524 103.336 6.70353 103.336V105.336V107.336C7.41182 107.336 8.31038 107.157 9.01774 106.45C9.7251 105.743 9.90353 104.844 9.90353 104.136H7.90353ZM6.70353 105.336V103.336H3.67953V105.336L3.67953 107.336H6.70353V105.336ZM3.67953 105.336V103.336C3.58782 103.336 3.88638 103.314 4.19374 103.621C4.5011 103.929 4.47953 104.227 4.47953 104.136H2.47953H0.47953C0.47953 104.844 0.657955 105.743 1.36531 106.45C2.07267 107.157 2.97124 107.336 3.67953 107.336L3.67953 105.336ZM2.47953 104.136H4.47953L4.47953 82.1517H2.47953H0.47953L0.47953 104.136H2.47953ZM2.47953 82.1517H4.47953C4.47953 82.06 4.5011 82.3586 4.19374 82.6659C3.88638 82.9733 3.58782 82.9517 3.67953 82.9517L3.67953 80.9517L3.67953 78.9517C2.97124 78.9517 2.07268 79.1301 1.36532 79.8375C0.657959 80.5448 0.47953 81.4434 0.47953 82.1517H2.47953ZM3.67953 80.9517L3.67953 82.9517H6.70353V80.9517L6.70353 78.9517H3.67953L3.67953 80.9517ZM6.70353 80.9517V82.9517C6.79524 82.9517 6.49668 82.9733 6.18932 82.6659C5.88196 82.3586 5.90353 82.06 5.90353 82.1517H7.90353H9.90353C9.90353 81.4434 9.7251 80.5448 9.01774 79.8375C8.31038 79.1301 7.41182 78.9517 6.70353 78.9517L6.70353 80.9517ZM7.90353 82.1517H5.90353L5.90353 90.1197H7.90353H9.90353L9.90353 82.1517H7.90353ZM7.90353 90.1197L7.90353 92.1197H36.3195V90.1197V88.1197H7.90353V90.1197ZM36.3195 90.1197V92.1197C36.4112 92.1197 36.1127 92.1413 35.8053 91.8339C35.498 91.5266 35.5195 91.228 35.5195 91.3197H37.5195H39.5195C39.5195 90.6114 39.3411 89.7128 38.6337 89.0055C37.9264 88.2981 37.0278 88.1197 36.3195 88.1197V90.1197ZM37.5195 91.3197H35.5195V94.9677H37.5195H39.5195V91.3197H37.5195ZM37.5195 76.9384V78.9384H39.5195V76.9384H37.5195ZM2.47953 76.9384H0.47953V78.9384H2.47953V76.9384ZM2.47953 70.9384L2.47953 68.9384H0.47953V70.9384H2.47953ZM16.1595 70.9384V72.9384H18.1595V70.9384H16.1595ZM17.5035 59.2744L19.279 60.1951L19.2825 60.1884L19.2859 60.1818L17.5035 59.2744ZM21.2955 55.1944L22.3096 56.9183L22.3296 56.9065L22.3494 56.8942L21.2955 55.1944ZM32.4315 55.1944L31.3777 56.8942L31.39 56.9019L31.4025 56.9094L32.4315 55.1944ZM36.1755 59.2744L34.3932 60.1818L34.3966 60.1884L34.4 60.1951L36.1755 59.2744ZM32.2395 70.9384V72.9384H34.2395V70.9384H32.2395ZM30.7515 61.3864L29.2938 62.7558L29.3044 62.767L29.3151 62.778L30.7515 61.3864ZM22.9755 61.3864L24.3897 62.8007L24.4006 62.7898L24.4113 62.7787L22.9755 61.3864ZM21.4395 70.9384H19.4395V72.9384H21.4395V70.9384ZM37.5195 76.9384V74.9384H2.47953L2.47953 76.9384V78.9384H37.5195V76.9384ZM2.47953 76.9384H4.47953L4.47953 70.9384H2.47953H0.47953L0.47953 76.9384H2.47953ZM2.47953 70.9384V72.9384H16.1595V70.9384V68.9384H2.47953L2.47953 70.9384ZM16.1595 70.9384H18.1595L18.1595 65.4184H16.1595H14.1595L14.1595 70.9384H16.1595ZM16.1595 65.4184H18.1595C18.1595 63.3023 18.5592 61.5834 19.279 60.1951L17.5035 59.2744L15.728 58.3538C14.6559 60.4214 14.1595 62.7986 14.1595 65.4184H16.1595ZM17.5035 59.2744L19.2859 60.1818C20.0167 58.7462 21.0209 57.6764 22.3096 56.9183L21.2955 55.1944L20.2815 53.4706C18.3062 54.6325 16.7824 56.2826 15.7212 58.3671L17.5035 59.2744ZM21.2955 55.1944L22.3494 56.8942C23.5955 56.1217 25.0773 55.7064 26.8635 55.7064V53.7064V51.7064C24.4258 51.7064 22.1956 52.2832 20.2416 53.4946L21.2955 55.1944ZM26.8635 53.7064V55.7064C28.6498 55.7064 30.1316 56.1217 31.3777 56.8942L32.4315 55.1944L33.4854 53.4946C31.5315 52.2832 29.3013 51.7064 26.8635 51.7064V53.7064ZM32.4315 55.1944L31.4025 56.9094C32.6615 57.6648 33.6571 58.7359 34.3932 60.1818L36.1755 59.2744L37.9579 58.3671C36.9019 56.2929 35.4016 54.6441 33.4605 53.4794L32.4315 55.1944ZM36.1755 59.2744L34.4 60.1951C35.1199 61.5834 35.5195 63.3023 35.5195 65.4184H37.5195H39.5195C39.5195 62.7986 39.0232 60.4214 37.951 58.3538L36.1755 59.2744ZM37.5195 65.4184H35.5195L35.5195 76.9384H37.5195H39.5195L39.5195 65.4184H37.5195ZM32.2395 70.9384H34.2395V65.5144H32.2395H30.2395V70.9384H32.2395ZM32.2395 65.5144H34.2395C34.2395 63.3839 33.6154 61.4682 32.188 59.9948L30.7515 61.3864L29.3151 62.778C29.8717 63.3526 30.2395 64.1889 30.2395 65.5144H32.2395ZM30.7515 61.3864L32.2092 60.0171C30.8059 58.5232 28.981 57.8024 26.9115 57.8024V59.8024L26.9115 61.8024C27.978 61.8024 28.7132 62.1377 29.2938 62.7558L30.7515 61.3864ZM26.9115 59.8024V57.8024C24.823 57.8024 22.9755 58.5135 21.5397 59.9941L22.9755 61.3864L24.4113 62.7787C25.0236 62.1474 25.8001 61.8024 26.9115 61.8024L26.9115 59.8024ZM22.9755 61.3864L21.5613 59.9722C20.0911 61.4424 19.4395 63.3659 19.4395 65.5144H21.4395H23.4395C23.4395 64.207 23.812 63.3784 24.3897 62.8007L22.9755 61.3864ZM21.4395 65.5144H19.4395L19.4395 70.9384H21.4395H23.4395V65.5144H21.4395ZM21.4395 70.9384V72.9384H32.2395V70.9384V68.9384H21.4395V70.9384ZM37.9275 326.831L39.4721 328.101L39.4771 328.095L39.482 328.089L37.9275 326.831ZM49.4475 325.487L48.185 327.038L48.196 327.047L48.2071 327.056L49.4475 325.487ZM51.9435 329.759L49.9698 330.082L50.2442 331.759H51.9435V329.759ZM52.0395 329.759V331.759H53.8104L54.0248 330.001L52.0395 329.759ZM53.4795 326.255L55.0556 327.486L55.0677 327.471L55.0795 327.455L53.4795 326.255ZM56.5035 323.855L57.3416 325.671L57.3507 325.667L57.3597 325.662L56.5035 323.855ZM65.8155 324.383L66.8657 322.681V322.681L65.8155 324.383ZM69.3195 328.319L71.1284 327.466L71.1219 327.452L71.1151 327.438L69.3195 328.319ZM49.9275 339.743V341.743H51.9275V339.743H49.9275ZM48.6795 331.199L50.1687 329.864L50.1561 329.85L50.1433 329.836L48.6795 331.199ZM41.7675 331.199L43.2072 332.587L43.2324 332.561L43.2567 332.534L41.7675 331.199ZM64.1355 330.527L65.5961 329.161L65.5946 329.159L64.1355 330.527ZM56.3115 330.527L57.7031 331.963L57.7259 331.941L57.748 331.919L56.3115 330.527ZM54.7755 339.743H52.7755V341.743H54.7755V339.743ZM70.5195 344.399H68.5195C68.5195 344.491 68.498 344.192 68.8053 343.885C69.1127 343.577 69.4112 343.599 69.3195 343.599V345.599V347.599C70.0278 347.599 70.9264 347.421 71.6337 346.713C72.3411 346.006 72.5195 345.107 72.5195 344.399H70.5195ZM69.3195 345.599V343.599H36.6795V345.599V347.599H69.3195V345.599ZM36.6795 345.599V343.599C36.5878 343.599 36.8864 343.577 37.1937 343.885C37.5011 344.192 37.4795 344.491 37.4795 344.399H35.4795H33.4795C33.4795 345.107 33.658 346.006 34.3653 346.713C35.0727 347.421 35.9712 347.599 36.6795 347.599V345.599ZM35.4795 344.399H37.4795V334.847H35.4795H33.4795V344.399H35.4795ZM35.4795 334.847H37.4795C37.4795 331.806 38.2148 329.63 39.4721 328.101L37.9275 326.831L36.3829 325.56C34.3763 328 33.4795 331.168 33.4795 334.847H35.4795ZM37.9275 326.831L39.482 328.089C40.7084 326.574 42.3127 325.807 44.5035 325.807V323.807V321.807C41.1903 321.807 38.4106 323.056 36.373 325.573L37.9275 326.831ZM44.5035 323.807V325.807C46.0041 325.807 47.1959 326.233 48.185 327.038L49.4475 325.487L50.7101 323.936C48.9472 322.501 46.843 321.807 44.5035 321.807V323.807ZM49.4475 325.487L48.2071 327.056C49.1847 327.829 49.7608 328.805 49.9698 330.082L51.9435 329.759L53.9173 329.436C53.5502 327.193 52.4624 325.321 50.688 323.918L49.4475 325.487ZM51.9435 329.759V331.759H52.0395V329.759L52.0395 327.759H51.9435L51.9435 329.759ZM52.0395 329.759L54.0248 330.001C54.1416 329.043 54.4833 328.219 55.0556 327.486L53.4795 326.255L51.9035 325.024C50.8757 326.339 50.2574 327.851 50.0542 329.517L52.0395 329.759ZM53.4795 326.255L55.0795 327.455C55.634 326.716 56.3719 326.118 57.3416 325.671L56.5035 323.855L55.6654 322.039C54.1392 322.743 52.8611 323.746 51.8795 325.055L53.4795 326.255ZM56.5035 323.855L57.3597 325.662C58.2837 325.225 59.3314 324.991 60.5355 324.991V322.991V320.991C58.7956 320.991 57.1553 321.333 55.6474 322.047L56.5035 323.855ZM60.5355 322.991V324.991C62.234 324.991 63.6195 325.378 64.7653 326.085L65.8155 324.383L66.8657 322.681C65.0035 321.532 62.8691 320.991 60.5355 320.991V322.991ZM65.8155 324.383L64.7653 326.085C65.9261 326.801 66.8461 327.818 67.524 329.2L69.3195 328.319L71.1151 327.438C70.129 325.428 68.713 323.821 66.8657 322.681L65.8155 324.383ZM69.3195 328.319L67.5107 329.172C68.1594 330.547 68.5195 332.244 68.5195 334.319H70.5195H72.5195C72.5195 331.786 72.0797 329.482 71.1284 327.466L69.3195 328.319ZM70.5195 334.319H68.5195V344.399H70.5195H72.5195V334.319H70.5195ZM49.9275 339.743H51.9275V334.943H49.9275H47.9275V339.743H49.9275ZM49.9275 334.943H51.9275C51.9275 333.014 51.4081 331.246 50.1687 329.864L48.6795 331.199L47.1904 332.534C47.6149 333.008 47.9275 333.736 47.9275 334.943H49.9275ZM48.6795 331.199L50.1433 329.836C48.8392 328.435 47.105 327.807 45.1755 327.807L45.1755 329.807V331.807C46.1901 331.807 46.7919 332.107 47.2157 332.562L48.6795 331.199ZM45.1755 329.807L45.1755 327.807C43.2646 327.807 41.5502 328.445 40.2784 329.864L41.7675 331.199L43.2567 332.534C43.6488 332.097 44.2065 331.807 45.1755 331.807V329.807ZM41.7675 331.199L40.3278 329.811C39.0102 331.177 38.4715 332.979 38.4715 334.943H40.4715H42.4715C42.4715 333.707 42.7969 333.013 43.2072 332.587L41.7675 331.199ZM40.4715 334.943H38.4715V338.591H40.4715H42.4715V334.943H40.4715ZM40.4715 338.591H38.4715C38.4715 339.304 38.6616 340.202 39.3865 340.898C40.0961 341.579 40.9832 341.743 41.6715 341.743V339.743V337.743C41.5599 337.743 41.847 337.715 42.1566 338.012C42.4814 338.324 42.4715 338.645 42.4715 338.591H40.4715ZM41.6715 339.743V341.743H49.9275V339.743V337.743H41.6715V339.743ZM64.3275 339.743V341.743C65.0159 341.743 65.903 341.579 66.6126 340.898C67.3374 340.202 67.5275 339.304 67.5275 338.591H65.5275H63.5275C63.5275 338.645 63.5176 338.324 63.8425 338.012C64.1521 337.715 64.4392 337.743 64.3275 337.743V339.743ZM65.5275 338.591H67.5275V334.655H65.5275H63.5275V338.591H65.5275ZM65.5275 334.655H67.5275C67.5275 332.543 66.9638 330.623 65.5961 329.161L64.1355 330.527L62.675 331.893C63.1633 332.415 63.5275 333.247 63.5275 334.655H65.5275ZM64.1355 330.527L65.5946 329.159C64.1942 327.665 62.3341 326.991 60.2475 326.991L60.2475 328.991V330.991C61.4249 330.991 62.1569 331.341 62.6765 331.895L64.1355 330.527ZM60.2475 328.991L60.2475 326.991C58.1596 326.991 56.2994 327.665 54.875 329.135L56.3115 330.527L57.748 331.919C58.3077 331.341 59.0715 330.991 60.2475 330.991V328.991ZM56.3115 330.527L54.9199 329.09C53.4195 330.544 52.7755 332.489 52.7755 334.655H54.7755H56.7755C56.7755 333.301 57.1555 332.494 57.7031 331.963L56.3115 330.527ZM54.7755 334.655H52.7755V339.743H54.7755H56.7755V334.655H54.7755ZM54.7755 339.743V341.743H64.3275V339.743V337.743H54.7755V339.743ZM40.9035 284.196V282.196H38.9035V284.196H40.9035ZM40.9035 278.148H38.9035V280.148H40.9035V278.148ZM70.5195 282.996H68.5195C68.5195 283.088 68.498 282.79 68.8053 282.482C69.1127 282.175 69.4112 282.196 69.3195 282.196V284.196V286.196C70.0278 286.196 70.9264 286.018 71.6337 285.311C72.3411 284.603 72.5195 283.705 72.5195 282.996H70.5195ZM69.3195 284.196V282.196H40.9035V284.196L40.9035 286.196H69.3195V284.196ZM40.9035 284.196H38.9035L38.9035 292.164H40.9035H42.9035L42.9035 284.196H40.9035ZM40.9035 292.164H38.9035C38.9035 292.256 38.882 291.958 39.1893 291.65C39.4967 291.343 39.7952 291.364 39.7035 291.364V293.364V295.364C40.4118 295.364 41.3104 295.186 42.0177 294.479C42.7251 293.771 42.9035 292.873 42.9035 292.164H40.9035ZM39.7035 293.364V291.364H36.6795V293.364V295.364H39.7035V293.364ZM36.6795 293.364V291.364C36.5878 291.364 36.8864 291.343 37.1937 291.65C37.5011 291.958 37.4795 292.256 37.4795 292.164H35.4795H33.4795C33.4795 292.873 33.658 293.771 34.3653 294.479C35.0727 295.186 35.9712 295.364 36.6795 295.364V293.364ZM35.4795 292.164H37.4795L37.4795 270.18H35.4795H33.4795V292.164H35.4795ZM35.4795 270.18H37.4795C37.4795 270.089 37.5011 270.387 37.1937 270.695C36.8864 271.002 36.5878 270.98 36.6795 270.98V268.98V266.98C35.9712 266.98 35.0727 267.159 34.3653 267.866C33.658 268.574 33.4795 269.472 33.4795 270.18H35.4795ZM36.6795 268.98V270.98H39.7035V268.98V266.98H36.6795V268.98ZM39.7035 268.98V270.98C39.7952 270.98 39.4967 271.002 39.1893 270.695C38.882 270.387 38.9035 270.089 38.9035 270.18H40.9035H42.9035C42.9035 269.472 42.7251 268.574 42.0177 267.866C41.3104 267.159 40.4118 266.98 39.7035 266.98V268.98ZM40.9035 270.18H38.9035V278.148H40.9035H42.9035V270.18H40.9035ZM40.9035 278.148V280.148H69.3195V278.148V276.148H40.9035V278.148ZM69.3195 278.148V280.148C69.4112 280.148 69.1127 280.17 68.8053 279.863C68.498 279.555 68.5195 279.257 68.5195 279.348H70.5195H72.5195C72.5195 278.64 72.3411 277.742 71.6337 277.034C70.9264 276.327 70.0278 276.148 69.3195 276.148V278.148ZM70.5195 279.348H68.5195V282.996H70.5195H72.5195V279.348H70.5195ZM49.8795 258.583V260.583H51.8795V258.583H49.8795ZM54.9675 258.583H52.9675V260.583H54.9675V258.583ZM70.5195 263.287H68.5195C68.5195 263.379 68.498 263.08 68.8053 262.773C69.1127 262.466 69.4112 262.487 69.3195 262.487V264.487V266.487C70.0278 266.487 70.9264 266.309 71.6337 265.601C72.3411 264.894 72.5195 263.995 72.5195 263.287H70.5195ZM69.3195 264.487V262.487H36.6795V264.487V266.487H69.3195V264.487ZM36.6795 264.487V262.487C36.5878 262.487 36.8864 262.466 37.1937 262.773C37.5011 263.08 37.4795 263.379 37.4795 263.287H35.4795H33.4795C33.4795 263.995 33.658 264.894 34.3653 265.601C35.0727 266.309 35.9712 266.487 36.6795 266.487V264.487ZM35.4795 263.287H37.4795V244.663H35.4795H33.4795V263.287H35.4795ZM35.4795 244.663H37.4795C37.4795 244.571 37.5011 244.87 37.1937 245.177C36.8864 245.485 36.5878 245.463 36.6795 245.463V243.463L36.6795 241.463C35.9712 241.463 35.0727 241.642 34.3653 242.349C33.658 243.056 33.4795 243.955 33.4795 244.663H35.4795ZM36.6795 243.463V245.463H39.5595V243.463L39.5595 241.463H36.6795L36.6795 243.463ZM39.5595 243.463V245.463C39.6512 245.463 39.3527 245.485 39.0453 245.177C38.738 244.87 38.7595 244.571 38.7595 244.663H40.7595H42.7595C42.7595 243.955 42.5811 243.056 41.8737 242.349C41.1664 241.642 40.2678 241.463 39.5595 241.463L39.5595 243.463ZM40.7595 244.663H38.7595V257.383H40.7595H42.7595V244.663H40.7595ZM40.7595 257.383H38.7595C38.7595 258.091 38.938 258.99 39.6453 259.697C40.3527 260.405 41.2512 260.583 41.9595 260.583V258.583V256.583C41.8678 256.583 42.1664 256.562 42.4737 256.869C42.7811 257.176 42.7595 257.475 42.7595 257.383H40.7595ZM41.9595 258.583V260.583H49.8795V258.583V256.583H41.9595V258.583ZM49.8795 258.583H51.8795V246.343H49.8795H47.8795V258.583H49.8795ZM49.8795 246.343H51.8795C51.8795 246.232 51.9075 246.519 51.6103 246.828C51.2985 247.153 50.9771 247.143 51.0315 247.143V245.143V243.143C50.318 243.143 49.4206 243.333 48.7248 244.058C48.0435 244.768 47.8795 245.655 47.8795 246.343H49.8795ZM51.0315 245.143V247.143H53.7675V245.143V243.143H51.0315V245.143ZM53.7675 245.143V247.143C53.8592 247.143 53.5607 247.165 53.2533 246.857C52.946 246.55 52.9675 246.251 52.9675 246.343H54.9675H56.9675C56.9675 245.635 56.7891 244.736 56.0817 244.029C55.3744 243.322 54.4758 243.143 53.7675 243.143V245.143ZM54.9675 246.343H52.9675V258.583H54.9675H56.9675V246.343H54.9675ZM54.9675 258.583V260.583H64.0395V258.583V256.583H54.9675V258.583ZM64.0395 258.583V260.583C64.7478 260.583 65.6464 260.405 66.3537 259.697C67.0611 258.99 67.2395 258.091 67.2395 257.383H65.2395H63.2395C63.2395 257.475 63.218 257.176 63.5253 256.869C63.8327 256.562 64.1312 256.583 64.0395 256.583V258.583ZM65.2395 257.383H67.2395V244.663H65.2395H63.2395V257.383H65.2395ZM65.2395 244.663H67.2395C67.2395 244.571 67.2611 244.87 66.9537 245.177C66.6464 245.485 66.3478 245.463 66.4395 245.463V243.463L66.4395 241.463C65.7312 241.463 64.8327 241.642 64.1253 242.349C63.418 243.056 63.2395 243.955 63.2395 244.663H65.2395ZM66.4395 243.463V245.463H69.3195V243.463V241.463H66.4395L66.4395 243.463ZM69.3195 243.463V245.463C69.4112 245.463 69.1127 245.485 68.8053 245.177C68.498 244.87 68.5195 244.571 68.5195 244.663H70.5195H72.5195C72.5195 243.955 72.3411 243.056 71.6337 242.349C70.9264 241.642 70.0278 241.463 69.3195 241.463V243.463ZM70.5195 244.663H68.5195V263.287H70.5195H72.5195V244.663H70.5195ZM70.5195 222.89V224.89H72.5195V222.89H70.5195ZM58.0875 222.89V220.89H56.0875V222.89H58.0875ZM55.6875 236.282L57.1662 237.629L57.1728 237.621L57.1794 237.614L55.6875 236.282ZM35.4795 238.97H33.4795V240.97H35.4795V238.97ZM35.4795 232.97L35.4795 230.97H33.4795L33.4795 232.97H35.4795ZM51.6555 231.674L53.178 232.971L53.2037 232.941L53.2282 232.91L51.6555 231.674ZM52.7115 222.89H54.7115V220.89H52.7115V222.89ZM35.4795 222.89H33.4795V224.89H35.4795V222.89ZM35.4795 216.89V214.89H33.4795V216.89H35.4795ZM70.5195 216.89H72.5195V214.89H70.5195V216.89ZM70.5195 222.89L70.5195 220.89H58.0875V222.89V224.89H70.5195V222.89ZM58.0875 222.89H56.0875V228.794H58.0875H60.0875V222.89H58.0875ZM58.0875 228.794H56.0875C56.0875 231.668 55.3727 233.632 54.1957 234.95L55.6875 236.282L57.1794 237.614C59.2024 235.348 60.0875 232.319 60.0875 228.794H58.0875ZM55.6875 236.282L54.2088 234.935C53.0272 236.233 51.3521 236.97 48.9195 236.97V238.97V240.97C52.2469 240.97 55.0839 239.915 57.1662 237.629L55.6875 236.282ZM48.9195 238.97V236.97H35.4795V238.97V240.97H48.9195V238.97ZM35.4795 238.97H37.4795V232.97H35.4795H33.4795V238.97H35.4795ZM35.4795 232.97V234.97H48.6315V232.97V230.97H35.4795L35.4795 232.97ZM48.6315 232.97V234.97C50.4137 234.97 52.0108 234.341 53.178 232.971L51.6555 231.674L50.133 230.377C49.8282 230.735 49.4094 230.97 48.6315 230.97V232.97ZM51.6555 231.674L53.2282 232.91C54.2864 231.563 54.7115 229.882 54.7115 228.074H52.7115H50.7115C50.7115 229.273 50.4327 229.993 50.0829 230.438L51.6555 231.674ZM52.7115 228.074H54.7115V222.89H52.7115H50.7115V228.074H52.7115ZM52.7115 222.89V220.89H35.4795V222.89V224.89H52.7115V222.89ZM35.4795 222.89H37.4795V216.89H35.4795H33.4795V222.89H35.4795ZM35.4795 216.89V218.89H70.5195V216.89V214.89H35.4795V216.89ZM70.5195 216.89H68.5195L68.5195 222.89H70.5195H72.5195L72.5195 216.89H70.5195ZM49.8795 204.861V206.861H51.8795V204.861H49.8795ZM54.9675 204.861H52.9675V206.861H54.9675V204.861ZM70.5195 209.565H68.5195C68.5195 209.656 68.498 209.358 68.8053 209.05C69.1127 208.743 69.4112 208.765 69.3195 208.765V210.765V212.765C70.0278 212.765 70.9264 212.586 71.6337 211.879C72.3411 211.172 72.5195 210.273 72.5195 209.565H70.5195ZM69.3195 210.765V208.765H36.6795V210.765V212.765H69.3195V210.765ZM36.6795 210.765V208.765C36.5878 208.765 36.8864 208.743 37.1937 209.05C37.5011 209.358 37.4795 209.656 37.4795 209.565H35.4795H33.4795C33.4795 210.273 33.658 211.172 34.3653 211.879C35.0727 212.586 35.9712 212.765 36.6795 212.765V210.765ZM35.4795 209.565H37.4795L37.4795 190.941H35.4795H33.4795V209.565H35.4795ZM35.4795 190.941H37.4795C37.4795 190.849 37.5011 191.148 37.1937 191.455C36.8864 191.762 36.5878 191.741 36.6795 191.741V189.741V187.741C35.9712 187.741 35.0727 187.919 34.3653 188.626C33.658 189.334 33.4795 190.232 33.4795 190.941H35.4795ZM36.6795 189.741V191.741H39.5595V189.741V187.741H36.6795V189.741ZM39.5595 189.741V191.741C39.6512 191.741 39.3527 191.762 39.0453 191.455C38.738 191.148 38.7595 190.849 38.7595 190.941H40.7595H42.7595C42.7595 190.232 42.5811 189.334 41.8737 188.626C41.1664 187.919 40.2678 187.741 39.5595 187.741V189.741ZM40.7595 190.941H38.7595L38.7595 203.661H40.7595H42.7595L42.7595 190.941H40.7595ZM40.7595 203.661H38.7595C38.7595 204.369 38.938 205.268 39.6453 205.975C40.3527 206.682 41.2512 206.861 41.9595 206.861V204.861V202.861C41.8678 202.861 42.1664 202.839 42.4737 203.146C42.7811 203.454 42.7595 203.752 42.7595 203.661H40.7595ZM41.9595 204.861V206.861H49.8795V204.861V202.861H41.9595V204.861ZM49.8795 204.861H51.8795L51.8795 192.621H49.8795H47.8795L47.8795 204.861H49.8795ZM49.8795 192.621H51.8795C51.8795 192.509 51.9075 192.796 51.6103 193.106C51.2985 193.431 50.9771 193.421 51.0315 193.421V191.421V189.421C50.318 189.421 49.4206 189.611 48.7248 190.336C48.0435 191.045 47.8795 191.932 47.8795 192.621H49.8795ZM51.0315 191.421V193.421H53.7675V191.421V189.421H51.0315V191.421ZM53.7675 191.421V193.421C53.8592 193.421 53.5607 193.442 53.2533 193.135C52.946 192.828 52.9675 192.529 52.9675 192.621H54.9675H56.9675C56.9675 191.912 56.7891 191.014 56.0817 190.306C55.3744 189.599 54.4758 189.421 53.7675 189.421V191.421ZM54.9675 192.621H52.9675L52.9675 204.861H54.9675H56.9675L56.9675 192.621H54.9675ZM54.9675 204.861V206.861H64.0395V204.861V202.861H54.9675V204.861ZM64.0395 204.861V206.861C64.7478 206.861 65.6464 206.682 66.3537 205.975C67.0611 205.268 67.2395 204.369 67.2395 203.661H65.2395H63.2395C63.2395 203.752 63.218 203.454 63.5253 203.146C63.8327 202.839 64.1312 202.861 64.0395 202.861V204.861ZM65.2395 203.661H67.2395V190.941H65.2395H63.2395L63.2395 203.661H65.2395ZM65.2395 190.941H67.2395C67.2395 190.849 67.2611 191.148 66.9537 191.455C66.6464 191.762 66.3478 191.741 66.4395 191.741V189.741V187.741C65.7312 187.741 64.8327 187.919 64.1253 188.626C63.418 189.334 63.2395 190.232 63.2395 190.941H65.2395ZM66.4395 189.741V191.741H69.3195V189.741V187.741H66.4395V189.741ZM69.3195 189.741V191.741C69.4112 191.741 69.1127 191.762 68.8053 191.455C68.498 191.148 68.5195 190.849 68.5195 190.941H70.5195H72.5195C72.5195 190.232 72.3411 189.334 71.6337 188.626C70.9264 187.919 70.0278 187.741 69.3195 187.741V189.741ZM70.5195 190.941H68.5195V209.565H70.5195H72.5195V190.941H70.5195ZM49.6875 178.431V180.431H51.6875V178.431H49.6875ZM49.6875 169.023H51.6875V167.023H49.6875V169.023ZM55.1115 169.023V167.023H53.1115V169.023H55.1115ZM55.1115 178.431H53.1115V180.431H55.1115V178.431ZM70.5195 183.231H68.5195C68.5195 183.323 68.498 183.025 68.8053 182.717C69.1127 182.41 69.4112 182.431 69.3195 182.431V184.431V186.431C70.0278 186.431 70.9264 186.253 71.6337 185.546C72.3411 184.838 72.5195 183.94 72.5195 183.231H70.5195ZM69.3195 184.431V182.431H36.6795V184.431V186.431H69.3195V184.431ZM36.6795 184.431V182.431C36.5878 182.431 36.8864 182.41 37.1937 182.717C37.5011 183.025 37.4795 183.323 37.4795 183.231H35.4795H33.4795C33.4795 183.94 33.658 184.838 34.3653 185.546C35.0727 186.253 35.9712 186.431 36.6795 186.431V184.431ZM35.4795 183.231H37.4795V179.583H35.4795H33.4795V183.231H35.4795ZM35.4795 179.583H37.4795C37.4795 179.529 37.4894 179.85 37.1646 180.162C36.855 180.459 36.5679 180.431 36.6795 180.431V178.431V176.431C35.9912 176.431 35.1041 176.595 34.3945 177.277C33.6696 177.973 33.4795 178.87 33.4795 179.583H35.4795ZM36.6795 178.431V180.431H49.6875V178.431V176.431H36.6795V178.431ZM49.6875 178.431H51.6875V169.023H49.6875H47.6875V178.431H49.6875ZM49.6875 169.023V167.023H36.6795V169.023V171.023H49.6875V169.023ZM36.6795 169.023V167.023C36.5679 167.023 36.855 166.995 37.1646 167.293C37.4894 167.605 37.4795 167.926 37.4795 167.871H35.4795H33.4795C33.4795 168.585 33.6696 169.482 34.3945 170.178C35.1041 170.859 35.9912 171.023 36.6795 171.023V169.023ZM35.4795 167.871H37.4795V164.223H35.4795H33.4795V167.871H35.4795ZM35.4795 164.223H37.4795C37.4795 164.132 37.5011 164.43 37.1937 164.738C36.8864 165.045 36.5878 165.023 36.6795 165.023V163.023V161.023C35.9712 161.023 35.0727 161.202 34.3653 161.909C33.658 162.617 33.4795 163.515 33.4795 164.223H35.4795ZM36.6795 163.023V165.023H69.3195V163.023V161.023H36.6795V163.023ZM69.3195 163.023V165.023C69.4112 165.023 69.1127 165.045 68.8053 164.738C68.498 164.43 68.5195 164.132 68.5195 164.223H70.5195H72.5195C72.5195 163.515 72.3411 162.617 71.6337 161.909C70.9264 161.202 70.0278 161.023 69.3195 161.023V163.023ZM70.5195 164.223H68.5195V167.871H70.5195H72.5195V164.223H70.5195ZM70.5195 167.871H68.5195C68.5195 167.926 68.5096 167.605 68.8345 167.293C69.1441 166.995 69.4312 167.023 69.3195 167.023V169.023V171.023C70.0079 171.023 70.895 170.859 71.6046 170.178C72.3294 169.482 72.5195 168.585 72.5195 167.871H70.5195ZM69.3195 169.023V167.023H55.1115V169.023V171.023H69.3195V169.023ZM55.1115 169.023H53.1115V178.431H55.1115H57.1115V169.023H55.1115ZM55.1115 178.431V180.431H69.3195V178.431V176.431H55.1115V178.431ZM69.3195 178.431V180.431C69.4312 180.431 69.1441 180.459 68.8345 180.162C68.5096 179.85 68.5195 179.529 68.5195 179.583H70.5195H72.5195C72.5195 178.87 72.3294 177.973 71.6046 177.277C70.895 176.595 70.0079 176.431 69.3195 176.431V178.431ZM70.5195 179.583H68.5195V183.231H70.5195H72.5195V179.583H70.5195ZM70.5195 157.81V159.81H72.5195V157.81H70.5195ZM35.4795 157.81H33.4795V159.81H35.4795V157.81ZM35.4795 152.338V150.338H33.4795V152.338H35.4795ZM56.4075 152.434L56.5005 150.436V150.436L56.4075 152.434ZM60.4395 152.674L60.2936 154.669V154.669L60.4395 152.674ZM63.7995 152.914L63.6619 154.909L64.4445 151.021L63.7995 152.914ZM35.4795 143.266H33.4795V144.698L34.8346 145.159L35.4795 143.266ZM35.4795 135.922V133.922H33.4795V135.922H35.4795ZM70.5195 135.922H72.5195V133.922H70.5195V135.922ZM70.5195 141.394V143.394H72.5195V141.394H70.5195ZM50.0715 141.298L49.9385 143.294L49.9606 143.295L49.9827 143.296L50.0715 141.298ZM45.8475 141.01L45.9867 139.015L45.9836 139.015L45.8475 141.01ZM42.1995 140.722L42.3862 138.731L41.5488 142.613L42.1995 140.722ZM70.5195 150.466H72.5195V149.039L71.1702 148.575L70.5195 150.466ZM70.5195 157.81V155.81H35.4795V157.81V159.81H70.5195V157.81ZM35.4795 157.81H37.4795L37.4795 152.338H35.4795H33.4795V157.81H35.4795ZM35.4795 152.338V154.338H52.6155V152.338V150.338H35.4795V152.338ZM52.6155 152.338V154.338C53.7313 154.338 54.9638 154.369 56.3146 154.432L56.4075 152.434L56.5005 150.436C55.0993 150.371 53.8038 150.338 52.6155 150.338V152.338ZM56.4075 152.434L56.3146 154.432C57.6737 154.495 59 154.574 60.2936 154.669L60.4395 152.674L60.5855 150.68C59.255 150.582 57.8933 150.501 56.5005 150.436L56.4075 152.434ZM60.4395 152.674L60.2936 154.669C61.6073 154.765 62.7303 154.845 63.6619 154.909L63.7995 152.914L63.9371 150.919C63.0128 150.855 61.8957 150.775 60.5855 150.68L60.4395 152.674ZM63.7995 152.914L64.4445 151.021L36.1245 141.373L35.4795 143.266L34.8346 145.159L63.1546 154.807L63.7995 152.914ZM35.4795 143.266H37.4795V135.922H35.4795H33.4795V143.266H35.4795ZM35.4795 135.922V137.922H70.5195L70.5195 135.922V133.922H35.4795V135.922ZM70.5195 135.922H68.5195L68.5195 141.394H70.5195H72.5195L72.5195 135.922H70.5195ZM70.5195 141.394V139.394H53.9115V141.394V143.394H70.5195V141.394ZM53.9115 141.394V139.394C52.8281 139.394 51.5786 139.363 50.1603 139.3L50.0715 141.298L49.9827 143.296C51.4444 143.361 52.755 143.394 53.9115 143.394V141.394ZM50.0715 141.298L50.2046 139.303C48.7665 139.207 47.3606 139.111 45.9867 139.015L45.8475 141.01L45.7083 143.005C47.0865 143.101 48.4965 143.198 49.9385 143.294L50.0715 141.298ZM45.8475 141.01L45.9836 139.015C44.5868 138.92 43.3885 138.825 42.3862 138.731L42.1995 140.722L42.0128 142.713C43.0586 142.811 44.2923 142.909 45.7115 143.006L45.8475 141.01ZM42.1995 140.722L41.5488 142.613L69.8688 152.357L70.5195 150.466L71.1702 148.575L42.8502 138.831L42.1995 140.722ZM70.5195 150.466H68.5195V157.81H70.5195H72.5195V150.466H70.5195ZM70.5195 130.949V132.949H72.5195V130.949H70.5195ZM35.4795 130.949H33.4795V132.949H35.4795V130.949ZM35.4795 125.477V123.477H33.4795V125.477H35.4795ZM56.4075 125.573L56.5005 123.575V123.575L56.4075 125.573ZM60.4395 125.813L60.2936 127.808V127.808L60.4395 125.813ZM63.7995 126.053L63.6619 128.048L64.4445 124.16L63.7995 126.053ZM35.4795 116.405H33.4795V117.836L34.8346 118.298L35.4795 116.405ZM35.4795 109.061V107.061H33.4795V109.061H35.4795ZM70.5195 109.061H72.5195V107.061H70.5195V109.061ZM70.5195 114.533V116.533H72.5195V114.533H70.5195ZM50.0715 114.437L49.9385 116.433L49.9606 116.434L49.9827 116.435L50.0715 114.437ZM45.8475 114.149L45.9867 112.154L45.9836 112.154L45.8475 114.149ZM42.1995 113.861L42.3862 111.87L41.5488 115.752L42.1995 113.861ZM70.5195 123.605H72.5195V122.178L71.1702 121.714L70.5195 123.605ZM70.5195 130.949V128.949H35.4795V130.949V132.949H70.5195V130.949ZM35.4795 130.949H37.4795V125.477H35.4795H33.4795L33.4795 130.949H35.4795ZM35.4795 125.477L35.4795 127.477H52.6155V125.477V123.477H35.4795V125.477ZM52.6155 125.477V127.477C53.7313 127.477 54.9638 127.508 56.3146 127.571L56.4075 125.573L56.5005 123.575C55.0993 123.51 53.8038 123.477 52.6155 123.477V125.477ZM56.4075 125.573L56.3146 127.571C57.6737 127.634 59 127.713 60.2936 127.808L60.4395 125.813L60.5855 123.818C59.255 123.721 57.8933 123.64 56.5005 123.575L56.4075 125.573ZM60.4395 125.813L60.2936 127.808C61.6073 127.904 62.7303 127.984 63.6619 128.048L63.7995 126.053L63.9371 124.058C63.0128 123.994 61.8957 123.914 60.5855 123.818L60.4395 125.813ZM63.7995 126.053L64.4445 124.16L36.1245 114.512L35.4795 116.405L34.8346 118.298L63.1546 127.946L63.7995 126.053ZM35.4795 116.405H37.4795L37.4795 109.061H35.4795H33.4795V116.405H35.4795ZM35.4795 109.061V111.061H70.5195V109.061V107.061H35.4795V109.061ZM70.5195 109.061H68.5195V114.533H70.5195H72.5195V109.061H70.5195ZM70.5195 114.533V112.533H53.9115V114.533L53.9115 116.533H70.5195V114.533ZM53.9115 114.533V112.533C52.8281 112.533 51.5786 112.502 50.1603 112.439L50.0715 114.437L49.9827 116.435C51.4444 116.5 52.755 116.533 53.9115 116.533L53.9115 114.533ZM50.0715 114.437L50.2046 112.441C48.7665 112.345 47.3606 112.25 45.9867 112.154L45.8475 114.149L45.7083 116.144C47.0865 116.24 48.4965 116.336 49.9385 116.433L50.0715 114.437ZM45.8475 114.149L45.9836 112.154C44.5868 112.058 43.3885 111.964 42.3862 111.87L42.1995 113.861L42.0128 115.852C43.0586 115.95 44.2923 116.048 45.7115 116.144L45.8475 114.149ZM42.1995 113.861L41.5488 115.752L69.8688 125.496L70.5195 123.605L71.1702 121.714L42.8502 111.97L42.1995 113.861ZM70.5195 123.605H68.5195V130.949H70.5195H72.5195V123.605H70.5195ZM64.6155 76.6504L63.218 78.0811L63.2436 78.1062L63.2702 78.1303L64.6155 76.6504ZM52.1835 64.5064L53.5811 63.0757L53.5731 63.0679L53.565 63.0602L52.1835 64.5064ZM41.8635 62.8264L43.2041 64.3106L43.2292 64.2879L43.2536 64.2644L41.8635 62.8264ZM41.6235 69.9784L40.1344 71.3135H40.1344L41.6235 69.9784ZM44.9355 71.6104L44.7045 73.597L44.7205 73.5989L44.7365 73.6005L44.9355 71.6104ZM44.8875 77.6104L45.0771 75.6194L45.0627 75.6181L45.0483 75.6169L44.8875 77.6104ZM39.7035 75.9304L38.6023 77.6L38.611 77.6057L39.7035 75.9304ZM36.2475 71.9944L38.0434 71.1141L38.0399 71.1071L38.0364 71.1L36.2475 71.9944ZM36.2955 60.5224L34.5205 59.6008V59.6008L36.2955 60.5224ZM39.9435 56.6824L40.9358 58.4189L40.9569 58.4069L40.9778 58.3943L39.9435 56.6824ZM50.7435 56.5864L49.8749 58.388L49.8881 58.3943L49.9013 58.4005L50.7435 56.5864ZM56.3115 60.7624L54.8857 62.1649L54.8929 62.1722L56.3115 60.7624ZM63.8955 68.3944L62.4769 69.8042L62.4813 69.8087L63.8955 68.3944ZM64.7115 68.6824L65.4138 70.5551H65.4138L64.7115 68.6824ZM70.5195 76.1704H68.5195C68.5195 76.1697 68.5189 76.0877 68.5622 75.958C68.6086 75.8186 68.701 75.6405 68.8653 75.4762C69.0296 75.3119 69.2077 75.2195 69.3471 75.1731C69.4768 75.1298 69.5588 75.1304 69.5595 75.1304V77.1304V79.1304C70.1878 79.1304 71.0264 78.972 71.6937 78.3047C72.3611 77.6373 72.5195 76.7987 72.5195 76.1704H70.5195ZM69.5595 77.1304V75.1304H65.7675V77.1304V79.1304H69.5595V77.1304ZM65.7675 77.1304V75.1304C65.8236 75.1304 65.885 75.1427 65.9368 75.1643C65.9844 75.1841 65.9913 75.1982 65.9609 75.1706L64.6155 76.6504L63.2702 78.1303C63.9337 78.7336 64.7825 79.1304 65.7675 79.1304V77.1304ZM64.6155 76.6504L66.0131 75.2198L53.5811 63.0757L52.1835 64.5064L50.786 65.9371L63.218 78.0811L64.6155 76.6504ZM52.1835 64.5064L53.565 63.0602C51.1794 60.7815 48.534 59.4344 45.6555 59.4344V61.4344V63.4344C47.193 63.4344 48.8996 64.1354 50.8021 65.9527L52.1835 64.5064ZM45.6555 61.4344V59.4344C43.6658 59.4344 41.8708 60.0378 40.4735 61.3885L41.8635 62.8264L43.2536 64.2644C43.7763 63.7591 44.5093 63.4344 45.6555 63.4344V61.4344ZM41.8635 62.8264L40.523 61.3422C39.0467 62.6756 38.3755 64.4657 38.3755 66.4744H40.3755H42.3755C42.3755 65.4112 42.6963 64.7693 43.2041 64.3106L41.8635 62.8264ZM40.3755 66.4744H38.3755C38.3755 68.3067 38.9304 69.9706 40.1344 71.3135L41.6235 69.9784L43.1127 68.6433C42.6527 68.1302 42.3755 67.4582 42.3755 66.4744H40.3755ZM41.6235 69.9784L40.1344 71.3135C41.3293 72.6463 42.9018 73.3874 44.7045 73.597L44.9355 71.6104L45.1665 69.6238C44.2172 69.5134 43.5818 69.1666 43.1127 68.6433L41.6235 69.9784ZM44.9355 71.6104L44.7365 73.6005C44.7869 73.6056 44.5211 73.5924 44.2413 73.3127C43.931 73.0023 43.8955 72.6609 43.8955 72.5704H45.8955H47.8955C47.8955 71.9039 47.7001 71.1146 47.0697 70.4842C46.47 69.8844 45.7241 69.6793 45.1345 69.6204L44.9355 71.6104ZM45.8955 72.5704H43.8955V76.6984H45.8955H47.8955V72.5704H45.8955ZM45.8955 76.6984H43.8955C43.8955 76.7446 43.8826 76.3265 44.3017 75.9474C44.7186 75.5702 45.1292 75.6244 45.0771 75.6194L44.8875 77.6104L44.6979 79.6014C45.3178 79.6605 46.2325 79.5947 46.9854 78.9135C47.7405 78.2303 47.8955 77.3242 47.8955 76.6984H45.8955ZM44.8875 77.6104L45.0483 75.6169C43.3519 75.4801 41.9536 75.0101 40.7961 74.2552L39.7035 75.9304L38.611 77.6057C40.3975 78.7708 42.4552 79.4208 44.7268 79.604L44.8875 77.6104ZM39.7035 75.9304L40.8047 74.2609C39.6013 73.4671 38.6878 72.4288 38.0434 71.1141L36.2475 71.9944L34.4517 72.8748C35.4073 74.8241 36.7978 76.4098 38.6023 77.6L39.7035 75.9304ZM36.2475 71.9944L38.0364 71.1C37.361 69.7492 36.9995 68.1742 36.9995 66.3304H34.9995H32.9995C32.9995 68.7107 33.4701 70.9117 34.4587 72.8889L36.2475 71.9944ZM34.9995 66.3304H36.9995C36.9995 64.3864 37.3785 62.7768 38.0705 61.4441L36.2955 60.5224L34.5205 59.6008C33.4845 61.596 32.9995 63.8585 32.9995 66.3304H34.9995ZM36.2955 60.5224L38.0705 61.4441C38.7645 60.1075 39.7148 59.1166 40.9358 58.4189L39.9435 56.6824L38.9513 54.946C37.0363 56.0402 35.5546 57.6093 34.5205 59.6008L36.2955 60.5224ZM39.9435 56.6824L40.9778 58.3943C42.1549 57.6831 43.5932 57.2904 45.3675 57.2904V55.2904V53.2904C42.9819 53.2904 40.8042 53.8258 38.9093 54.9706L39.9435 56.6824ZM45.3675 55.2904V57.2904C46.827 57.2904 48.3237 57.64 49.8749 58.388L50.7435 56.5864L51.6121 54.7849C49.5794 53.8048 47.4921 53.2904 45.3675 53.2904V55.2904ZM50.7435 56.5864L49.9013 58.4005C51.4094 59.1006 53.0737 60.3228 54.8857 62.1649L56.3115 60.7624L57.7374 59.36C55.7094 57.2981 53.6617 55.7362 51.5858 54.7724L50.7435 56.5864ZM56.3115 60.7624L54.8929 62.1722L62.4769 69.8042L63.8955 68.3944L65.3142 66.9847L57.7302 59.3527L56.3115 60.7624ZM63.8955 68.3944L62.4813 69.8087C63.0145 70.3418 64.0868 71.0527 65.4138 70.5551L64.7115 68.6824L64.0093 66.8098C64.347 66.6831 64.7002 66.6973 64.9812 66.7964C65.104 66.8398 65.1902 66.8911 65.2396 66.925C65.2648 66.9423 65.2828 66.9566 65.2937 66.9659C65.2993 66.9706 65.3033 66.9742 65.3059 66.9766C65.3072 66.9778 65.3082 66.9787 65.3088 66.9793C65.3091 66.9796 65.3094 66.9798 65.3095 66.98C65.3097 66.9801 65.3097 66.9802 65.3097 66.9802L63.8955 68.3944ZM64.7115 68.6824L65.4138 70.5551C66.8371 70.0214 67.0955 68.6564 67.0955 67.9144H65.0955H63.0955C63.0955 67.9424 63.0873 67.7707 63.2107 67.524C63.3608 67.2238 63.6408 66.948 64.0093 66.8098L64.7115 68.6824ZM65.0955 67.9144H67.0955V55.8184H65.0955H63.0955V67.9144H65.0955ZM65.0955 55.8184H67.0955C67.0955 55.8191 67.0961 55.9012 67.0529 56.0309C67.0064 56.1703 66.9141 56.3483 66.7497 56.5126C66.5854 56.677 66.4074 56.7693 66.268 56.8158C66.1383 56.859 66.0562 56.8584 66.0555 56.8584V54.8584V52.8584C65.4272 52.8584 64.5887 53.0168 63.9213 53.6842C63.254 54.3516 63.0955 55.1902 63.0955 55.8184H65.0955ZM66.0555 54.8584V56.8584H69.5595V54.8584V52.8584H66.0555V54.8584ZM69.5595 54.8584V56.8584C69.5588 56.8584 69.4768 56.859 69.3471 56.8158C69.2077 56.7693 69.0296 56.677 68.8653 56.5126C68.701 56.3483 68.6086 56.1703 68.5622 56.0309C68.5189 55.9012 68.5195 55.8191 68.5195 55.8184H70.5195H72.5195C72.5195 55.1902 72.3611 54.3516 71.6937 53.6842C71.0264 53.0168 70.1878 52.8584 69.5595 52.8584V54.8584ZM70.5195 55.8184H68.5195V76.1704H70.5195H72.5195V55.8184H70.5195ZM63.5595 35.4852V33.4852H61.5595V35.4852H63.5595ZM54.3435 50.6052L53.2351 52.2699L53.2649 52.2898L53.2953 52.3085L54.3435 50.6052ZM36.1035 38.4612L34.9651 40.1056L34.98 40.1159L34.9951 40.1259L36.1035 38.4612ZM35.8155 32.0292L36.6034 33.8675L36.7085 33.8224L36.8078 33.7657L35.8155 32.0292ZM36.6315 32.1252L37.7352 30.4572L37.6984 30.4329L37.6605 30.4102L36.6315 32.1252ZM55.9275 44.8932L54.8239 46.5611L54.8995 46.6111L54.9793 46.6541L55.9275 44.8932ZM58.2795 35.4852H60.2795V33.4852H58.2795V35.4852ZM70.5195 34.5252H68.5195C68.5195 34.5245 68.5189 34.4424 68.5622 34.3127C68.6086 34.1733 68.701 33.9953 68.8653 33.831C69.0296 33.6666 69.2077 33.5743 69.3471 33.5278C69.4768 33.4846 69.5588 33.4852 69.5595 33.4852V35.4852V37.4852C70.1878 37.4852 71.0264 37.3268 71.6937 36.6594C72.3611 35.992 72.5195 35.1534 72.5195 34.5252H70.5195ZM69.5595 35.4852V33.4852H63.5595V35.4852V37.4852H69.5595V35.4852ZM63.5595 35.4852H61.5595V50.0292H63.5595H65.5595V35.4852H63.5595ZM63.5595 50.0292H61.5595C61.5595 50.0285 61.5589 49.9464 61.6022 49.8167C61.6486 49.6773 61.741 49.4993 61.9053 49.335C62.0696 49.1706 62.2477 49.0783 62.3871 49.0318C62.5168 48.9886 62.5988 48.9892 62.5995 48.9892V50.9892V52.9892C63.2278 52.9892 64.0664 52.8307 64.7337 52.1634C65.4011 51.496 65.5595 50.6575 65.5595 50.0292H63.5595ZM62.5995 50.9892V48.9892H55.5435V50.9892V52.9892H62.5995V50.9892ZM55.5435 50.9892V48.9892C55.6179 48.9892 55.5772 49.016 55.3917 48.9019L54.3435 50.6052L53.2953 52.3085C53.9418 52.7063 54.7012 52.9892 55.5435 52.9892V50.9892ZM54.3435 50.6052L55.4519 48.9404L37.2119 36.7964L36.1035 38.4612L34.9951 40.1259L53.2351 52.2699L54.3435 50.6052ZM36.1035 38.4612L37.242 36.8168C37.2511 36.8231 37.3265 36.8798 37.3941 37.0046C37.4639 37.1334 37.4795 37.2502 37.4795 37.3092H35.4795H33.4795C33.4795 38.4865 34.0441 39.4679 34.9651 40.1056L36.1035 38.4612ZM35.4795 37.3092H37.4795V32.7492H35.4795H33.4795V37.3092H35.4795ZM35.4795 32.7492H37.4795C37.4795 32.7495 37.4795 32.7575 37.4783 32.7723C37.4771 32.7871 37.4746 32.8106 37.4691 32.8415C37.4583 32.9014 37.4337 33.0031 37.3759 33.1269C37.2435 33.4106 36.984 33.7043 36.6034 33.8675L35.8155 32.0292L35.0277 30.1909C33.6878 30.7651 33.4795 32.0826 33.4795 32.7492H35.4795ZM35.8155 32.0292L36.8078 33.7657C36.5248 33.9274 36.2149 33.9742 35.9538 33.9435C35.8369 33.9297 35.7484 33.9028 35.6927 33.8817C35.6376 33.8609 35.6072 33.8429 35.6025 33.8401L36.6315 32.1252L37.6605 30.4102C37.0275 30.0303 35.9345 29.6577 34.8233 30.2927L35.8155 32.0292ZM36.6315 32.1252L35.5279 33.7931L54.8239 46.5611L55.9275 44.8932L57.0312 43.2253L37.7352 30.4572L36.6315 32.1252ZM55.9275 44.8932L54.9793 46.6541C55.6205 46.9993 56.3447 47.2292 57.1275 47.2292V45.2292V43.2292C57.1424 43.2292 57.0666 43.235 56.8757 43.1322L55.9275 44.8932ZM57.1275 45.2292V47.2292H57.3195V45.2292V43.2292H57.1275V45.2292ZM57.3195 45.2292V47.2292C57.9478 47.2292 58.7864 47.0707 59.4537 46.4034C60.1211 45.736 60.2795 44.8975 60.2795 44.2692H58.2795H56.2795C56.2795 44.2685 56.2789 44.1864 56.3222 44.0567C56.3686 43.9173 56.461 43.7393 56.6253 43.575C56.7896 43.4106 56.9677 43.3183 57.1071 43.2718C57.2368 43.2285 57.3188 43.2292 57.3195 43.2292V45.2292ZM58.2795 44.2692H60.2795V35.4852H58.2795H56.2795V44.2692H58.2795ZM58.2795 35.4852V33.4852H51.3195V35.4852V37.4852H58.2795V35.4852ZM51.3195 35.4852V33.4852C51.3202 33.4852 51.4023 33.4846 51.532 33.5278C51.6714 33.5743 51.8494 33.6666 52.0137 33.831C52.1781 33.9953 52.2704 34.1733 52.3169 34.3127C52.3601 34.4424 52.3595 34.5245 52.3595 34.5252H50.3595H48.3595C48.3595 35.1534 48.518 35.992 49.1853 36.6594C49.8527 37.3268 50.6912 37.4852 51.3195 37.4852V35.4852ZM50.3595 34.5252H52.3595V30.3972H50.3595H48.3595V34.5252H50.3595ZM50.3595 30.3972H52.3595C52.3595 30.3979 52.3601 30.4799 52.3169 30.6096C52.2704 30.749 52.1781 30.9271 52.0137 31.0914C51.8494 31.2557 51.6714 31.3481 51.532 31.3945C51.4023 31.4378 51.3202 31.4372 51.3195 31.4372L51.3195 29.4372V27.4372C50.6912 27.4372 49.8527 27.5956 49.1853 28.2629C48.518 28.9303 48.3595 29.7689 48.3595 30.3972H50.3595ZM51.3195 29.4372L51.3195 31.4372H69.5595V29.4372V27.4372H51.3195V29.4372ZM69.5595 29.4372V31.4372C69.5588 31.4372 69.4768 31.4378 69.3471 31.3945C69.2077 31.3481 69.0296 31.2557 68.8653 31.0914C68.701 30.9271 68.6086 30.749 68.5622 30.6096C68.5189 30.4799 68.5195 30.3979 68.5195 30.3972H70.5195H72.5195C72.5195 29.7689 72.3611 28.9303 71.6937 28.2629C71.0264 27.5956 70.1878 27.4372 69.5595 27.4372V29.4372ZM70.5195 30.3972H68.5195V34.5252H70.5195H72.5195V30.3972H70.5195ZM70.5195 7.99997V9.99997H72.5195V7.99997H70.5195ZM58.0875 7.99997V5.99997H56.0875V7.99997H58.0875ZM55.6875 21.392L57.1662 22.7386L57.1728 22.7313L57.1794 22.724L55.6875 21.392ZM35.4795 24.08H33.4795V26.08H35.4795V24.08ZM35.4795 18.08V16.08H33.4795V18.08H35.4795ZM51.6555 16.784L53.178 18.0809L53.2037 18.0508L53.2282 18.0196L51.6555 16.784ZM52.7115 7.99997H54.7115V5.99997H52.7115V7.99997ZM35.4795 7.99997H33.4795V9.99997H35.4795V7.99997ZM35.4795 1.99997V-3.05176e-05H33.4795V1.99997H35.4795ZM70.5195 1.99997H72.5195V-3.05176e-05H70.5195V1.99997ZM70.5195 7.99997V5.99997H58.0875V7.99997V9.99997H70.5195V7.99997ZM58.0875 7.99997H56.0875V13.904H58.0875H60.0875V7.99997H58.0875ZM58.0875 13.904H56.0875C56.0875 16.7784 55.3727 18.7417 54.1957 20.0599L55.6875 21.392L57.1794 22.724C59.2024 20.4582 60.0875 17.4295 60.0875 13.904H58.0875ZM55.6875 21.392L54.2088 20.0453C53.0272 21.3428 51.3521 22.08 48.9195 22.08V24.08V26.08C52.2469 26.08 55.0839 25.0251 57.1662 22.7386L55.6875 21.392ZM48.9195 24.08V22.08H35.4795V24.08V26.08H48.9195V24.08ZM35.4795 24.08H37.4795V18.08H35.4795H33.4795V24.08H35.4795ZM35.4795 18.08V20.08H48.6315V18.08V16.08H35.4795V18.08ZM48.6315 18.08V20.08C50.4137 20.08 52.0108 19.4511 53.178 18.0809L51.6555 16.784L50.133 15.487C49.8282 15.8448 49.4094 16.08 48.6315 16.08V18.08ZM51.6555 16.784L53.2282 18.0196C54.2864 16.6728 54.7115 14.9924 54.7115 13.184H52.7115H50.7115C50.7115 14.3835 50.4327 15.1031 50.0829 15.5483L51.6555 16.784ZM52.7115 13.184H54.7115V7.99997H52.7115H50.7115V13.184H52.7115ZM52.7115 7.99997V5.99997H35.4795V7.99997V9.99997H52.7115V7.99997ZM35.4795 7.99997H37.4795V1.99997H35.4795H33.4795V7.99997H35.4795ZM35.4795 1.99997V3.99997H70.5195V1.99997V-3.05176e-05H35.4795V1.99997ZM70.5195 1.99997H68.5195V7.99997H70.5195H72.5195V1.99997H70.5195Z" fill="black" mask="url(#path-1-outside-1_63_5191)"/>
</svg>
